STARTFONT 2.1
COMMENT
COMMENT Converted from TrueType font "c:\Windows\Fonts\arialbd.ttf" by "TTF2BDF 2.6".
COMMENT
FONT -FreeType-Arial-Bold-R-Normal--17-120-100-100-P-88-ISO10646-1
SIZE 12 100 100
FONTBOUNDINGBOX 34 26 -9 -8
STARTPROPERTIES 22
FOUNDRY "FreeType"
FAMILY_NAME "Arial"
WEIGHT_NAME "Bold"
SLANT "R"
SETWIDTH_NAME "Normal"
ADD_STYLE_NAME ""
PIXEL_SIZE 17
POINT_SIZE 120
RESOLUTION_X 100
RESOLUTION_Y 100
SPACING "P"
AVERAGE_WIDTH 88
CHARSET_REGISTRY "ISO10646"
CHARSET_ENCODING "1"
FONT_ASCENT 15
FONT_DESCENT 3
COPYRIGHT "© 2015 The Monotype Corporation. All Rights Reserved.     Hebrew OpenType Layout logic copyright © 2003 & 2007, Ralph Hancock & John Hudson. This layout logic for Biblical Hebrew is open source software under the MIT License; see embedded license description for details."
_TTF_FONTFILE "c:\Windows\Fonts\arialbd.ttf"
_TTF_PSNAME "Arial-BoldMT"
_XFREE86_GLYPH_RANGES "32_126 160_887 890_895 900_906 908 910_929 931_1327 1329_1366 1369_1375 1377_1415 1417_1418 1421_1423 1425_1479 1488_1514 1520_1524 1536_1564 1566_1791 1872_1919 2208_2226 2276_2303 7424_7626 7678_7957 7960_7965 7968_8005 8008_8013 8016_8023 8025 8027 8029 8031_8061 8064_8116 8118_8132 8134_8147 8150_8155 8157_8175 8178_8180 8182_8190 8192_8207 8210_8226 8230 8234_8240 8242_8244 8249_8250 8252_8254 8260 8286 8298_8304 8308_8313 8319 8336_8340 8352_8382 8432 8453 8467 8470_8471 8482"
_XFREE86_GLYPH_RANGES "8486 8494 8525_8526 8531_8532 8539_8542 8580 8592_8597 8616 8706 8710 8719 8721_8722 8725 8729_8730 8734_8735 8745 8747 8776 8800_8801 8804_8805 8962 8976 8992_8993 9472 9474 9484 9488 9492 9496 9500 9508 9516 9524 9532 9552_9580 9600 9604 9608 9612 9616_9619 9632_9633 9642_9644 9650 9658 9660 9668 9674_9676 9679 9688_9689 9702 9786_9788 9792 9794 9824 9827 9829_9830 9834_9835 9839 11360_11391 11799 42775_42785 42888_42892 62209 64256_64262 64275_64279 64285_64310 64312_64316 64318"

STARTCHAR 0020
ENCODING 32
SWIDTH 300 0
DWIDTH 5 0
BBX 1 1 0 0
BITMAP
00
ENDCHAR
STARTCHAR 0021
ENCODING 33
SWIDTH 360 0
DWIDTH 6 0
BBX 2 12 2 0
BITMAP
C0
C0
C0
C0
C0
C0
C0
C0
C0
00
C0
C0
ENDCHAR
STARTCHAR 0022
ENCODING 34
SWIDTH 480 0
DWIDTH 8 0
BBX 6 4 1 8
BITMAP
CC
CC
CC
CC
ENDCHAR
STARTCHAR 0023
ENCODING 35
SWIDTH 540 0
DWIDTH 9 0
BBX 10 12 0 0
BITMAP
0D80
0D80
1B00
FFC0
FFC0
1B00
3600
FFC0
FFC0
3600
6C00
6C00
ENDCHAR
STARTCHAR 0024
ENCODING 36
SWIDTH 540 0
DWIDTH 9 0
BBX 7 15 1 -2
BITMAP
10
38
7C
D6
D0
F0
78
3C
1E
D6
D6
7C
38
10
10
ENDCHAR
STARTCHAR 0025
ENCODING 37
SWIDTH 960 0
DWIDTH 16 0
BBX 15 12 0 0
BITMAP
7830
CC60
CC60
CCC0
CD80
7980
033C
0366
0666
0666
0C66
183C
ENDCHAR
STARTCHAR 0026
ENCODING 38
SWIDTH 720 0
DWIDTH 12 0
BBX 11 12 1 0
BITMAP
3E00
7F00
6300
6300
3E00
3C00
7E80
CEC0
C780
C3C0
7FE0
3C40
ENDCHAR
STARTCHAR 0027
ENCODING 39
SWIDTH 240 0
DWIDTH 4 0
BBX 2 4 1 8
BITMAP
C0
C0
C0
C0
ENDCHAR
STARTCHAR 0028
ENCODING 40
SWIDTH 360 0
DWIDTH 6 0
BBX 4 15 1 -3
BITMAP
30
60
60
60
C0
C0
C0
C0
C0
C0
C0
60
60
60
30
ENDCHAR
STARTCHAR 0029
ENCODING 41
SWIDTH 360 0
DWIDTH 6 0
BBX 4 15 1 -3
BITMAP
C0
60
60
60
30
30
30
30
30
30
30
60
60
60
C0
ENDCHAR
STARTCHAR 002A
ENCODING 42
SWIDTH 420 0
DWIDTH 7 0
BBX 5 5 1 7
BITMAP
20
F8
20
50
D8
ENDCHAR
STARTCHAR 002B
ENCODING 43
SWIDTH 600 0
DWIDTH 10 0
BBX 8 8 1 2
BITMAP
18
18
18
FF
FF
18
18
18
ENDCHAR
STARTCHAR 002C
ENCODING 44
SWIDTH 300 0
DWIDTH 5 0
BBX 2 5 1 -3
BITMAP
C0
C0
40
40
80
ENDCHAR
STARTCHAR 002D
ENCODING 45
SWIDTH 360 0
DWIDTH 6 0
BBX 5 2 1 3
BITMAP
F8
F8
ENDCHAR
STARTCHAR 002E
ENCODING 46
SWIDTH 300 0
DWIDTH 5 0
BBX 2 2 1 0
BITMAP
C0
C0
ENDCHAR
STARTCHAR 002F
ENCODING 47
SWIDTH 300 0
DWIDTH 5 0
BBX 5 12 0 0
BITMAP
18
18
30
30
30
30
60
60
60
60
C0
C0
ENDCHAR
STARTCHAR 0030
ENCODING 48
SWIDTH 540 0
DWIDTH 9 0
BBX 8 12 0 0
BITMAP
3C
7E
E7
C3
C3
C3
C3
C3
C3
E7
7E
3C
ENDCHAR
STARTCHAR 0031
ENCODING 49
SWIDTH 540 0
DWIDTH 9 0
BBX 5 12 1 0
BITMAP
18
38
78
D8
98
18
18
18
18
18
18
18
ENDCHAR
STARTCHAR 0032
ENCODING 50
SWIDTH 540 0
DWIDTH 9 0
BBX 8 12 0 0
BITMAP
3C
7E
E3
C3
03
06
0E
1C
30
60
FF
FF
ENDCHAR
STARTCHAR 0033
ENCODING 51
SWIDTH 540 0
DWIDTH 9 0
BBX 8 12 0 0
BITMAP
3E
7F
E3
03
1E
1E
07
03
C3
E7
7E
3C
ENDCHAR
STARTCHAR 0034
ENCODING 52
SWIDTH 540 0
DWIDTH 9 0
BBX 8 12 0 0
BITMAP
06
0E
0E
1E
36
36
66
C6
FF
FF
06
06
ENDCHAR
STARTCHAR 0035
ENCODING 53
SWIDTH 540 0
DWIDTH 9 0
BBX 8 12 0 0
BITMAP
7E
7E
60
E0
FC
FE
C7
03
C3
E7
7E
3C
ENDCHAR
STARTCHAR 0036
ENCODING 54
SWIDTH 540 0
DWIDTH 9 0
BBX 8 12 0 0
BITMAP
3E
7F
63
C0
DC
FE
E7
C3
C3
63
7E
3C
ENDCHAR
STARTCHAR 0037
ENCODING 55
SWIDTH 540 0
DWIDTH 9 0
BBX 8 12 0 0
BITMAP
FF
FF
06
0C
0C
18
18
18
30
30
30
30
ENDCHAR
STARTCHAR 0038
ENCODING 56
SWIDTH 540 0
DWIDTH 9 0
BBX 8 12 0 0
BITMAP
3C
7E
C3
C3
C3
7E
7E
C3
C3
C3
7E
3C
ENDCHAR
STARTCHAR 0039
ENCODING 57
SWIDTH 540 0
DWIDTH 9 0
BBX 8 12 0 0
BITMAP
3C
7E
C6
C3
C3
E7
7F
3B
03
C6
FE
7C
ENDCHAR
STARTCHAR 003A
ENCODING 58
SWIDTH 360 0
DWIDTH 6 0
BBX 2 9 2 0
BITMAP
C0
C0
00
00
00
00
00
C0
C0
ENDCHAR
STARTCHAR 003B
ENCODING 59
SWIDTH 360 0
DWIDTH 6 0
BBX 2 12 2 -3
BITMAP
C0
C0
00
00
00
00
00
C0
C0
40
40
80
ENDCHAR
STARTCHAR 003C
ENCODING 60
SWIDTH 600 0
DWIDTH 10 0
BBX 8 9 0 1
BITMAP
01
07
1E
78
E0
78
1E
07
01
ENDCHAR
STARTCHAR 003D
ENCODING 61
SWIDTH 600 0
DWIDTH 10 0
BBX 9 6 0 3
BITMAP
FF80
FF80
0000
0000
FF80
FF80
ENDCHAR
STARTCHAR 003E
ENCODING 62
SWIDTH 600 0
DWIDTH 10 0
BBX 8 9 0 1
BITMAP
80
E0
78
1E
07
1E
78
E0
80
ENDCHAR
STARTCHAR 003F
ENCODING 63
SWIDTH 600 0
DWIDTH 10 0
BBX 8 12 1 0
BITMAP
3C
7E
E3
C3
07
0E
1C
18
18
00
18
18
ENDCHAR
STARTCHAR 0040
ENCODING 64
SWIDTH 1020 0
DWIDTH 17 0
BBX 16 16 1 -4
BITMAP
07E0
1FF8
381C
776C
6FE6
ECE6
D8E6
D8C6
D8CE
D9DC
DFF8
6EF0
7007
381E
1FFC
07F0
ENDCHAR
STARTCHAR 0041
ENCODING 65
SWIDTH 660 0
DWIDTH 11 0
BBX 11 12 0 0
BITMAP
0E00
0E00
1B00
1B00
1B00
3180
3180
3F80
7FC0
60C0
60C0
C060
ENDCHAR
STARTCHAR 0042
ENCODING 66
SWIDTH 720 0
DWIDTH 12 0
BBX 10 12 1 0
BITMAP
FF00
FF80
C180
C180
C180
FF00
FF80
C0C0
C0C0
C0C0
FF80
FF00
ENDCHAR
STARTCHAR 0043
ENCODING 67
SWIDTH 720 0
DWIDTH 12 0
BBX 10 12 1 0
BITMAP
1F00
7F80
61C0
E080
C000
C000
C000
C000
E080
61C0
7F80
1F00
ENDCHAR
STARTCHAR 0044
ENCODING 68
SWIDTH 720 0
DWIDTH 12 0
BBX 10 12 1 0
BITMAP
FE00
FF80
C180
C0C0
C0C0
C0C0
C0C0
C0C0
C0C0
C180
FF80
FE00
ENDCHAR
STARTCHAR 0045
ENCODING 69
SWIDTH 660 0
DWIDTH 11 0
BBX 9 12 1 0
BITMAP
FF80
FF80
C000
C000
C000
FF80
FF80
C000
C000
C000
FF80
FF80
ENDCHAR
STARTCHAR 0046
ENCODING 70
SWIDTH 600 0
DWIDTH 10 0
BBX 8 12 1 0
BITMAP
FF
FF
C0
C0
C0
FE
FE
C0
C0
C0
C0
C0
ENDCHAR
STARTCHAR 0047
ENCODING 71
SWIDTH 780 0
DWIDTH 13 0
BBX 11 12 1 0
BITMAP
1F80
7FC0
60E0
E040
C000
C000
C3E0
C3E0
E060
60E0
7FE0
1F80
ENDCHAR
STARTCHAR 0048
ENCODING 72
SWIDTH 720 0
DWIDTH 12 0
BBX 10 12 1 0
BITMAP
C0C0
C0C0
C0C0
C0C0
C0C0
FFC0
FFC0
C0C0
C0C0
C0C0
C0C0
C0C0
ENDCHAR
STARTCHAR 0049
ENCODING 73
SWIDTH 240 0
DWIDTH 4 0
BBX 2 12 1 0
BITMAP
C0
C0
C0
C0
C0
C0
C0
C0
C0
C0
C0
C0
ENDCHAR
STARTCHAR 004A
ENCODING 74
SWIDTH 540 0
DWIDTH 9 0
BBX 8 12 0 0
BITMAP
03
03
03
03
03
03
03
03
C3
C7
7E
3C
ENDCHAR
STARTCHAR 004B
ENCODING 75
SWIDTH 720 0
DWIDTH 12 0
BBX 10 12 1 0
BITMAP
C1C0
C180
C300
C600
CC00
DE00
F700
E300
C380
C180
C1C0
C0C0
ENDCHAR
STARTCHAR 004C
ENCODING 76
SWIDTH 600 0
DWIDTH 10 0
BBX 8 12 1 0
BITMAP
C0
C0
C0
C0
C0
C0
C0
C0
C0
C0
FF
FF
ENDCHAR
STARTCHAR 004D
ENCODING 77
SWIDTH 780 0
DWIDTH 13 0
BBX 11 12 1 0
BITMAP
E0E0
E0E0
F1E0
F1E0
D160
DB60
DB60
DB60
CE60
CE60
CE60
C460
ENDCHAR
STARTCHAR 004E
ENCODING 78
SWIDTH 720 0
DWIDTH 12 0
BBX 10 12 1 0
BITMAP
C0C0
E0C0
F0C0
F0C0
D8C0
CCC0
CCC0
C6C0
C3C0
C3C0
C1C0
C0C0
ENDCHAR
STARTCHAR 004F
ENCODING 79
SWIDTH 780 0
DWIDTH 13 0
BBX 11 12 1 0
BITMAP
1F00
7FC0
60C0
E060
C060
C060
C060
C060
E060
60C0
7FC0
1F00
ENDCHAR
STARTCHAR 0050
ENCODING 80
SWIDTH 660 0
DWIDTH 11 0
BBX 9 12 1 0
BITMAP
FE00
FF00
C180
C180
C380
FF00
FE00
C000
C000
C000
C000
C000
ENDCHAR
STARTCHAR 0051
ENCODING 81
SWIDTH 780 0
DWIDTH 13 0
BBX 11 13 1 -1
BITMAP
1F00
7FC0
60C0
E060
C060
C060
C060
C060
C6E0
63C0
7FC0
1EC0
0060
ENDCHAR
STARTCHAR 0052
ENCODING 82
SWIDTH 720 0
DWIDTH 12 0
BBX 11 12 1 0
BITMAP
FF00
FF80
C1C0
C0C0
C1C0
FF80
FE00
C700
C380
C380
C1C0
C0E0
ENDCHAR
STARTCHAR 0053
ENCODING 83
SWIDTH 660 0
DWIDTH 11 0
BBX 9 12 1 0
BITMAP
3E00
7F00
E380
C180
F000
7E00
1F00
0380
C180
E380
7F00
3E00
ENDCHAR
STARTCHAR 0054
ENCODING 84
SWIDTH 600 0
DWIDTH 10 0
BBX 10 12 0 0
BITMAP
FFC0
FFC0
0C00
0C00
0C00
0C00
0C00
0C00
0C00
0C00
0C00
0C00
ENDCHAR
STARTCHAR 0055
ENCODING 85
SWIDTH 720 0
DWIDTH 12 0
BBX 10 12 1 0
BITMAP
C0C0
C0C0
C0C0
C0C0
C0C0
C0C0
C0C0
C0C0
C0C0
E1C0
7F80
3F00
ENDCHAR
STARTCHAR 0056
ENCODING 86
SWIDTH 660 0
DWIDTH 11 0
BBX 11 12 0 0
BITMAP
C060
60C0
60C0
60C0
3180
3180
3B80
1B00
1B00
0E00
0E00
0E00
ENDCHAR
STARTCHAR 0057
ENCODING 87
SWIDTH 1020 0
DWIDTH 17 0
BBX 17 12 0 0
BITMAP
C1C180
E1C380
63E300
636300
636300
377600
363600
363600
3E3E00
1C1C00
1C1C00
1C1C00
ENDCHAR
STARTCHAR 0058
ENCODING 88
SWIDTH 660 0
DWIDTH 11 0
BBX 9 12 1 0
BITMAP
C180
E380
6300
3600
3E00
1C00
1C00
3E00
3600
6300
E380
C180
ENDCHAR
STARTCHAR 0059
ENCODING 89
SWIDTH 600 0
DWIDTH 10 0
BBX 10 12 0 0
BITMAP
C0C0
E1C0
6180
3300
3700
1E00
0C00
0C00
0C00
0C00
0C00
0C00
ENDCHAR
STARTCHAR 005A
ENCODING 90
SWIDTH 540 0
DWIDTH 9 0
BBX 9 12 0 0
BITMAP
7F80
7F80
0300
0600
0E00
0C00
1800
3800
3000
6000
FF80
FF80
ENDCHAR
STARTCHAR 005B
ENCODING 91
SWIDTH 360 0
DWIDTH 6 0
BBX 4 15 1 -3
BITMAP
F0
F0
C0
C0
C0
C0
C0
C0
C0
C0
C0
C0
C0
F0
F0
ENDCHAR
STARTCHAR 005C
ENCODING 92
SWIDTH 300 0
DWIDTH 5 0
BBX 5 12 0 0
BITMAP
C0
C0
60
60
60
60
30
30
30
30
18
18
ENDCHAR
STARTCHAR 005D
ENCODING 93
SWIDTH 360 0
DWIDTH 6 0
BBX 4 15 1 -3
BITMAP
F0
F0
30
30
30
30
30
30
30
30
30
30
30
F0
F0
ENDCHAR
STARTCHAR 005E
ENCODING 94
SWIDTH 600 0
DWIDTH 10 0
BBX 8 7 1 5
BITMAP
18
3C
3C
66
66
66
C3
ENDCHAR
STARTCHAR 005F
ENCODING 95
SWIDTH 540 0
DWIDTH 9 0
BBX 9 2 0 -3
BITMAP
FF80
FF80
ENDCHAR
STARTCHAR 0060
ENCODING 96
SWIDTH 360 0
DWIDTH 6 0
BBX 3 2 1 10
BITMAP
C0
60
ENDCHAR
STARTCHAR 0061
ENCODING 97
SWIDTH 540 0
DWIDTH 9 0
BBX 8 9 1 0
BITMAP
7C
FE
C6
1E
7E
E6
C6
FE
7B
ENDCHAR
STARTCHAR 0062
ENCODING 98
SWIDTH 600 0
DWIDTH 10 0
BBX 8 12 1 0
BITMAP
C0
C0
C0
DC
FE
E7
C3
C3
C3
E7
FE
DC
ENDCHAR
STARTCHAR 0063
ENCODING 99
SWIDTH 540 0
DWIDTH 9 0
BBX 7 9 1 0
BITMAP
3C
7E
E6
C0
C0
C0
E6
7E
3C
ENDCHAR
STARTCHAR 0064
ENCODING 100
SWIDTH 600 0
DWIDTH 10 0
BBX 8 12 1 0
BITMAP
03
03
03
3B
7F
E7
C3
C3
C3
E7
7F
3B
ENDCHAR
STARTCHAR 0065
ENCODING 101
SWIDTH 540 0
DWIDTH 9 0
BBX 7 9 1 0
BITMAP
38
7C
C6
FE
FE
C0
E6
7C
38
ENDCHAR
STARTCHAR 0066
ENCODING 102
SWIDTH 300 0
DWIDTH 5 0
BBX 6 12 0 0
BITMAP
3C
7C
60
F8
F8
60
60
60
60
60
60
60
ENDCHAR
STARTCHAR 0067
ENCODING 103
SWIDTH 600 0
DWIDTH 10 0
BBX 8 12 1 -3
BITMAP
3B
7F
E7
C3
C3
C3
E7
7F
3B
C3
FF
7E
ENDCHAR
STARTCHAR 0068
ENCODING 104
SWIDTH 600 0
DWIDTH 10 0
BBX 8 12 1 0
BITMAP
C0
C0
C0
DE
FF
E3
C3
C3
C3
C3
C3
C3
ENDCHAR
STARTCHAR 0069
ENCODING 105
SWIDTH 240 0
DWIDTH 4 0
BBX 2 12 1 0
BITMAP
C0
C0
00
C0
C0
C0
C0
C0
C0
C0
C0
C0
ENDCHAR
STARTCHAR 006A
ENCODING 106
SWIDTH 240 0
DWIDTH 4 0
BBX 4 15 -1 -3
BITMAP
30
30
00
30
30
30
30
30
30
30
30
30
30
F0
E0
ENDCHAR
STARTCHAR 006B
ENCODING 107
SWIDTH 540 0
DWIDTH 9 0
BBX 7 12 1 0
BITMAP
C0
C0
C0
C6
CC
D8
F8
FC
EC
CC
C6
C6
ENDCHAR
STARTCHAR 006C
ENCODING 108
SWIDTH 240 0
DWIDTH 4 0
BBX 2 12 1 0
BITMAP
C0
C0
C0
C0
C0
C0
C0
C0
C0
C0
C0
C0
ENDCHAR
STARTCHAR 006D
ENCODING 109
SWIDTH 840 0
DWIDTH 14 0
BBX 12 9 1 0
BITMAP
DCE0
FFF0
E730
C630
C630
C630
C630
C630
C630
ENDCHAR
STARTCHAR 006E
ENCODING 110
SWIDTH 600 0
DWIDTH 10 0
BBX 8 9 1 0
BITMAP
DE
FF
E3
C3
C3
C3
C3
C3
C3
ENDCHAR
STARTCHAR 006F
ENCODING 111
SWIDTH 600 0
DWIDTH 10 0
BBX 8 9 1 0
BITMAP
3C
7E
E7
C3
C3
C3
E7
7E
3C
ENDCHAR
STARTCHAR 0070
ENCODING 112
SWIDTH 600 0
DWIDTH 10 0
BBX 8 12 1 -3
BITMAP
DC
FE
E7
C3
C3
C3
E7
FE
DC
C0
C0
C0
ENDCHAR
STARTCHAR 0071
ENCODING 113
SWIDTH 600 0
DWIDTH 10 0
BBX 8 12 1 -3
BITMAP
3B
7F
E7
C3
C3
C3
E7
7F
3B
03
03
03
ENDCHAR
STARTCHAR 0072
ENCODING 114
SWIDTH 420 0
DWIDTH 7 0
BBX 6 9 1 0
BITMAP
DC
FC
E0
C0
C0
C0
C0
C0
C0
ENDCHAR
STARTCHAR 0073
ENCODING 115
SWIDTH 540 0
DWIDTH 9 0
BBX 7 9 1 0
BITMAP
7C
FE
C6
F0
7C
0E
C6
FE
7C
ENDCHAR
STARTCHAR 0074
ENCODING 116
SWIDTH 360 0
DWIDTH 6 0
BBX 5 12 0 0
BITMAP
20
60
60
F8
F8
60
60
60
60
60
78
38
ENDCHAR
STARTCHAR 0075
ENCODING 117
SWIDTH 600 0
DWIDTH 10 0
BBX 8 9 1 0
BITMAP
C3
C3
C3
C3
C3
C3
C7
FF
7B
ENDCHAR
STARTCHAR 0076
ENCODING 118
SWIDTH 540 0
DWIDTH 9 0
BBX 7 9 1 0
BITMAP
C6
C6
C6
6C
6C
6C
38
38
38
ENDCHAR
STARTCHAR 0077
ENCODING 119
SWIDTH 780 0
DWIDTH 13 0
BBX 13 9 0 0
BITMAP
C718
C718
6730
6DB0
6DB0
6DB0
38E0
38E0
38E0
ENDCHAR
STARTCHAR 0078
ENCODING 120
SWIDTH 540 0
DWIDTH 9 0
BBX 7 9 1 0
BITMAP
C6
EE
6C
38
38
38
6C
EE
C6
ENDCHAR
STARTCHAR 0079
ENCODING 121
SWIDTH 540 0
DWIDTH 9 0
BBX 9 12 0 -3
BITMAP
C180
C180
6300
6300
3600
3600
3E00
1C00
1C00
1800
7800
7000
ENDCHAR
STARTCHAR 007A
ENCODING 122
SWIDTH 540 0
DWIDTH 9 0
BBX 7 9 1 0
BITMAP
FE
FE
0C
1C
38
70
60
FE
FE
ENDCHAR
STARTCHAR 007B
ENCODING 123
SWIDTH 420 0
DWIDTH 7 0
BBX 6 15 1 -3
BITMAP
1C
3C
30
30
30
30
E0
E0
30
30
30
30
30
3C
1C
ENDCHAR
STARTCHAR 007C
ENCODING 124
SWIDTH 240 0
DWIDTH 4 0
BBX 2 16 1 -4
BITMAP
C0
C0
C0
C0
C0
C0
C0
C0
C0
C0
C0
C0
C0
C0
C0
C0
ENDCHAR
STARTCHAR 007D
ENCODING 125
SWIDTH 420 0
DWIDTH 7 0
BBX 6 15 0 -3
BITMAP
E0
F0
30
30
30
30
1C
1C
30
30
30
30
30
F0
E0
ENDCHAR
STARTCHAR 007E
ENCODING 126
SWIDTH 600 0
DWIDTH 10 0
BBX 9 3 0 4
BITMAP
7880
FF80
8F00
ENDCHAR
STARTCHAR 00A0
ENCODING 160
SWIDTH 300 0
DWIDTH 5 0
BBX 1 1 0 0
BITMAP
00
ENDCHAR
STARTCHAR 00A1
ENCODING 161
SWIDTH 360 0
DWIDTH 6 0
BBX 2 12 2 -3
BITMAP
C0
C0
00
C0
C0
C0
C0
C0
C0
C0
C0
C0
ENDCHAR
STARTCHAR 00A2
ENCODING 162
SWIDTH 540 0
DWIDTH 9 0
BBX 8 15 0 -3
BITMAP
02
02
04
3E
7E
EB
C8
D8
D3
F7
7E
3C
20
40
40
ENDCHAR
STARTCHAR 00A3
ENCODING 163
SWIDTH 540 0
DWIDTH 9 0
BBX 9 12 0 0
BITMAP
1E00
3F00
6380
6180
6000
FC00
FC00
3000
3000
7900
FF80
4700
ENDCHAR
STARTCHAR 00A4
ENCODING 164
SWIDTH 540 0
DWIDTH 9 0
BBX 9 9 0 1
BITMAP
2200
7F00
FF80
6300
6300
6300
FF80
7F00
2200
ENDCHAR
STARTCHAR 00A5
ENCODING 165
SWIDTH 540 0
DWIDTH 9 0
BBX 8 12 0 0
BITMAP
C3
66
66
26
3C
3C
FF
18
FF
18
18
18
ENDCHAR
STARTCHAR 00A6
ENCODING 166
SWIDTH 240 0
DWIDTH 4 0
BBX 2 16 1 -4
BITMAP
C0
C0
C0
C0
C0
C0
00
00
00
C0
C0
C0
C0
C0
C0
C0
ENDCHAR
STARTCHAR 00A7
ENCODING 167
SWIDTH 540 0
DWIDTH 9 0
BBX 8 16 0 -4
BITMAP
3C
7E
66
70
38
7C
CE
C7
E3
73
3E
1C
0E
66
7E
3C
ENDCHAR
STARTCHAR 00A8
ENCODING 168
SWIDTH 360 0
DWIDTH 6 0
BBX 6 2 0 10
BITMAP
CC
CC
ENDCHAR
STARTCHAR 00A9
ENCODING 169
SWIDTH 780 0
DWIDTH 13 0
BBX 12 12 0 0
BITMAP
0F00
30C0
4020
4F20
9090
9010
9010
9090
4F20
4020
30C0
0F00
ENDCHAR
STARTCHAR 00AA
ENCODING 170
SWIDTH 360 0
DWIDTH 6 0
BBX 5 6 0 6
BITMAP
70
D8
38
D8
D8
78
ENDCHAR
STARTCHAR 00AB
ENCODING 171
SWIDTH 540 0
DWIDTH 9 0
BBX 7 8 1 1
BITMAP
36
6C
6C
D8
D8
6C
6C
36
ENDCHAR
STARTCHAR 00AC
ENCODING 172
SWIDTH 600 0
DWIDTH 10 0
BBX 9 6 0 3
BITMAP
FF80
FF80
0180
0180
0180
0180
ENDCHAR
STARTCHAR 00AD
ENCODING 173
SWIDTH 360 0
DWIDTH 6 0
BBX 5 2 1 3
BITMAP
F8
F8
ENDCHAR
STARTCHAR 00AE
ENCODING 174
SWIDTH 780 0
DWIDTH 13 0
BBX 12 12 0 0
BITMAP
0F00
30C0
4020
4E20
8910
8910
8E10
8910
4920
4020
30C0
0F00
ENDCHAR
STARTCHAR 00AF
ENCODING 175
SWIDTH 540 0
DWIDTH 9 0
BBX 9 2 0 13
BITMAP
FF80
FF80
ENDCHAR
STARTCHAR 00B0
ENCODING 176
SWIDTH 420 0
DWIDTH 7 0
BBX 5 5 1 7
BITMAP
70
88
88
88
70
ENDCHAR
STARTCHAR 00B1
ENCODING 177
SWIDTH 540 0
DWIDTH 9 0
BBX 8 11 0 0
BITMAP
18
18
18
FF
FF
18
18
18
00
FF
FF
ENDCHAR
STARTCHAR 00B2
ENCODING 178
SWIDTH 360 0
DWIDTH 6 0
BBX 5 6 0 6
BITMAP
70
D8
18
30
60
F8
ENDCHAR
STARTCHAR 00B3
ENCODING 179
SWIDTH 360 0
DWIDTH 6 0
BBX 5 6 0 6
BITMAP
70
D8
30
18
D8
70
ENDCHAR
STARTCHAR 00B4
ENCODING 180
SWIDTH 360 0
DWIDTH 6 0
BBX 3 2 1 10
BITMAP
60
C0
ENDCHAR
STARTCHAR 00B5
ENCODING 181
SWIDTH 600 0
DWIDTH 10 0
BBX 8 12 1 -3
BITMAP
C3
C3
C3
C3
C3
C3
E7
FF
DB
C0
C0
C0
ENDCHAR
STARTCHAR 00B6
ENCODING 182
SWIDTH 540 0
DWIDTH 9 0
BBX 9 16 0 -4
BITMAP
7F80
7F80
FB00
FB00
FB00
FB00
7B00
1B00
1B00
1B00
1B00
1B00
1B00
1B00
1B00
1B00
ENDCHAR
STARTCHAR 00B7
ENCODING 183
SWIDTH 360 0
DWIDTH 6 0
BBX 2 2 2 5
BITMAP
C0
C0
ENDCHAR
STARTCHAR 00B8
ENCODING 184
SWIDTH 300 0
DWIDTH 5 0
BBX 4 3 0 -3
BITMAP
70
30
E0
ENDCHAR
STARTCHAR 00B9
ENCODING 185
SWIDTH 360 0
DWIDTH 6 0
BBX 4 6 0 6
BITMAP
30
F0
30
30
30
30
ENDCHAR
STARTCHAR 00BA
ENCODING 186
SWIDTH 360 0
DWIDTH 6 0
BBX 5 6 1 6
BITMAP
70
D8
D8
D8
D8
70
ENDCHAR
STARTCHAR 00BB
ENCODING 187
SWIDTH 540 0
DWIDTH 9 0
BBX 7 8 1 1
BITMAP
D8
6C
6C
36
36
6C
6C
D8
ENDCHAR
STARTCHAR 00BC
ENCODING 188
SWIDTH 840 0
DWIDTH 14 0
BBX 14 12 0 0
BITMAP
30C0
F0C0
3180
3180
3300
3300
0618
0E38
0C58
1898
18FC
3018
ENDCHAR
STARTCHAR 00BD
ENCODING 189
SWIDTH 840 0
DWIDTH 14 0
BBX 13 12 0 0
BITMAP
30C0
F0C0
3180
3180
3300
3300
0670
0CD8
0C18
1830
1860
30F8
ENDCHAR
STARTCHAR 00BE
ENCODING 190
SWIDTH 840 0
DWIDTH 14 0
BBX 14 12 0 0
BITMAP
7060
D8C0
30C0
1980
D980
7300
0618
0638
0C58
0C98
18FC
1818
ENDCHAR
STARTCHAR 00BF
ENCODING 191
SWIDTH 600 0
DWIDTH 10 0
BBX 8 12 1 -3
BITMAP
18
18
00
18
18
38
70
E0
C3
C7
7E
3C
ENDCHAR
STARTCHAR 00C0
ENCODING 192
SWIDTH 660 0
DWIDTH 11 0
BBX 11 15 0 0
BITMAP
0C00
0600
0000
0E00
0E00
1B00
1B00
1B00
3180
3180
3F80
7FC0
60C0
60C0
C060
ENDCHAR
STARTCHAR 00C1
ENCODING 193
SWIDTH 660 0
DWIDTH 11 0
BBX 11 15 0 0
BITMAP
0300
0600
0000
0E00
0E00
1B00
1B00
1B00
3180
3180
3F80
7FC0
60C0
60C0
C060
ENDCHAR
STARTCHAR 00C2
ENCODING 194
SWIDTH 660 0
DWIDTH 11 0
BBX 11 15 0 0
BITMAP
0E00
1B00
0000
0E00
0E00
1B00
1B00
1B00
3180
3180
3F80
7FC0
60C0
60C0
C060
ENDCHAR
STARTCHAR 00C3
ENCODING 195
SWIDTH 660 0
DWIDTH 11 0
BBX 11 15 0 0
BITMAP
1C80
1380
0000
0E00
0E00
1B00
1B00
1B00
3180
3180
3F80
7FC0
60C0
60C0
C060
ENDCHAR
STARTCHAR 00C4
ENCODING 196
SWIDTH 660 0
DWIDTH 11 0
BBX 11 15 0 0
BITMAP
1980
1980
0000
0E00
0E00
1B00
1B00
1B00
3180
3180
3F80
7FC0
60C0
60C0
C060
ENDCHAR
STARTCHAR 00C5
ENCODING 197
SWIDTH 660 0
DWIDTH 11 0
BBX 11 15 0 0
BITMAP
0600
0900
0900
0E00
0E00
1B00
1B00
1B00
3180
3180
3F80
7FC0
60C0
60C0
C060
ENDCHAR
STARTCHAR 00C6
ENCODING 198
SWIDTH 1020 0
DWIDTH 17 0
BBX 17 12 -1 0
BITMAP
03FF80
07FF80
06C000
0CC000
0CC000
18FF80
18FF80
3FC000
3FC000
60C000
60FF80
C0FF80
ENDCHAR
STARTCHAR 00C7
ENCODING 199
SWIDTH 720 0
DWIDTH 12 0
BBX 10 15 1 -3
BITMAP
1F00
7F80
61C0
E080
C000
C000
C000
C000
E080
61C0
7F80
1F00
0E00
0600
1C00
ENDCHAR
STARTCHAR 00C8
ENCODING 200
SWIDTH 660 0
DWIDTH 11 0
BBX 9 15 1 0
BITMAP
1800
0C00
0000
FF80
FF80
C000
C000
C000
FF80
FF80
C000
C000
C000
FF80
FF80
ENDCHAR
STARTCHAR 00C9
ENCODING 201
SWIDTH 660 0
DWIDTH 11 0
BBX 9 15 1 0
BITMAP
0600
0C00
0000
FF80
FF80
C000
C000
C000
FF80
FF80
C000
C000
C000
FF80
FF80
ENDCHAR
STARTCHAR 00CA
ENCODING 202
SWIDTH 660 0
DWIDTH 11 0
BBX 9 15 1 0
BITMAP
1C00
3600
0000
FF80
FF80
C000
C000
C000
FF80
FF80
C000
C000
C000
FF80
FF80
ENDCHAR
STARTCHAR 00CB
ENCODING 203
SWIDTH 660 0
DWIDTH 11 0
BBX 9 15 1 0
BITMAP
3300
3300
0000
FF80
FF80
C000
C000
C000
FF80
FF80
C000
C000
C000
FF80
FF80
ENDCHAR
STARTCHAR 00CC
ENCODING 204
SWIDTH 240 0
DWIDTH 4 0
BBX 3 15 0 0
BITMAP
C0
60
00
60
60
60
60
60
60
60
60
60
60
60
60
ENDCHAR
STARTCHAR 00CD
ENCODING 205
SWIDTH 240 0
DWIDTH 4 0
BBX 3 15 1 0
BITMAP
60
C0
00
C0
C0
C0
C0
C0
C0
C0
C0
C0
C0
C0
C0
ENDCHAR
STARTCHAR 00CE
ENCODING 206
SWIDTH 240 0
DWIDTH 4 0
BBX 5 15 0 0
BITMAP
70
D8
00
60
60
60
60
60
60
60
60
60
60
60
60
ENDCHAR
STARTCHAR 00CF
ENCODING 207
SWIDTH 240 0
DWIDTH 4 0
BBX 6 15 -1 0
BITMAP
CC
CC
00
30
30
30
30
30
30
30
30
30
30
30
30
ENDCHAR
STARTCHAR 00D0
ENCODING 208
SWIDTH 720 0
DWIDTH 12 0
BBX 11 12 0 0
BITMAP
7F00
7FC0
60C0
6060
6060
FC60
6060
6060
6060
60C0
7FC0
7F00
ENDCHAR
STARTCHAR 00D1
ENCODING 209
SWIDTH 720 0
DWIDTH 12 0
BBX 10 15 1 0
BITMAP
3900
2700
0000
C0C0
E0C0
F0C0
F0C0
D8C0
CCC0
CCC0
C6C0
C3C0
C3C0
C1C0
C0C0
ENDCHAR
STARTCHAR 00D2
ENCODING 210
SWIDTH 780 0
DWIDTH 13 0
BBX 11 15 1 0
BITMAP
0C00
0600
0000
1F00
7FC0
60C0
E060
C060
C060
C060
C060
E060
60C0
7FC0
1F00
ENDCHAR
STARTCHAR 00D3
ENCODING 211
SWIDTH 780 0
DWIDTH 13 0
BBX 11 15 1 0
BITMAP
0600
0C00
0000
1F00
7FC0
60C0
E060
C060
C060
C060
C060
E060
60C0
7FC0
1F00
ENDCHAR
STARTCHAR 00D4
ENCODING 212
SWIDTH 780 0
DWIDTH 13 0
BBX 11 15 1 0
BITMAP
0E00
1B00
0000
1F00
7FC0
60C0
E060
C060
C060
C060
C060
E060
60C0
7FC0
1F00
ENDCHAR
STARTCHAR 00D5
ENCODING 213
SWIDTH 780 0
DWIDTH 13 0
BBX 11 15 1 0
BITMAP
1C80
1380
0000
1F00
7FC0
60C0
E060
C060
C060
C060
C060
E060
60C0
7FC0
1F00
ENDCHAR
STARTCHAR 00D6
ENCODING 214
SWIDTH 780 0
DWIDTH 13 0
BBX 11 15 1 0
BITMAP
1980
1980
0000
1F00
7FC0
60C0
E060
C060
C060
C060
C060
E060
60C0
7FC0
1F00
ENDCHAR
STARTCHAR 00D7
ENCODING 215
SWIDTH 600 0
DWIDTH 10 0
BBX 6 7 2 2
BITMAP
84
CC
78
30
78
CC
84
ENDCHAR
STARTCHAR 00D8
ENCODING 216
SWIDTH 780 0
DWIDTH 13 0
BBX 13 14 0 -1
BITMAP
0010
0F98
3FF0
30E0
60F0
61B0
6330
6630
6C30
7830
3860
7FE0
CF80
4000
ENDCHAR
STARTCHAR 00D9
ENCODING 217
SWIDTH 720 0
DWIDTH 12 0
BBX 10 15 1 0
BITMAP
1800
0C00
0000
C0C0
C0C0
C0C0
C0C0
C0C0
C0C0
C0C0
C0C0
C0C0
E1C0
7F80
3F00
ENDCHAR
STARTCHAR 00DA
ENCODING 218
SWIDTH 720 0
DWIDTH 12 0
BBX 10 15 1 0
BITMAP
0600
0C00
0000
C0C0
C0C0
C0C0
C0C0
C0C0
C0C0
C0C0
C0C0
C0C0
E1C0
7F80
3F00
ENDCHAR
STARTCHAR 00DB
ENCODING 219
SWIDTH 720 0
DWIDTH 12 0
BBX 10 15 1 0
BITMAP
0E00
1B00
0000
C0C0
C0C0
C0C0
C0C0
C0C0
C0C0
C0C0
C0C0
C0C0
E1C0
7F80
3F00
ENDCHAR
STARTCHAR 00DC
ENCODING 220
SWIDTH 720 0
DWIDTH 12 0
BBX 10 15 1 0
BITMAP
3300
3300
0000
C0C0
C0C0
C0C0
C0C0
C0C0
C0C0
C0C0
C0C0
C0C0
E1C0
7F80
3F00
ENDCHAR
STARTCHAR 00DD
ENCODING 221
SWIDTH 600 0
DWIDTH 10 0
BBX 10 15 0 0
BITMAP
0600
0C00
0000
C0C0
E1C0
6180
3300
3700
1E00
0C00
0C00
0C00
0C00
0C00
0C00
ENDCHAR
STARTCHAR 00DE
ENCODING 222
SWIDTH 660 0
DWIDTH 11 0
BBX 9 12 1 0
BITMAP
C000
C000
FE00
FF00
C380
C180
C180
C380
FF00
FE00
C000
C000
ENDCHAR
STARTCHAR 00DF
ENCODING 223
SWIDTH 600 0
DWIDTH 10 0
BBX 8 12 1 0
BITMAP
7C
FE
C6
C6
CC
CC
CE
C6
C3
CB
DF
CE
ENDCHAR
STARTCHAR 00E0
ENCODING 224
SWIDTH 540 0
DWIDTH 9 0
BBX 8 12 1 0
BITMAP
30
18
00
7C
FE
C6
1E
7E
E6
C6
FE
7B
ENDCHAR
STARTCHAR 00E1
ENCODING 225
SWIDTH 540 0
DWIDTH 9 0
BBX 8 12 1 0
BITMAP
0C
18
00
7C
FE
C6
1E
7E
E6
C6
FE
7B
ENDCHAR
STARTCHAR 00E2
ENCODING 226
SWIDTH 540 0
DWIDTH 9 0
BBX 8 12 1 0
BITMAP
38
6C
00
7C
FE
C6
1E
7E
E6
C6
FE
7B
ENDCHAR
STARTCHAR 00E3
ENCODING 227
SWIDTH 540 0
DWIDTH 9 0
BBX 8 12 1 0
BITMAP
72
4E
00
7C
FE
C6
1E
7E
E6
C6
FE
7B
ENDCHAR
STARTCHAR 00E4
ENCODING 228
SWIDTH 540 0
DWIDTH 9 0
BBX 8 12 1 0
BITMAP
66
66
00
7C
FE
C6
1E
7E
E6
C6
FE
7B
ENDCHAR
STARTCHAR 00E5
ENCODING 229
SWIDTH 540 0
DWIDTH 9 0
BBX 8 14 1 0
BITMAP
18
24
24
18
00
7C
FE
C6
1E
7E
E6
C6
FE
7B
ENDCHAR
STARTCHAR 00E6
ENCODING 230
SWIDTH 900 0
DWIDTH 15 0
BBX 13 9 1 0
BITMAP
3DE0
7FF0
C618
1FF8
7FF8
E600
C718
FFF0
79E0
ENDCHAR
STARTCHAR 00E7
ENCODING 231
SWIDTH 540 0
DWIDTH 9 0
BBX 7 12 1 -3
BITMAP
3C
7E
E6
C0
C0
C0
E6
7E
3C
38
18
70
ENDCHAR
STARTCHAR 00E8
ENCODING 232
SWIDTH 540 0
DWIDTH 9 0
BBX 7 12 1 0
BITMAP
30
18
00
38
7C
C6
FE
FE
C0
E6
7C
38
ENDCHAR
STARTCHAR 00E9
ENCODING 233
SWIDTH 540 0
DWIDTH 9 0
BBX 7 12 1 0
BITMAP
18
30
00
38
7C
C6
FE
FE
C0
E6
7C
38
ENDCHAR
STARTCHAR 00EA
ENCODING 234
SWIDTH 540 0
DWIDTH 9 0
BBX 7 12 1 0
BITMAP
38
6C
00
38
7C
C6
FE
FE
C0
E6
7C
38
ENDCHAR
STARTCHAR 00EB
ENCODING 235
SWIDTH 540 0
DWIDTH 9 0
BBX 7 12 1 0
BITMAP
66
66
00
38
7C
C6
FE
FE
C0
E6
7C
38
ENDCHAR
STARTCHAR 00EC
ENCODING 236
SWIDTH 240 0
DWIDTH 4 0
BBX 3 12 0 0
BITMAP
C0
60
00
60
60
60
60
60
60
60
60
60
ENDCHAR
STARTCHAR 00ED
ENCODING 237
SWIDTH 240 0
DWIDTH 4 0
BBX 3 12 1 0
BITMAP
60
C0
00
C0
C0
C0
C0
C0
C0
C0
C0
C0
ENDCHAR
STARTCHAR 00EE
ENCODING 238
SWIDTH 240 0
DWIDTH 4 0
BBX 5 12 0 0
BITMAP
70
D8
00
60
60
60
60
60
60
60
60
60
ENDCHAR
STARTCHAR 00EF
ENCODING 239
SWIDTH 240 0
DWIDTH 4 0
BBX 6 12 -1 0
BITMAP
CC
CC
00
30
30
30
30
30
30
30
30
30
ENDCHAR
STARTCHAR 00F0
ENCODING 240
SWIDTH 600 0
DWIDTH 10 0
BBX 8 12 1 0
BITMAP
1A
0C
16
3A
7F
E7
C3
C3
C3
E7
7E
3C
ENDCHAR
STARTCHAR 00F1
ENCODING 241
SWIDTH 600 0
DWIDTH 10 0
BBX 8 12 1 0
BITMAP
72
4E
00
DE
FF
E3
C3
C3
C3
C3
C3
C3
ENDCHAR
STARTCHAR 00F2
ENCODING 242
SWIDTH 600 0
DWIDTH 10 0
BBX 8 12 1 0
BITMAP
18
0C
00
3C
7E
E7
C3
C3
C3
E7
7E
3C
ENDCHAR
STARTCHAR 00F3
ENCODING 243
SWIDTH 600 0
DWIDTH 10 0
BBX 8 12 1 0
BITMAP
0C
18
00
3C
7E
E7
C3
C3
C3
E7
7E
3C
ENDCHAR
STARTCHAR 00F4
ENCODING 244
SWIDTH 600 0
DWIDTH 10 0
BBX 8 12 1 0
BITMAP
1C
36
00
3C
7E
E7
C3
C3
C3
E7
7E
3C
ENDCHAR
STARTCHAR 00F5
ENCODING 245
SWIDTH 600 0
DWIDTH 10 0
BBX 8 12 1 0
BITMAP
72
4E
00
3C
7E
E7
C3
C3
C3
E7
7E
3C
ENDCHAR
STARTCHAR 00F6
ENCODING 246
SWIDTH 600 0
DWIDTH 10 0
BBX 8 12 1 0
BITMAP
66
66
00
3C
7E
E7
C3
C3
C3
E7
7E
3C
ENDCHAR
STARTCHAR 00F7
ENCODING 247
SWIDTH 540 0
DWIDTH 9 0
BBX 8 8 0 2
BITMAP
18
18
00
FF
FF
00
18
18
ENDCHAR
STARTCHAR 00F8
ENCODING 248
SWIDTH 600 0
DWIDTH 10 0
BBX 8 11 1 -1
BITMAP
02
3B
7E
E7
CF
DB
F3
E7
7E
DC
40
ENDCHAR
STARTCHAR 00F9
ENCODING 249
SWIDTH 600 0
DWIDTH 10 0
BBX 8 12 1 0
BITMAP
30
18
00
C3
C3
C3
C3
C3
C3
C7
FF
7B
ENDCHAR
STARTCHAR 00FA
ENCODING 250
SWIDTH 600 0
DWIDTH 10 0
BBX 8 12 1 0
BITMAP
0C
18
00
C3
C3
C3
C3
C3
C3
C7
FF
7B
ENDCHAR
STARTCHAR 00FB
ENCODING 251
SWIDTH 600 0
DWIDTH 10 0
BBX 8 12 1 0
BITMAP
1C
36
00
C3
C3
C3
C3
C3
C3
C7
FF
7B
ENDCHAR
STARTCHAR 00FC
ENCODING 252
SWIDTH 600 0
DWIDTH 10 0
BBX 8 12 1 0
BITMAP
66
66
00
C3
C3
C3
C3
C3
C3
C7
FF
7B
ENDCHAR
STARTCHAR 00FD
ENCODING 253
SWIDTH 540 0
DWIDTH 9 0
BBX 9 15 0 -3
BITMAP
0600
0C00
0000
C180
C180
6300
6300
3600
3600
3E00
1C00
1C00
1800
7800
7000
ENDCHAR
STARTCHAR 00FE
ENCODING 254
SWIDTH 600 0
DWIDTH 10 0
BBX 8 15 1 -3
BITMAP
C0
C0
C0
DC
FE
E7
C3
C3
C3
E7
FE
DC
C0
C0
C0
ENDCHAR
STARTCHAR 00FF
ENCODING 255
SWIDTH 540 0
DWIDTH 9 0
BBX 9 15 0 -3
BITMAP
3300
3300
0000
C180
C180
6300
6300
3600
3600
3E00
1C00
1C00
1800
7800
7000
ENDCHAR
STARTCHAR 0100
ENCODING 256
SWIDTH 660 0
DWIDTH 11 0
BBX 11 15 0 0
BITMAP
1F80
1F80
0000
0E00
0E00
1B00
1B00
1B00
3180
3180
3F80
7FC0
60C0
60C0
C060
ENDCHAR
STARTCHAR 0101
ENCODING 257
SWIDTH 540 0
DWIDTH 9 0
BBX 8 12 1 0
BITMAP
7E
7E
00
7C
FE
C6
1E
7E
E6
C6
FE
7B
ENDCHAR
STARTCHAR 0102
ENCODING 258
SWIDTH 660 0
DWIDTH 11 0
BBX 11 15 0 0
BITMAP
1100
0E00
0000
0E00
0E00
1B00
1B00
1B00
3180
3180
3F80
7FC0
60C0
60C0
C060
ENDCHAR
STARTCHAR 0103
ENCODING 259
SWIDTH 540 0
DWIDTH 9 0
BBX 8 12 1 0
BITMAP
44
38
00
7C
FE
C6
1E
7E
E6
C6
FE
7B
ENDCHAR
STARTCHAR 0104
ENCODING 260
SWIDTH 660 0
DWIDTH 11 0
BBX 11 15 0 -3
BITMAP
0E00
0E00
1B00
1B00
1B00
3180
3180
3F80
7FC0
60C0
60C0
C060
0040
00C0
00E0
ENDCHAR
STARTCHAR 0105
ENCODING 261
SWIDTH 540 0
DWIDTH 9 0
BBX 8 12 1 -3
BITMAP
7C
FE
C6
1E
7E
E6
C6
FE
7B
02
06
07
ENDCHAR
STARTCHAR 0106
ENCODING 262
SWIDTH 720 0
DWIDTH 12 0
BBX 10 15 1 0
BITMAP
0600
0C00
0000
1F00
7F80
61C0
E080
C000
C000
C000
C000
E080
61C0
7F80
1F00
ENDCHAR
STARTCHAR 0107
ENCODING 263
SWIDTH 540 0
DWIDTH 9 0
BBX 7 12 1 0
BITMAP
0C
18
00
3C
7E
E6
C0
C0
C0
E6
7E
3C
ENDCHAR
STARTCHAR 0108
ENCODING 264
SWIDTH 720 0
DWIDTH 12 0
BBX 10 15 1 0
BITMAP
0E00
1B00
0000
1F00
7F80
61C0
E080
C000
C000
C000
C000
E080
61C0
7F80
1F00
ENDCHAR
STARTCHAR 0109
ENCODING 265
SWIDTH 540 0
DWIDTH 9 0
BBX 7 12 1 0
BITMAP
38
6C
00
3C
7E
E6
C0
C0
C0
E6
7E
3C
ENDCHAR
STARTCHAR 010A
ENCODING 266
SWIDTH 720 0
DWIDTH 12 0
BBX 10 15 1 0
BITMAP
0C00
0C00
0000
1F00
7F80
61C0
E080
C000
C000
C000
C000
E080
61C0
7F80
1F00
ENDCHAR
STARTCHAR 010B
ENCODING 267
SWIDTH 540 0
DWIDTH 9 0
BBX 7 12 1 0
BITMAP
18
18
00
3C
7E
E6
C0
C0
C0
E6
7E
3C
ENDCHAR
STARTCHAR 010C
ENCODING 268
SWIDTH 720 0
DWIDTH 12 0
BBX 10 15 1 0
BITMAP
1B00
0E00
0000
1F00
7F80
61C0
E080
C000
C000
C000
C000
E080
61C0
7F80
1F00
ENDCHAR
STARTCHAR 010D
ENCODING 269
SWIDTH 540 0
DWIDTH 9 0
BBX 7 12 1 0
BITMAP
6C
38
00
3C
7E
E6
C0
C0
C0
E6
7E
3C
ENDCHAR
STARTCHAR 010E
ENCODING 270
SWIDTH 720 0
DWIDTH 12 0
BBX 10 15 1 0
BITMAP
3600
1C00
0000
FE00
FF80
C180
C0C0
C0C0
C0C0
C0C0
C0C0
C0C0
C180
FF80
FE00
ENDCHAR
STARTCHAR 010F
ENCODING 271
SWIDTH 720 0
DWIDTH 12 0
BBX 11 12 1 0
BITMAP
0360
0360
0320
3B40
7F00
E700
C300
C300
C300
E700
7F00
3B00
ENDCHAR
STARTCHAR 0110
ENCODING 272
SWIDTH 720 0
DWIDTH 12 0
BBX 11 12 0 0
BITMAP
7F00
7FC0
60C0
6060
6060
FC60
6060
6060
6060
60C0
7FC0
7F00
ENDCHAR
STARTCHAR 0111
ENCODING 273
SWIDTH 600 0
DWIDTH 10 0
BBX 9 12 1 0
BITMAP
0300
1F80
0300
3B00
7F00
E700
C300
C300
C300
E700
7F00
3B00
ENDCHAR
STARTCHAR 0112
ENCODING 274
SWIDTH 660 0
DWIDTH 11 0
BBX 9 15 1 0
BITMAP
3F00
3F00
0000
FF80
FF80
C000
C000
C000
FF80
FF80
C000
C000
C000
FF80
FF80
ENDCHAR
STARTCHAR 0113
ENCODING 275
SWIDTH 540 0
DWIDTH 9 0
BBX 7 12 1 0
BITMAP
7E
7E
00
38
7C
C6
FE
FE
C0
E6
7C
38
ENDCHAR
STARTCHAR 0114
ENCODING 276
SWIDTH 660 0
DWIDTH 11 0
BBX 9 15 1 0
BITMAP
2200
1C00
0000
FF80
FF80
C000
C000
C000
FF80
FF80
C000
C000
C000
FF80
FF80
ENDCHAR
STARTCHAR 0115
ENCODING 277
SWIDTH 540 0
DWIDTH 9 0
BBX 7 12 1 0
BITMAP
44
38
00
38
7C
C6
FE
FE
C0
E6
7C
38
ENDCHAR
STARTCHAR 0116
ENCODING 278
SWIDTH 660 0
DWIDTH 11 0
BBX 9 15 1 0
BITMAP
0C00
0C00
0000
FF80
FF80
C000
C000
C000
FF80
FF80
C000
C000
C000
FF80
FF80
ENDCHAR
STARTCHAR 0117
ENCODING 279
SWIDTH 540 0
DWIDTH 9 0
BBX 7 12 1 0
BITMAP
18
18
00
38
7C
C6
FE
FE
C0
E6
7C
38
ENDCHAR
STARTCHAR 0118
ENCODING 280
SWIDTH 660 0
DWIDTH 11 0
BBX 9 15 1 -3
BITMAP
FF80
FF80
C000
C000
C000
FF80
FF80
C000
C000
C000
FF80
FF80
0100
0300
0380
ENDCHAR
STARTCHAR 0119
ENCODING 281
SWIDTH 540 0
DWIDTH 9 0
BBX 7 12 1 -3
BITMAP
38
7C
C6
FE
FE
C0
E6
7C
38
08
18
1C
ENDCHAR
STARTCHAR 011A
ENCODING 282
SWIDTH 660 0
DWIDTH 11 0
BBX 9 15 1 0
BITMAP
3600
1C00
0000
FF80
FF80
C000
C000
C000
FF80
FF80
C000
C000
C000
FF80
FF80
ENDCHAR
STARTCHAR 011B
ENCODING 283
SWIDTH 540 0
DWIDTH 9 0
BBX 7 12 1 0
BITMAP
6C
38
00
38
7C
C6
FE
FE
C0
E6
7C
38
ENDCHAR
STARTCHAR 011C
ENCODING 284
SWIDTH 780 0
DWIDTH 13 0
BBX 11 15 1 0
BITMAP
0E00
1B00
0000
1F80
7FC0
60E0
E040
C000
C000
C3E0
C3E0
E060
60E0
7FE0
1F80
ENDCHAR
STARTCHAR 011D
ENCODING 285
SWIDTH 600 0
DWIDTH 10 0
BBX 8 15 1 -3
BITMAP
1C
36
00
3B
7F
E7
C3
C3
C3
E7
7F
3B
C3
FF
7E
ENDCHAR
STARTCHAR 011E
ENCODING 286
SWIDTH 780 0
DWIDTH 13 0
BBX 11 15 1 0
BITMAP
1100
0E00
0000
1F80
7FC0
60E0
E040
C000
C000
C3E0
C3E0
E060
60E0
7FE0
1F80
ENDCHAR
STARTCHAR 011F
ENCODING 287
SWIDTH 600 0
DWIDTH 10 0
BBX 8 15 1 -3
BITMAP
22
1C
00
3B
7F
E7
C3
C3
C3
E7
7F
3B
C3
FF
7E
ENDCHAR
STARTCHAR 0120
ENCODING 288
SWIDTH 780 0
DWIDTH 13 0
BBX 11 15 1 0
BITMAP
0600
0600
0000
1F80
7FC0
60E0
E040
C000
C000
C3E0
C3E0
E060
60E0
7FE0
1F80
ENDCHAR
STARTCHAR 0121
ENCODING 289
SWIDTH 600 0
DWIDTH 10 0
BBX 8 15 1 -3
BITMAP
18
18
00
3B
7F
E7
C3
C3
C3
E7
7F
3B
C3
FF
7E
ENDCHAR
STARTCHAR 0122
ENCODING 290
SWIDTH 780 0
DWIDTH 13 0
BBX 11 17 1 -5
BITMAP
1F80
7FC0
60E0
E040
C000
C000
C3E0
C3E0
E060
60E0
7FE0
1F80
0000
0600
0600
0200
0400
ENDCHAR
STARTCHAR 0123
ENCODING 291
SWIDTH 600 0
DWIDTH 10 0
BBX 8 17 1 -3
BITMAP
08
10
18
18
00
3B
7F
E7
C3
C3
C3
E7
7F
3B
C3
FF
7C
ENDCHAR
STARTCHAR 0124
ENCODING 292
SWIDTH 720 0
DWIDTH 12 0
BBX 10 15 1 0
BITMAP
0E00
1B00
0000
C0C0
C0C0
C0C0
C0C0
C0C0
FFC0
FFC0
C0C0
C0C0
C0C0
C0C0
C0C0
ENDCHAR
STARTCHAR 0125
ENCODING 293
SWIDTH 600 0
DWIDTH 10 0
BBX 8 15 1 0
BITMAP
1C
36
00
C0
C0
C0
DE
FF
E3
C3
C3
C3
C3
C3
C3
ENDCHAR
STARTCHAR 0126
ENCODING 294
SWIDTH 720 0
DWIDTH 12 0
BBX 12 12 0 0
BITMAP
6060
FFF0
FFF0
6060
6060
7FE0
7FE0
6060
6060
6060
6060
6060
ENDCHAR
STARTCHAR 0127
ENCODING 295
SWIDTH 600 0
DWIDTH 10 0
BBX 9 12 0 0
BITMAP
6000
FC00
6000
6F00
7F80
7180
6180
6180
6180
6180
6180
6180
ENDCHAR
STARTCHAR 0128
ENCODING 296
SWIDTH 240 0
DWIDTH 4 0
BBX 6 15 -1 0
BITMAP
E4
9C
00
30
30
30
30
30
30
30
30
30
30
30
30
ENDCHAR
STARTCHAR 0129
ENCODING 297
SWIDTH 240 0
DWIDTH 4 0
BBX 6 12 -1 0
BITMAP
E4
9C
00
30
30
30
30
30
30
30
30
30
ENDCHAR
STARTCHAR 012A
ENCODING 298
SWIDTH 240 0
DWIDTH 4 0
BBX 6 15 -1 0
BITMAP
FC
FC
00
30
30
30
30
30
30
30
30
30
30
30
30
ENDCHAR
STARTCHAR 012B
ENCODING 299
SWIDTH 240 0
DWIDTH 4 0
BBX 6 12 -1 0
BITMAP
FC
FC
00
30
30
30
30
30
30
30
30
30
ENDCHAR
STARTCHAR 012C
ENCODING 300
SWIDTH 240 0
DWIDTH 4 0
BBX 5 15 0 0
BITMAP
88
70
00
60
60
60
60
60
60
60
60
60
60
60
60
ENDCHAR
STARTCHAR 012D
ENCODING 301
SWIDTH 240 0
DWIDTH 4 0
BBX 5 12 0 0
BITMAP
88
70
00
60
60
60
60
60
60
60
60
60
ENDCHAR
STARTCHAR 012E
ENCODING 302
SWIDTH 240 0
DWIDTH 4 0
BBX 3 15 0 -3
BITMAP
60
60
60
60
60
60
60
60
60
60
60
60
40
C0
E0
ENDCHAR
STARTCHAR 012F
ENCODING 303
SWIDTH 240 0
DWIDTH 4 0
BBX 3 15 0 -3
BITMAP
60
60
00
60
60
60
60
60
60
60
60
60
40
C0
E0
ENDCHAR
STARTCHAR 0130
ENCODING 304
SWIDTH 240 0
DWIDTH 4 0
BBX 2 15 1 0
BITMAP
C0
C0
00
C0
C0
C0
C0
C0
C0
C0
C0
C0
C0
C0
C0
ENDCHAR
STARTCHAR 0131
ENCODING 305
SWIDTH 240 0
DWIDTH 4 0
BBX 2 9 1 0
BITMAP
C0
C0
C0
C0
C0
C0
C0
C0
C0
ENDCHAR
STARTCHAR 0132
ENCODING 306
SWIDTH 780 0
DWIDTH 13 0
BBX 11 12 1 0
BITMAP
C060
C060
C060
C060
C060
C060
C060
C060
D860
D8E0
CFC0
C780
ENDCHAR
STARTCHAR 0133
ENCODING 307
SWIDTH 540 0
DWIDTH 9 0
BBX 7 15 1 -3
BITMAP
C6
C6
00
C6
C6
C6
C6
C6
C6
C6
C6
C6
06
1E
1C
ENDCHAR
STARTCHAR 0134
ENCODING 308
SWIDTH 540 0
DWIDTH 9 0
BBX 9 15 0 0
BITMAP
0700
0D80
0000
0300
0300
0300
0300
0300
0300
0300
0300
C300
C700
7E00
3C00
ENDCHAR
STARTCHAR 0135
ENCODING 309
SWIDTH 240 0
DWIDTH 4 0
BBX 6 15 -1 -3
BITMAP
38
6C
00
30
30
30
30
30
30
30
30
30
30
F0
E0
ENDCHAR
STARTCHAR 0136
ENCODING 310
SWIDTH 720 0
DWIDTH 12 0
BBX 10 17 1 -5
BITMAP
C1C0
C180
C300
C600
CC00
DE00
F700
E300
C380
C180
C1C0
C0C0
0000
0C00
0C00
0400
0800
ENDCHAR
STARTCHAR 0137
ENCODING 311
SWIDTH 540 0
DWIDTH 9 0
BBX 7 17 1 -5
BITMAP
C0
C0
C0
C6
CC
D8
F8
FC
EC
CC
C6
C6
00
18
18
08
10
ENDCHAR
STARTCHAR 0138
ENCODING 312
SWIDTH 540 0
DWIDTH 9 0
BBX 8 9 1 0
BITMAP
C7
CE
DC
F8
F8
EC
CE
C6
C7
ENDCHAR
STARTCHAR 0139
ENCODING 313
SWIDTH 600 0
DWIDTH 10 0
BBX 8 15 1 0
BITMAP
18
30
00
C0
C0
C0
C0
C0
C0
C0
C0
C0
C0
FF
FF
ENDCHAR
STARTCHAR 013A
ENCODING 314
SWIDTH 240 0
DWIDTH 4 0
BBX 3 15 1 0
BITMAP
60
C0
00
C0
C0
C0
C0
C0
C0
C0
C0
C0
C0
C0
C0
ENDCHAR
STARTCHAR 013B
ENCODING 315
SWIDTH 600 0
DWIDTH 10 0
BBX 8 17 1 -5
BITMAP
C0
C0
C0
C0
C0
C0
C0
C0
C0
C0
FF
FF
00
18
18
08
10
ENDCHAR
STARTCHAR 013C
ENCODING 316
SWIDTH 240 0
DWIDTH 4 0
BBX 2 17 1 -5
BITMAP
C0
C0
C0
C0
C0
C0
C0
C0
C0
C0
C0
C0
00
C0
C0
40
80
ENDCHAR
STARTCHAR 013D
ENCODING 317
SWIDTH 600 0
DWIDTH 10 0
BBX 8 12 1 0
BITMAP
C3
C3
C1
C1
C2
C0
C0
C0
C0
C0
FF
FF
ENDCHAR
STARTCHAR 013E
ENCODING 318
SWIDTH 420 0
DWIDTH 7 0
BBX 6 12 1 0
BITMAP
CC
CC
C4
C8
C0
C0
C0
C0
C0
C0
C0
C0
ENDCHAR
STARTCHAR 013F
ENCODING 319
SWIDTH 600 0
DWIDTH 10 0
BBX 8 12 1 0
BITMAP
C0
C0
C0
C0
C6
C6
C0
C0
C0
C0
FF
FF
ENDCHAR
STARTCHAR 0140
ENCODING 320
SWIDTH 420 0
DWIDTH 7 0
BBX 5 12 1 0
BITMAP
C0
C0
C0
C0
C0
D8
D8
C0
C0
C0
C0
C0
ENDCHAR
STARTCHAR 0141
ENCODING 321
SWIDTH 600 0
DWIDTH 10 0
BBX 9 12 0 0
BITMAP
6000
6000
6400
6800
7000
6000
6000
E000
6000
6000
7F80
7F80
ENDCHAR
STARTCHAR 0142
ENCODING 322
SWIDTH 240 0
DWIDTH 4 0
BBX 4 12 0 0
BITMAP
60
60
60
60
70
60
60
E0
60
60
60
60
ENDCHAR
STARTCHAR 0143
ENCODING 323
SWIDTH 720 0
DWIDTH 12 0
BBX 10 15 1 0
BITMAP
0600
0C00
0000
C0C0
E0C0
F0C0
F0C0
D8C0
CCC0
CCC0
C6C0
C3C0
C3C0
C1C0
C0C0
ENDCHAR
STARTCHAR 0144
ENCODING 324
SWIDTH 600 0
DWIDTH 10 0
BBX 8 12 1 0
BITMAP
0C
18
00
DE
FF
E3
C3
C3
C3
C3
C3
C3
ENDCHAR
STARTCHAR 0145
ENCODING 325
SWIDTH 720 0
DWIDTH 12 0
BBX 10 17 1 -5
BITMAP
C0C0
E0C0
F0C0
F0C0
D8C0
CCC0
CCC0
C6C0
C3C0
C3C0
C1C0
C0C0
0000
0C00
0C00
0400
0800
ENDCHAR
STARTCHAR 0146
ENCODING 326
SWIDTH 600 0
DWIDTH 10 0
BBX 8 14 1 -5
BITMAP
DE
FF
E3
C3
C3
C3
C3
C3
C3
00
18
18
08
10
ENDCHAR
STARTCHAR 0147
ENCODING 327
SWIDTH 720 0
DWIDTH 12 0
BBX 10 15 1 0
BITMAP
1B00
0E00
0000
C0C0
E0C0
F0C0
F0C0
D8C0
CCC0
CCC0
C6C0
C3C0
C3C0
C1C0
C0C0
ENDCHAR
STARTCHAR 0148
ENCODING 328
SWIDTH 600 0
DWIDTH 10 0
BBX 8 12 1 0
BITMAP
36
1C
00
DE
FF
E3
C3
C3
C3
C3
C3
C3
ENDCHAR
STARTCHAR 0149
ENCODING 329
SWIDTH 720 0
DWIDTH 12 0
BBX 11 12 0 0
BITMAP
C000
C000
4000
5BC0
9FE0
1C60
1860
1860
1860
1860
1860
1860
ENDCHAR
STARTCHAR 014A
ENCODING 330
SWIDTH 720 0
DWIDTH 12 0
BBX 10 12 1 0
BITMAP
CF00
FF80
E1C0
C0C0
C0C0
C0C0
C0C0
C0C0
C0C0
C1C0
CF80
CF00
ENDCHAR
STARTCHAR 014B
ENCODING 331
SWIDTH 600 0
DWIDTH 10 0
BBX 8 13 1 -4
BITMAP
DE
FF
E3
C3
C3
C3
C3
C3
C3
03
03
0F
0E
ENDCHAR
STARTCHAR 014C
ENCODING 332
SWIDTH 780 0
DWIDTH 13 0
BBX 11 15 1 0
BITMAP
1F80
1F80
0000
1F00
7FC0
60C0
E060
C060
C060
C060
C060
E060
60C0
7FC0
1F00
ENDCHAR
STARTCHAR 014D
ENCODING 333
SWIDTH 600 0
DWIDTH 10 0
BBX 8 12 1 0
BITMAP
7E
7E
00
3C
7E
E7
C3
C3
C3
E7
7E
3C
ENDCHAR
STARTCHAR 014E
ENCODING 334
SWIDTH 780 0
DWIDTH 13 0
BBX 11 15 1 0
BITMAP
1100
0E00
0000
1F00
7FC0
60C0
E060
C060
C060
C060
C060
E060
60C0
7FC0
1F00
ENDCHAR
STARTCHAR 014F
ENCODING 335
SWIDTH 600 0
DWIDTH 10 0
BBX 8 12 1 0
BITMAP
22
1C
00
3C
7E
E7
C3
C3
C3
E7
7E
3C
ENDCHAR
STARTCHAR 0150
ENCODING 336
SWIDTH 780 0
DWIDTH 13 0
BBX 11 15 1 0
BITMAP
0D80
1B00
0000
1F00
7FC0
60C0
E060
C060
C060
C060
C060
E060
60C0
7FC0
1F00
ENDCHAR
STARTCHAR 0151
ENCODING 337
SWIDTH 600 0
DWIDTH 10 0
BBX 8 12 1 0
BITMAP
36
6C
00
3C
7E
E7
C3
C3
C3
E7
7E
3C
ENDCHAR
STARTCHAR 0152
ENCODING 338
SWIDTH 1020 0
DWIDTH 17 0
BBX 16 12 0 0
BITMAP
3DFF
7FFF
E380
C180
C180
C1FF
C1FF
C180
C180
E380
7FFF
3DFF
ENDCHAR
STARTCHAR 0153
ENCODING 339
SWIDTH 900 0
DWIDTH 15 0
BBX 13 9 1 0
BITMAP
3CE0
7FF0
E718
C3F8
C3F8
C300
E798
7FF0
3CE0
ENDCHAR
STARTCHAR 0154
ENCODING 340
SWIDTH 720 0
DWIDTH 12 0
BBX 11 15 1 0
BITMAP
0600
0C00
0000
FF00
FF80
C1C0
C0C0
C1C0
FF80
FE00
C700
C380
C380
C1C0
C0E0
ENDCHAR
STARTCHAR 0155
ENCODING 341
SWIDTH 420 0
DWIDTH 7 0
BBX 6 12 1 0
BITMAP
18
30
00
DC
FC
E0
C0
C0
C0
C0
C0
C0
ENDCHAR
STARTCHAR 0156
ENCODING 342
SWIDTH 720 0
DWIDTH 12 0
BBX 11 17 1 -5
BITMAP
FF00
FF80
C1C0
C0C0
C1C0
FF80
FE00
C700
C380
C380
C1C0
C0E0
0000
0C00
0C00
0400
0800
ENDCHAR
STARTCHAR 0157
ENCODING 343
SWIDTH 420 0
DWIDTH 7 0
BBX 6 14 1 -5
BITMAP
DC
FC
E0
C0
C0
C0
C0
C0
C0
00
C0
C0
40
80
ENDCHAR
STARTCHAR 0158
ENCODING 344
SWIDTH 720 0
DWIDTH 12 0
BBX 11 15 1 0
BITMAP
3600
1C00
0000
FF00
FF80
C1C0
C0C0
C1C0
FF80
FE00
C700
C380
C380
C1C0
C0E0
ENDCHAR
STARTCHAR 0159
ENCODING 345
SWIDTH 420 0
DWIDTH 7 0
BBX 6 12 1 0
BITMAP
D8
70
00
DC
FC
E0
C0
C0
C0
C0
C0
C0
ENDCHAR
STARTCHAR 015A
ENCODING 346
SWIDTH 660 0
DWIDTH 11 0
BBX 9 15 1 0
BITMAP
0C00
1800
0000
3E00
7F00
E380
C180
F000
7E00
1F00
0380
C180
E380
7F00
3E00
ENDCHAR
STARTCHAR 015B
ENCODING 347
SWIDTH 540 0
DWIDTH 9 0
BBX 7 12 1 0
BITMAP
0C
18
00
7C
FE
C6
F0
7C
0E
C6
FE
7C
ENDCHAR
STARTCHAR 015C
ENCODING 348
SWIDTH 660 0
DWIDTH 11 0
BBX 9 15 1 0
BITMAP
1C00
3600
0000
3E00
7F00
E380
C180
F000
7E00
1F00
0380
C180
E380
7F00
3E00
ENDCHAR
STARTCHAR 015D
ENCODING 349
SWIDTH 540 0
DWIDTH 9 0
BBX 7 12 1 0
BITMAP
38
6C
00
7C
FE
C6
F0
7C
0E
C6
FE
7C
ENDCHAR
STARTCHAR 015E
ENCODING 350
SWIDTH 660 0
DWIDTH 11 0
BBX 9 15 1 -3
BITMAP
3E00
7F00
E380
C180
F000
7E00
1F00
0380
C180
E380
7F00
3E00
1C00
0C00
3800
ENDCHAR
STARTCHAR 015F
ENCODING 351
SWIDTH 540 0
DWIDTH 9 0
BBX 7 12 1 -3
BITMAP
7C
FE
C6
F0
7C
0E
C6
FE
7C
38
18
70
ENDCHAR
STARTCHAR 0160
ENCODING 352
SWIDTH 660 0
DWIDTH 11 0
BBX 9 15 1 0
BITMAP
3600
1C00
0000
3E00
7F00
E380
C180
F000
7E00
1F00
0380
C180
E380
7F00
3E00
ENDCHAR
STARTCHAR 0161
ENCODING 353
SWIDTH 540 0
DWIDTH 9 0
BBX 7 12 1 0
BITMAP
6C
38
00
7C
FE
C6
F0
7C
0E
C6
FE
7C
ENDCHAR
STARTCHAR 0162
ENCODING 354
SWIDTH 600 0
DWIDTH 10 0
BBX 10 15 0 -3
BITMAP
FFC0
FFC0
0C00
0C00
0C00
0C00
0C00
0C00
0C00
0C00
0C00
0C00
0E00
0600
1C00
ENDCHAR
STARTCHAR 0163
ENCODING 355
SWIDTH 360 0
DWIDTH 6 0
BBX 5 15 0 -3
BITMAP
20
60
60
F8
F8
60
60
60
60
60
78
38
38
18
70
ENDCHAR
STARTCHAR 0164
ENCODING 356
SWIDTH 600 0
DWIDTH 10 0
BBX 10 15 0 0
BITMAP
1B00
0E00
0000
FFC0
FFC0
0C00
0C00
0C00
0C00
0C00
0C00
0C00
0C00
0C00
0C00
ENDCHAR
STARTCHAR 0165
ENCODING 357
SWIDTH 480 0
DWIDTH 8 0
BBX 8 12 0 0
BITMAP
23
63
61
FA
F8
60
60
60
60
60
78
38
ENDCHAR
STARTCHAR 0166
ENCODING 358
SWIDTH 600 0
DWIDTH 10 0
BBX 10 12 0 0
BITMAP
FFC0
FFC0
0C00
0C00
0C00
7F80
7F80
0C00
0C00
0C00
0C00
0C00
ENDCHAR
STARTCHAR 0167
ENCODING 359
SWIDTH 360 0
DWIDTH 6 0
BBX 5 12 0 0
BITMAP
20
60
60
F8
F8
60
F8
F8
60
60
78
38
ENDCHAR
STARTCHAR 0168
ENCODING 360
SWIDTH 720 0
DWIDTH 12 0
BBX 10 15 1 0
BITMAP
3900
2700
0000
C0C0
C0C0
C0C0
C0C0
C0C0
C0C0
C0C0
C0C0
C0C0
E1C0
7F80
3F00
ENDCHAR
STARTCHAR 0169
ENCODING 361
SWIDTH 600 0
DWIDTH 10 0
BBX 8 12 1 0
BITMAP
72
4E
00
C3
C3
C3
C3
C3
C3
C7
FF
7B
ENDCHAR
STARTCHAR 016A
ENCODING 362
SWIDTH 720 0
DWIDTH 12 0
BBX 10 15 1 0
BITMAP
3F00
3F00
0000
C0C0
C0C0
C0C0
C0C0
C0C0
C0C0
C0C0
C0C0
C0C0
E1C0
7F80
3F00
ENDCHAR
STARTCHAR 016B
ENCODING 363
SWIDTH 600 0
DWIDTH 10 0
BBX 8 12 1 0
BITMAP
7E
7E
00
C3
C3
C3
C3
C3
C3
C7
FF
7B
ENDCHAR
STARTCHAR 016C
ENCODING 364
SWIDTH 720 0
DWIDTH 12 0
BBX 10 15 1 0
BITMAP
1100
0E00
0000
C0C0
C0C0
C0C0
C0C0
C0C0
C0C0
C0C0
C0C0
C0C0
E1C0
7F80
3F00
ENDCHAR
STARTCHAR 016D
ENCODING 365
SWIDTH 600 0
DWIDTH 10 0
BBX 8 12 1 0
BITMAP
22
1C
00
C3
C3
C3
C3
C3
C3
C7
FF
7B
ENDCHAR
STARTCHAR 016E
ENCODING 366
SWIDTH 720 0
DWIDTH 12 0
BBX 10 15 1 0
BITMAP
0C00
1200
1200
CCC0
C0C0
C0C0
C0C0
C0C0
C0C0
C0C0
C0C0
C0C0
E1C0
7F80
3F00
ENDCHAR
STARTCHAR 016F
ENCODING 367
SWIDTH 600 0
DWIDTH 10 0
BBX 8 14 1 0
BITMAP
18
24
24
18
00
C3
C3
C3
C3
C3
C3
C7
FF
7B
ENDCHAR
STARTCHAR 0170
ENCODING 368
SWIDTH 720 0
DWIDTH 12 0
BBX 10 15 1 0
BITMAP
1B00
3600
0000
C0C0
C0C0
C0C0
C0C0
C0C0
C0C0
C0C0
C0C0
C0C0
E1C0
7F80
3F00
ENDCHAR
STARTCHAR 0171
ENCODING 369
SWIDTH 600 0
DWIDTH 10 0
BBX 8 12 1 0
BITMAP
36
6C
00
C3
C3
C3
C3
C3
C3
C7
FF
7B
ENDCHAR
STARTCHAR 0172
ENCODING 370
SWIDTH 720 0
DWIDTH 12 0
BBX 10 15 1 -3
BITMAP
C0C0
C0C0
C0C0
C0C0
C0C0
C0C0
C0C0
C0C0
C0C0
E1C0
7F80
3F00
0400
0C00
0E00
ENDCHAR
STARTCHAR 0173
ENCODING 371
SWIDTH 600 0
DWIDTH 10 0
BBX 8 12 1 -3
BITMAP
C3
C3
C3
C3
C3
C3
C7
FF
7B
02
06
07
ENDCHAR
STARTCHAR 0174
ENCODING 372
SWIDTH 1020 0
DWIDTH 17 0
BBX 17 15 0 0
BITMAP
01C000
036000
000000
C1C180
E1C380
63E300
636300
636300
377600
363600
363600
3E3E00
1C1C00
1C1C00
1C1C00
ENDCHAR
STARTCHAR 0175
ENCODING 373
SWIDTH 780 0
DWIDTH 13 0
BBX 13 12 0 0
BITMAP
0700
0D80
0000
C718
C718
6730
6DB0
6DB0
6DB0
38E0
38E0
38E0
ENDCHAR
STARTCHAR 0176
ENCODING 374
SWIDTH 600 0
DWIDTH 10 0
BBX 10 15 0 0
BITMAP
0E00
1B00
0000
C0C0
E1C0
6180
3300
3700
1E00
0C00
0C00
0C00
0C00
0C00
0C00
ENDCHAR
STARTCHAR 0177
ENCODING 375
SWIDTH 540 0
DWIDTH 9 0
BBX 9 15 0 -3
BITMAP
1C00
3600
0000
C180
C180
6300
6300
3600
3600
3E00
1C00
1C00
1800
7800
7000
ENDCHAR
STARTCHAR 0178
ENCODING 376
SWIDTH 600 0
DWIDTH 10 0
BBX 10 15 0 0
BITMAP
3300
3300
0000
C0C0
E1C0
6180
3300
3700
1E00
0C00
0C00
0C00
0C00
0C00
0C00
ENDCHAR
STARTCHAR 0179
ENCODING 377
SWIDTH 540 0
DWIDTH 9 0
BBX 9 15 0 0
BITMAP
0600
0C00
0000
7F80
7F80
0300
0600
0E00
0C00
1800
3800
3000
6000
FF80
FF80
ENDCHAR
STARTCHAR 017A
ENCODING 378
SWIDTH 540 0
DWIDTH 9 0
BBX 7 12 1 0
BITMAP
0C
18
00
FE
FE
0C
1C
38
70
60
FE
FE
ENDCHAR
STARTCHAR 017B
ENCODING 379
SWIDTH 540 0
DWIDTH 9 0
BBX 9 15 0 0
BITMAP
0C00
0C00
0000
7F80
7F80
0300
0600
0E00
0C00
1800
3800
3000
6000
FF80
FF80
ENDCHAR
STARTCHAR 017C
ENCODING 380
SWIDTH 540 0
DWIDTH 9 0
BBX 7 12 1 0
BITMAP
18
18
00
FE
FE
0C
1C
38
70
60
FE
FE
ENDCHAR
STARTCHAR 017D
ENCODING 381
SWIDTH 540 0
DWIDTH 9 0
BBX 9 15 0 0
BITMAP
1B00
0E00
0000
7F80
7F80
0300
0600
0E00
0C00
1800
3800
3000
6000
FF80
FF80
ENDCHAR
STARTCHAR 017E
ENCODING 382
SWIDTH 540 0
DWIDTH 9 0
BBX 7 12 1 0
BITMAP
6C
38
00
FE
FE
0C
1C
38
70
60
FE
FE
ENDCHAR
STARTCHAR 017F
ENCODING 383
SWIDTH 240 0
DWIDTH 4 0
BBX 4 12 1 0
BITMAP
70
F0
C0
C0
C0
C0
C0
C0
C0
C0
C0
C0
ENDCHAR
STARTCHAR 0180
ENCODING 384
SWIDTH 600 0
DWIDTH 10 0
BBX 9 12 0 0
BITMAP
6000
F800
6000
6E00
7F00
7380
6180
6180
6180
7380
7F00
6E00
ENDCHAR
STARTCHAR 0181
ENCODING 385
SWIDTH 840 0
DWIDTH 14 0
BBX 13 12 0 0
BITMAP
7FE0
FFF0
D830
D830
1830
1FE0
1FF0
1818
1818
1818
1FF0
1FE0
ENDCHAR
STARTCHAR 0182
ENCODING 386
SWIDTH 720 0
DWIDTH 12 0
BBX 10 12 1 0
BITMAP
FF80
FF80
C000
C000
C000
FF00
FF80
C1C0
C0C0
C1C0
FF80
FF00
ENDCHAR
STARTCHAR 0183
ENCODING 387
SWIDTH 600 0
DWIDTH 10 0
BBX 8 12 1 0
BITMAP
FC
FC
C0
DC
FE
E7
C3
C3
C3
E7
FE
DC
ENDCHAR
STARTCHAR 0184
ENCODING 388
SWIDTH 720 0
DWIDTH 12 0
BBX 11 12 0 0
BITMAP
2000
6000
E000
6000
6000
7F80
7FC0
60E0
6060
60E0
7FC0
7F80
ENDCHAR
STARTCHAR 0185
ENCODING 389
SWIDTH 600 0
DWIDTH 10 0
BBX 9 12 0 0
BITMAP
2000
E000
6000
6E00
7F00
7380
6180
6180
6180
7380
7F00
6E00
ENDCHAR
STARTCHAR 0186
ENCODING 390
SWIDTH 720 0
DWIDTH 12 0
BBX 10 12 1 0
BITMAP
3E00
7F00
E180
C0C0
00C0
00C0
00C0
00C0
C0C0
E180
7F00
3E00
ENDCHAR
STARTCHAR 0187
ENCODING 391
SWIDTH 720 0
DWIDTH 12 0
BBX 12 14 1 0
BITMAP
0070
00F0
1FC0
3FC0
61C0
C0C0
C000
C000
C000
C000
C0C0
61C0
3F80
1F00
ENDCHAR
STARTCHAR 0188
ENCODING 392
SWIDTH 540 0
DWIDTH 9 0
BBX 9 11 1 0
BITMAP
0380
0780
3E00
7E00
E600
C000
C000
C000
E600
7E00
3C00
ENDCHAR
STARTCHAR 0189
ENCODING 393
SWIDTH 720 0
DWIDTH 12 0
BBX 11 12 0 0
BITMAP
7F00
7FC0
60C0
6060
6060
FC60
6060
6060
6060
60C0
7FC0
7F00
ENDCHAR
STARTCHAR 018A
ENCODING 394
SWIDTH 840 0
DWIDTH 14 0
BBX 13 12 0 0
BITMAP
7FC0
FFF0
D830
D818
1818
1818
1818
1818
1818
1830
1FF0
1FC0
ENDCHAR
STARTCHAR 018B
ENCODING 395
SWIDTH 720 0
DWIDTH 12 0
BBX 10 12 1 0
BITMAP
7FC0
7FC0
00C0
00C0
00C0
3FC0
7FC0
E0C0
C0C0
E0C0
7FC0
3FC0
ENDCHAR
STARTCHAR 018C
ENCODING 396
SWIDTH 600 0
DWIDTH 10 0
BBX 8 12 1 0
BITMAP
3F
3F
03
3B
7F
E7
C3
C3
C3
E7
7F
3B
ENDCHAR
STARTCHAR 018D
ENCODING 397
SWIDTH 600 0
DWIDTH 10 0
BBX 8 12 1 -3
BITMAP
3C
7E
E7
C3
C3
C3
E7
7E
3C
18
7E
7E
ENDCHAR
STARTCHAR 018E
ENCODING 398
SWIDTH 660 0
DWIDTH 11 0
BBX 9 12 1 0
BITMAP
FF80
FF80
0180
0180
0180
7F80
7F80
0180
0180
0180
FF80
FF80
ENDCHAR
STARTCHAR 018F
ENCODING 399
SWIDTH 720 0
DWIDTH 12 0
BBX 10 12 1 0
BITMAP
3E00
7F00
E180
C0C0
00C0
FFC0
FFC0
C0C0
C0C0
6180
3F80
1E00
ENDCHAR
STARTCHAR 0190
ENCODING 400
SWIDTH 660 0
DWIDTH 11 0
BBX 10 12 1 0
BITMAP
3F00
7F80
E1C0
C0C0
6000
3800
7800
C000
C080
E1C0
7F80
3F00
ENDCHAR
STARTCHAR 0191
ENCODING 401
SWIDTH 600 0
DWIDTH 10 0
BBX 10 15 -1 -3
BITMAP
3FC0
3FC0
3000
3000
3000
3F80
3F80
3000
3000
3000
3000
3000
3000
F000
E000
ENDCHAR
STARTCHAR 0192
ENCODING 402
SWIDTH 540 0
DWIDTH 9 0
BBX 9 15 0 -3
BITMAP
0780
0F00
0C00
3F00
3F00
0C00
0C00
1800
1800
1800
1800
1800
1800
7000
F000
ENDCHAR
STARTCHAR 0193
ENCODING 403
SWIDTH 780 0
DWIDTH 13 0
BBX 13 14 1 0
BITMAP
0038
0078
1F60
3FE0
70E0
E060
C000
C000
C3E0
C3E0
E060
70E0
3FE0
1F80
ENDCHAR
STARTCHAR 0194
ENCODING 404
SWIDTH 660 0
DWIDTH 11 0
BBX 11 15 0 -3
BITMAP
C060
60C0
60C0
3180
3180
1B00
1B00
0E00
0E00
0E00
0E00
1B00
1B00
1F00
0E00
ENDCHAR
STARTCHAR 0195
ENCODING 405
SWIDTH 960 0
DWIDTH 16 0
BBX 14 12 1 0
BITMAP
C000
C000
C000
DE0C
FF0C
E30C
C30C
C30C
C30C
C39C
C1F8
C0F0
ENDCHAR
STARTCHAR 0196
ENCODING 406
SWIDTH 300 0
DWIDTH 5 0
BBX 2 12 1 0
BITMAP
C0
C0
C0
C0
C0
C0
C0
C0
C0
C0
C0
C0
ENDCHAR
STARTCHAR 0197
ENCODING 407
SWIDTH 300 0
DWIDTH 5 0
BBX 4 12 0 0
BITMAP
60
60
60
60
60
60
F0
60
60
60
60
60
ENDCHAR
STARTCHAR 0198
ENCODING 408
SWIDTH 720 0
DWIDTH 12 0
BBX 11 12 1 0
BITMAP
70C0
F180
C300
C600
CC00
DE00
F600
E300
C380
C180
C0C0
C0E0
ENDCHAR
STARTCHAR 0199
ENCODING 409
SWIDTH 540 0
DWIDTH 9 0
BBX 8 12 1 0
BITMAP
70
F0
C0
C3
C6
CC
D8
F8
EC
CC
C6
C3
ENDCHAR
STARTCHAR 019A
ENCODING 410
SWIDTH 300 0
DWIDTH 5 0
BBX 4 12 0 0
BITMAP
60
60
60
60
60
60
F0
60
60
60
60
60
ENDCHAR
STARTCHAR 019B
ENCODING 411
SWIDTH 540 0
DWIDTH 9 0
BBX 9 12 0 0
BITMAP
3400
3E00
F800
D800
1C00
1C00
3600
3600
6300
6300
C180
C180
ENDCHAR
STARTCHAR 019C
ENCODING 412
SWIDTH 1020 0
DWIDTH 17 0
BBX 14 12 1 0
BITMAP
C30C
C30C
C30C
C30C
C30C
C30C
C30C
C30C
C30C
C71C
FFFC
7DEC
ENDCHAR
STARTCHAR 019D
ENCODING 413
SWIDTH 720 0
DWIDTH 12 0
BBX 12 15 -1 -3
BITMAP
3030
3830
3C30
3C30
3630
3330
3330
31B0
30F0
30F0
3070
3030
3000
F000
E000
ENDCHAR
STARTCHAR 019E
ENCODING 414
SWIDTH 600 0
DWIDTH 10 0
BBX 8 12 1 -3
BITMAP
DE
FF
E3
C3
C3
C3
C3
C3
C3
03
03
03
ENDCHAR
STARTCHAR 019F
ENCODING 415
SWIDTH 780 0
DWIDTH 13 0
BBX 11 12 1 0
BITMAP
1F00
3F80
60C0
C060
C060
FFE0
FFE0
C060
C060
60C0
3F80
1F00
ENDCHAR
STARTCHAR 01A0
ENCODING 416
SWIDTH 900 0
DWIDTH 15 0
BBX 13 12 1 0
BITMAP
1F18
7FD8
60C8
C070
C070
C060
C060
C060
C060
60C0
7FC0
1F00
ENDCHAR
STARTCHAR 01A1
ENCODING 417
SWIDTH 720 0
DWIDTH 12 0
BBX 11 9 1 0
BITMAP
3C60
7E60
E720
C340
C380
C300
E700
7E00
3C00
ENDCHAR
STARTCHAR 01A2
ENCODING 418
SWIDTH 900 0
DWIDTH 15 0
BBX 13 15 1 -3
BITMAP
1F18
3FF8
7198
E198
C198
C198
C198
C198
E198
7198
3F98
1F18
0018
0018
0018
ENDCHAR
STARTCHAR 01A3
ENCODING 419
SWIDTH 780 0
DWIDTH 13 0
BBX 11 12 1 -3
BITMAP
3C60
7FE0
E660
C660
C660
C660
E660
7E60
3E60
0060
0060
0060
ENDCHAR
STARTCHAR 01A4
ENCODING 420
SWIDTH 780 0
DWIDTH 13 0
BBX 12 12 0 0
BITMAP
7FC0
FFE0
D870
D830
1870
1FE0
1FC0
1800
1800
1800
1800
1800
ENDCHAR
STARTCHAR 01A5
ENCODING 421
SWIDTH 600 0
DWIDTH 10 0
BBX 8 15 1 -3
BITMAP
70
F0
C0
DC
FE
E7
C3
C3
C3
E7
FE
DC
C0
C0
C0
ENDCHAR
STARTCHAR 01A6
ENCODING 422
SWIDTH 660 0
DWIDTH 11 0
BBX 10 15 1 -3
BITMAP
C000
FE00
FF00
C380
C180
C180
C380
FF00
FE00
C600
C600
C300
0300
0180
01C0
ENDCHAR
STARTCHAR 01A7
ENCODING 423
SWIDTH 660 0
DWIDTH 11 0
BBX 9 12 1 0
BITMAP
3E00
7F00
E180
C180
0780
3F00
7C00
E000
C180
E380
7F00
3E00
ENDCHAR
STARTCHAR 01A8
ENCODING 424
SWIDTH 540 0
DWIDTH 9 0
BBX 7 9 1 0
BITMAP
7C
FE
C6
1E
7C
E0
C6
FE
7C
ENDCHAR
STARTCHAR 01A9
ENCODING 425
SWIDTH 600 0
DWIDTH 10 0
BBX 8 12 1 0
BITMAP
FF
FF
60
30
18
0C
0C
18
30
60
FF
FF
ENDCHAR
STARTCHAR 01AA
ENCODING 426
SWIDTH 360 0
DWIDTH 6 0
BBX 6 15 0 -3
BITMAP
60
B0
70
30
30
30
30
30
30
30
30
30
30
3C
1C
ENDCHAR
STARTCHAR 01AB
ENCODING 427
SWIDTH 360 0
DWIDTH 6 0
BBX 6 15 0 -3
BITMAP
20
60
60
F8
F8
60
60
60
60
60
7C
3C
0C
3C
38
ENDCHAR
STARTCHAR 01AC
ENCODING 428
SWIDTH 600 0
DWIDTH 10 0
BBX 10 12 0 0
BITMAP
7FC0
FFC0
CC00
CC00
0C00
0C00
0C00
0C00
0C00
0C00
0C00
0C00
ENDCHAR
STARTCHAR 01AD
ENCODING 429
SWIDTH 360 0
DWIDTH 6 0
BBX 6 12 0 0
BITMAP
38
78
60
FC
FC
60
60
60
60
60
7C
3C
ENDCHAR
STARTCHAR 01AE
ENCODING 430
SWIDTH 600 0
DWIDTH 10 0
BBX 10 16 0 -4
BITMAP
FFC0
FFC0
0C00
0C00
0C00
0C00
0C00
0C00
0C00
0C00
0C00
0C00
0C00
0C00
0F00
0700
ENDCHAR
STARTCHAR 01AF
ENCODING 431
SWIDTH 840 0
DWIDTH 14 0
BBX 13 12 1 0
BITMAP
C0D8
C0D8
C0C8
C0D0
C0E0
C0C0
C0C0
C0C0
C0C0
E1C0
7F80
3F00
ENDCHAR
STARTCHAR 01B0
ENCODING 432
SWIDTH 720 0
DWIDTH 12 0
BBX 11 9 1 0
BITMAP
C360
C360
C320
C340
C380
C300
C700
FF00
7B00
ENDCHAR
STARTCHAR 01B1
ENCODING 433
SWIDTH 840 0
DWIDTH 14 0
BBX 12 12 1 0
BITMAP
F9F0
F9F0
30C0
6060
C030
C030
C030
C030
E070
70E0
3FC0
1F80
ENDCHAR
STARTCHAR 01B2
ENCODING 434
SWIDTH 720 0
DWIDTH 12 0
BBX 10 12 1 0
BITMAP
C380
C3C0
C0C0
C0C0
C0C0
C0C0
C0C0
C0C0
C180
E380
7F00
3E00
ENDCHAR
STARTCHAR 01B3
ENCODING 435
SWIDTH 780 0
DWIDTH 13 0
BBX 13 12 0 0
BITMAP
E070
60F8
30D0
3980
1B80
0F00
0600
0600
0600
0600
0600
0600
ENDCHAR
STARTCHAR 01B4
ENCODING 436
SWIDTH 540 0
DWIDTH 9 0
BBX 12 15 0 -3
BITMAP
00E0
00F0
0180
C180
6300
6300
7300
3600
3E00
1E00
1C00
0C00
1800
7800
7000
ENDCHAR
STARTCHAR 01B5
ENCODING 437
SWIDTH 600 0
DWIDTH 10 0
BBX 10 12 0 0
BITMAP
7FC0
7FC0
0180
0300
0600
0E00
FFC0
1800
3000
6000
FFC0
FFC0
ENDCHAR
STARTCHAR 01B6
ENCODING 438
SWIDTH 540 0
DWIDTH 9 0
BBX 7 9 1 0
BITMAP
FE
FE
0C
18
FE
30
60
FE
FE
ENDCHAR
STARTCHAR 01B7
ENCODING 439
SWIDTH 600 0
DWIDTH 10 0
BBX 9 15 0 -3
BITMAP
FF80
FF80
0300
0600
0C00
1E00
1F00
0380
0180
0180
0180
C180
E300
7F00
3E00
ENDCHAR
STARTCHAR 01B8
ENCODING 440
SWIDTH 600 0
DWIDTH 10 0
BBX 9 15 1 -3
BITMAP
FF80
FF80
6000
3000
1800
3C00
7C00
E000
C000
C000
C000
C180
6380
7F00
3E00
ENDCHAR
STARTCHAR 01B9
ENCODING 441
SWIDTH 540 0
DWIDTH 9 0
BBX 8 12 1 -3
BITMAP
FE
FE
60
30
78
E0
C0
C0
C3
E7
7E
3C
ENDCHAR
STARTCHAR 01BA
ENCODING 442
SWIDTH 540 0
DWIDTH 9 0
BBX 9 12 0 -3
BITMAP
7F00
7F00
0600
0C00
1E00
0300
0300
3E00
FC00
C180
FF00
7E00
ENDCHAR
STARTCHAR 01BB
ENCODING 443
SWIDTH 540 0
DWIDTH 9 0
BBX 8 12 0 0
BITMAP
3C
7E
E3
C3
03
06
FF
18
30
60
FF
FF
ENDCHAR
STARTCHAR 01BC
ENCODING 444
SWIDTH 540 0
DWIDTH 9 0
BBX 7 12 1 0
BITMAP
FE
FE
60
60
78
7C
06
06
C6
E6
7C
38
ENDCHAR
STARTCHAR 01BD
ENCODING 445
SWIDTH 480 0
DWIDTH 8 0
BBX 7 9 0 0
BITMAP
FE
FE
60
7C
7E
06
C6
FE
7C
ENDCHAR
STARTCHAR 01BE
ENCODING 446
SWIDTH 600 0
DWIDTH 10 0
BBX 9 12 0 0
BITMAP
1000
3000
3000
FC00
FC00
3000
3C00
1F00
0380
6180
3F80
1E00
ENDCHAR
STARTCHAR 01BF
ENCODING 447
SWIDTH 600 0
DWIDTH 10 0
BBX 8 12 1 -3
BITMAP
DC
FE
E7
C3
C3
C3
C6
CE
DC
F0
E0
C0
ENDCHAR
STARTCHAR 01C0
ENCODING 448
SWIDTH 300 0
DWIDTH 5 0
BBX 2 12 2 0
BITMAP
C0
C0
C0
C0
C0
C0
C0
C0
C0
C0
C0
C0
ENDCHAR
STARTCHAR 01C1
ENCODING 449
SWIDTH 480 0
DWIDTH 8 0
BBX 6 12 1 0
BITMAP
CC
CC
CC
CC
CC
CC
CC
CC
CC
CC
CC
CC
ENDCHAR
STARTCHAR 01C2
ENCODING 450
SWIDTH 600 0
DWIDTH 10 0
BBX 8 12 1 0
BITMAP
18
18
18
FF
FF
18
18
FF
FF
18
18
18
ENDCHAR
STARTCHAR 01C3
ENCODING 451
SWIDTH 360 0
DWIDTH 6 0
BBX 2 12 2 0
BITMAP
C0
C0
C0
C0
C0
C0
C0
C0
C0
00
C0
C0
ENDCHAR
STARTCHAR 01C4
ENCODING 452
SWIDTH 1380 0
DWIDTH 23 0
BBX 21 15 1 0
BITMAP
0001B0
0000E0
000000
FE07F8
FF87F8
C18030
C0C060
C0C0E0
C0C0C0
C0C180
C0C380
C0C300
C18600
FF8FF8
FE0FF8
ENDCHAR
STARTCHAR 01C5
ENCODING 453
SWIDTH 1260 0
DWIDTH 21 0
BBX 19 12 1 0
BITMAP
FE06C0
FF8380
C18000
C0CFE0
C0CFE0
C0C0C0
C0C1C0
C0C380
C0C700
C18600
FF8FE0
FE0FE0
ENDCHAR
STARTCHAR 01C6
ENCODING 454
SWIDTH 1140 0
DWIDTH 19 0
BBX 17 12 1 0
BITMAP
031B00
030E00
030000
3B3F80
7F3F80
E70300
C30700
C30E00
C31C00
E71800
7F3F80
3B3F80
ENDCHAR
STARTCHAR 01C7
ENCODING 455
SWIDTH 1200 0
DWIDTH 20 0
BBX 17 12 1 0
BITMAP
C00180
C00180
C00180
C00180
C00180
C00180
C00180
C00180
C06180
C06380
FF3F00
FF1E00
ENDCHAR
STARTCHAR 01C8
ENCODING 456
SWIDTH 900 0
DWIDTH 15 0
BBX 12 15 1 -3
BITMAP
C030
C030
C000
C030
C030
C030
C030
C030
C030
C030
FF30
FF30
0030
00F0
00E0
ENDCHAR
STARTCHAR 01C9
ENCODING 457
SWIDTH 540 0
DWIDTH 9 0
BBX 7 15 1 -3
BITMAP
C6
C6
C0
C6
C6
C6
C6
C6
C6
C6
C6
C6
06
1E
1C
ENDCHAR
STARTCHAR 01CA
ENCODING 458
SWIDTH 1320 0
DWIDTH 22 0
BBX 20 12 1 0
BITMAP
C0C030
E0C030
F0C030
F0C030
D8C030
CCC030
CCC030
C6C030
C3CC30
C3CC70
C1C7E0
C0C3C0
ENDCHAR
STARTCHAR 01CB
ENCODING 459
SWIDTH 1020 0
DWIDTH 17 0
BBX 15 15 1 -3
BITMAP
C0C6
E0C6
F0C0
F0C6
D8C6
CCC6
CCC6
C6C6
C3C6
C3C6
C1C6
C0C6
0006
001E
001C
ENDCHAR
STARTCHAR 01CC
ENCODING 460
SWIDTH 900 0
DWIDTH 15 0
BBX 13 15 1 -3
BITMAP
0018
0018
0000
DE18
FF18
E318
C318
C318
C318
C318
C318
C318
0018
0078
0070
ENDCHAR
STARTCHAR 01CD
ENCODING 461
SWIDTH 660 0
DWIDTH 11 0
BBX 11 15 0 0
BITMAP
1B00
0E00
0000
0E00
0E00
1B00
1B00
1B00
3180
3180
3F80
7FC0
60C0
60C0
C060
ENDCHAR
STARTCHAR 01CE
ENCODING 462
SWIDTH 540 0
DWIDTH 9 0
BBX 8 12 1 0
BITMAP
6C
38
00
7C
FE
C6
1E
7E
E6
C6
FE
7B
ENDCHAR
STARTCHAR 01CF
ENCODING 463
SWIDTH 240 0
DWIDTH 4 0
BBX 5 15 0 0
BITMAP
D8
70
00
60
60
60
60
60
60
60
60
60
60
60
60
ENDCHAR
STARTCHAR 01D0
ENCODING 464
SWIDTH 240 0
DWIDTH 4 0
BBX 5 12 0 0
BITMAP
D8
70
00
60
60
60
60
60
60
60
60
60
ENDCHAR
STARTCHAR 01D1
ENCODING 465
SWIDTH 780 0
DWIDTH 13 0
BBX 11 15 1 0
BITMAP
1B00
0E00
0000
1F00
7FC0
60C0
E060
C060
C060
C060
C060
E060
60C0
7FC0
1F00
ENDCHAR
STARTCHAR 01D2
ENCODING 466
SWIDTH 600 0
DWIDTH 10 0
BBX 8 12 1 0
BITMAP
36
1C
00
3C
7E
E7
C3
C3
C3
E7
7E
3C
ENDCHAR
STARTCHAR 01D3
ENCODING 467
SWIDTH 720 0
DWIDTH 12 0
BBX 10 15 1 0
BITMAP
1B00
0E00
0000
C0C0
C0C0
C0C0
C0C0
C0C0
C0C0
C0C0
C0C0
C0C0
E1C0
7F80
3F00
ENDCHAR
STARTCHAR 01D4
ENCODING 468
SWIDTH 600 0
DWIDTH 10 0
BBX 8 12 1 0
BITMAP
36
1C
00
C3
C3
C3
C3
C3
C3
C7
FF
7B
ENDCHAR
STARTCHAR 01D5
ENCODING 469
SWIDTH 720 0
DWIDTH 12 0
BBX 10 15 1 0
BITMAP
1E00
0000
1200
C0C0
C0C0
C0C0
C0C0
C0C0
C0C0
C0C0
C0C0
C0C0
E1C0
7F80
3F00
ENDCHAR
STARTCHAR 01D6
ENCODING 470
SWIDTH 600 0
DWIDTH 10 0
BBX 8 15 1 0
BITMAP
7E
7E
00
66
66
00
C3
C3
C3
C3
C3
C3
C7
FF
7B
ENDCHAR
STARTCHAR 01D7
ENCODING 471
SWIDTH 720 0
DWIDTH 12 0
BBX 10 15 1 0
BITMAP
0200
0400
1100
C0C0
C0C0
C0C0
C0C0
C0C0
C0C0
C0C0
C0C0
C0C0
E1C0
7F80
3F00
ENDCHAR
STARTCHAR 01D8
ENCODING 472
SWIDTH 600 0
DWIDTH 10 0
BBX 8 15 1 0
BITMAP
0C
18
00
66
66
00
C3
C3
C3
C3
C3
C3
C7
FF
7B
ENDCHAR
STARTCHAR 01D9
ENCODING 473
SWIDTH 720 0
DWIDTH 12 0
BBX 10 15 1 0
BITMAP
0A00
0400
1100
C0C0
C0C0
C0C0
C0C0
C0C0
C0C0
C0C0
C0C0
C0C0
E1C0
7F80
3F00
ENDCHAR
STARTCHAR 01DA
ENCODING 474
SWIDTH 600 0
DWIDTH 10 0
BBX 8 15 1 0
BITMAP
36
1C
00
66
66
00
C3
C3
C3
C3
C3
C3
C7
FF
7B
ENDCHAR
STARTCHAR 01DB
ENCODING 475
SWIDTH 720 0
DWIDTH 12 0
BBX 10 15 1 0
BITMAP
0800
0400
1100
C0C0
C0C0
C0C0
C0C0
C0C0
C0C0
C0C0
C0C0
C0C0
E1C0
7F80
3F00
ENDCHAR
STARTCHAR 01DC
ENCODING 476
SWIDTH 600 0
DWIDTH 10 0
BBX 8 15 1 0
BITMAP
18
0C
00
66
66
00
C3
C3
C3
C3
C3
C3
C7
FF
7B
ENDCHAR
STARTCHAR 01DD
ENCODING 477
SWIDTH 540 0
DWIDTH 9 0
BBX 7 9 1 0
BITMAP
78
FC
CE
06
FE
FE
C6
7C
38
ENDCHAR
STARTCHAR 01DE
ENCODING 478
SWIDTH 660 0
DWIDTH 11 0
BBX 11 15 0 0
BITMAP
0F00
0900
0000
0E00
0E00
1B00
1B00
1B00
3180
3180
3F80
7FC0
60C0
60C0
C060
ENDCHAR
STARTCHAR 01DF
ENCODING 479
SWIDTH 540 0
DWIDTH 9 0
BBX 8 15 1 0
BITMAP
7E
7E
00
66
66
00
7C
FE
C6
1E
7E
E6
C6
FE
7B
ENDCHAR
STARTCHAR 01E0
ENCODING 480
SWIDTH 660 0
DWIDTH 11 0
BBX 11 15 0 0
BITMAP
1F00
0400
0000
0E00
0E00
1B00
1B00
1B00
3180
3180
3F80
7FC0
60C0
60C0
C060
ENDCHAR
STARTCHAR 01E1
ENCODING 481
SWIDTH 540 0
DWIDTH 9 0
BBX 8 15 1 0
BITMAP
7E
7E
00
18
18
00
7C
FE
C6
1E
7E
E6
C6
FE
7B
ENDCHAR
STARTCHAR 01E2
ENCODING 482
SWIDTH 1020 0
DWIDTH 17 0
BBX 17 15 -1 0
BITMAP
007E00
007E00
000000
03FF80
07FF80
06C000
0CC000
0CC000
18FF80
18FF80
3FC000
3FC000
60C000
60FF80
C0FF80
ENDCHAR
STARTCHAR 01E3
ENCODING 483
SWIDTH 900 0
DWIDTH 15 0
BBX 13 12 1 0
BITMAP
0FC0
0FC0
0000
3DE0
7FF0
C618
1FF8
7FF8
E600
C718
FFF0
79E0
ENDCHAR
STARTCHAR 01E4
ENCODING 484
SWIDTH 780 0
DWIDTH 13 0
BBX 12 12 1 0
BITMAP
1F80
3FC0
70E0
E060
C000
C3E0
C3E0
C060
E3F0
7060
3FE0
1F80
ENDCHAR
STARTCHAR 01E5
ENCODING 485
SWIDTH 600 0
DWIDTH 10 0
BBX 9 12 1 -3
BITMAP
3B00
7F00
C700
C300
C300
C700
7F00
3B00
FF80
0300
FE00
7C00
ENDCHAR
STARTCHAR 01E6
ENCODING 486
SWIDTH 780 0
DWIDTH 13 0
BBX 11 15 1 0
BITMAP
1B00
0E00
0000
1F80
7FC0
60E0
E040
C000
C000
C3E0
C3E0
E060
60E0
7FE0
1F80
ENDCHAR
STARTCHAR 01E7
ENCODING 487
SWIDTH 600 0
DWIDTH 10 0
BBX 8 15 1 -3
BITMAP
6C
38
00
3B
7F
E7
C3
C3
C3
E7
7F
3B
C3
FF
7E
ENDCHAR
STARTCHAR 01E8
ENCODING 488
SWIDTH 720 0
DWIDTH 12 0
BBX 10 15 1 0
BITMAP
3600
1C00
0000
C1C0
C180
C300
C600
CC00
DE00
F700
E300
C380
C180
C1C0
C0C0
ENDCHAR
STARTCHAR 01E9
ENCODING 489
SWIDTH 540 0
DWIDTH 9 0
BBX 7 15 1 0
BITMAP
D8
70
00
C0
C0
C0
C6
CC
D8
F8
FC
EC
CC
C6
C6
ENDCHAR
STARTCHAR 01EA
ENCODING 490
SWIDTH 780 0
DWIDTH 13 0
BBX 11 15 1 -3
BITMAP
1F00
7FC0
60C0
E060
C060
C060
C060
C060
E060
60C0
7FC0
1F00
0200
0600
0700
ENDCHAR
STARTCHAR 01EB
ENCODING 491
SWIDTH 600 0
DWIDTH 10 0
BBX 8 12 1 -3
BITMAP
3C
7E
E7
C3
C3
C3
E7
7E
3C
08
18
1C
ENDCHAR
STARTCHAR 01EC
ENCODING 492
SWIDTH 780 0
DWIDTH 13 0
BBX 11 18 1 -3
BITMAP
1F80
1F80
0000
1F00
7FC0
60C0
E060
C060
C060
C060
C060
E060
60C0
7FC0
1F00
0200
0600
0700
ENDCHAR
STARTCHAR 01ED
ENCODING 493
SWIDTH 600 0
DWIDTH 10 0
BBX 8 15 1 -3
BITMAP
7E
7E
00
3C
7E
E7
C3
C3
C3
E7
7E
3C
08
18
1C
ENDCHAR
STARTCHAR 01EE
ENCODING 494
SWIDTH 600 0
DWIDTH 10 0
BBX 9 18 0 -3
BITMAP
3600
1C00
0000
FF80
FF80
0300
0600
0C00
1E00
1F00
0380
0180
0180
0180
C180
E300
7F00
3E00
ENDCHAR
STARTCHAR 01EF
ENCODING 495
SWIDTH 540 0
DWIDTH 9 0
BBX 8 15 0 -3
BITMAP
36
1C
00
7F
7F
06
0C
1E
07
03
03
C3
E7
7E
3C
ENDCHAR
STARTCHAR 01F0
ENCODING 496
SWIDTH 300 0
DWIDTH 5 0
BBX 5 15 0 -3
BITMAP
D8
70
00
30
30
30
30
30
30
30
30
30
30
F0
E0
ENDCHAR
STARTCHAR 01F1
ENCODING 497
SWIDTH 1380 0
DWIDTH 23 0
BBX 21 12 1 0
BITMAP
FE07F8
FF87F8
C18030
C0C060
C0C0E0
C0C0C0
C0C180
C0C380
C0C300
C18600
FF8FF8
FE0FF8
ENDCHAR
STARTCHAR 01F2
ENCODING 498
SWIDTH 1260 0
DWIDTH 21 0
BBX 19 12 1 0
BITMAP
FE0000
FF8000
C18000
C0CFE0
C0CFE0
C0C0C0
C0C1C0
C0C380
C0C700
C18600
FF8FE0
FE0FE0
ENDCHAR
STARTCHAR 01F3
ENCODING 499
SWIDTH 1140 0
DWIDTH 19 0
BBX 17 12 1 0
BITMAP
030000
030000
030000
3B3F80
7F3F80
E70300
C30700
C30E00
C31C00
E71800
7F3F80
3B3F80
ENDCHAR
STARTCHAR 01F4
ENCODING 500
SWIDTH 780 0
DWIDTH 13 0
BBX 11 15 1 0
BITMAP
0300
0600
0000
1F80
7FC0
60E0
E040
C000
C000
C3E0
C3E0
E060
60E0
7FE0
1F80
ENDCHAR
STARTCHAR 01F5
ENCODING 501
SWIDTH 600 0
DWIDTH 10 0
BBX 8 15 1 -3
BITMAP
0C
18
00
3B
7F
E7
C3
C3
C3
E7
7F
3B
C3
FF
7E
ENDCHAR
STARTCHAR 01F6
ENCODING 502
SWIDTH 1080 0
DWIDTH 18 0
BBX 16 12 1 0
BITMAP
C0C0
C0C0
C0C0
C0C3
C0C3
FFC3
FFC3
C0C3
C0C3
C0C7
C07E
C03C
ENDCHAR
STARTCHAR 01F7
ENCODING 503
SWIDTH 660 0
DWIDTH 11 0
BBX 9 15 1 -3
BITMAP
DE00
FF00
E380
C180
C180
C180
C180
C300
C300
C600
CC00
DC00
F000
E000
C000
ENDCHAR
STARTCHAR 01F8
ENCODING 504
SWIDTH 720 0
DWIDTH 12 0
BBX 10 15 1 0
BITMAP
0C00
0600
0000
C0C0
E0C0
F0C0
F0C0
D8C0
CCC0
CCC0
C6C0
C3C0
C3C0
C1C0
C0C0
ENDCHAR
STARTCHAR 01F9
ENCODING 505
SWIDTH 600 0
DWIDTH 10 0
BBX 8 12 1 0
BITMAP
30
18
00
DE
FF
E3
C3
C3
C3
C3
C3
C3
ENDCHAR
STARTCHAR 01FA
ENCODING 506
SWIDTH 660 0
DWIDTH 11 0
BBX 11 17 0 0
BITMAP
0300
0600
0600
0900
0900
0E00
0E00
1B00
1B00
1B00
3180
3180
3F80
7FC0
60C0
60C0
C060
ENDCHAR
STARTCHAR 01FB
ENCODING 507
SWIDTH 540 0
DWIDTH 9 0
BBX 8 15 1 0
BITMAP
0C
18
18
24
24
18
7C
FE
C6
1E
7E
E6
C6
FE
7B
ENDCHAR
STARTCHAR 01FC
ENCODING 508
SWIDTH 1020 0
DWIDTH 17 0
BBX 17 15 -1 0
BITMAP
00C000
018000
000000
03FF80
07FF80
06C000
0CC000
0CC000
18FF80
18FF80
3FC000
3FC000
60C000
60FF80
C0FF80
ENDCHAR
STARTCHAR 01FD
ENCODING 509
SWIDTH 900 0
DWIDTH 15 0
BBX 13 12 1 0
BITMAP
0300
0600
0000
3DE0
7FF0
C618
1FF8
7FF8
E600
C718
FFF0
79E0
ENDCHAR
STARTCHAR 01FE
ENCODING 510
SWIDTH 780 0
DWIDTH 13 0
BBX 13 16 0 -1
BITMAP
0180
0300
0010
0F98
3FF0
30E0
60F0
61B0
6330
6630
6C30
7830
3860
7FE0
CF80
4000
ENDCHAR
STARTCHAR 01FF
ENCODING 511
SWIDTH 600 0
DWIDTH 10 0
BBX 8 13 1 -1
BITMAP
0C
18
02
3B
7E
E7
CF
DB
F3
E7
7E
DC
40
ENDCHAR
STARTCHAR 0200
ENCODING 512
SWIDTH 660 0
DWIDTH 11 0
BBX 11 15 0 0
BITMAP
3600
1B00
0000
0E00
0E00
1B00
1B00
1B00
3180
3180
3F80
7FC0
60C0
60C0
C060
ENDCHAR
STARTCHAR 0201
ENCODING 513
SWIDTH 540 0
DWIDTH 9 0
BBX 8 12 1 0
BITMAP
6C
36
00
7C
FE
C6
1E
7E
E6
C6
FE
7B
ENDCHAR
STARTCHAR 0202
ENCODING 514
SWIDTH 660 0
DWIDTH 11 0
BBX 11 15 0 0
BITMAP
0E00
1100
0000
0E00
0E00
1B00
1B00
1B00
3180
3180
3F80
7FC0
60C0
60C0
C060
ENDCHAR
STARTCHAR 0203
ENCODING 515
SWIDTH 540 0
DWIDTH 9 0
BBX 8 12 1 0
BITMAP
38
44
00
7C
FE
C6
1E
7E
E6
C6
FE
7B
ENDCHAR
STARTCHAR 0204
ENCODING 516
SWIDTH 660 0
DWIDTH 11 0
BBX 9 15 1 0
BITMAP
6C00
3600
0000
FF80
FF80
C000
C000
C000
FF80
FF80
C000
C000
C000
FF80
FF80
ENDCHAR
STARTCHAR 0205
ENCODING 517
SWIDTH 540 0
DWIDTH 9 0
BBX 7 12 1 0
BITMAP
D8
6C
00
38
7C
C6
FE
FE
C0
E6
7C
38
ENDCHAR
STARTCHAR 0206
ENCODING 518
SWIDTH 660 0
DWIDTH 11 0
BBX 9 15 1 0
BITMAP
1C00
2200
0000
FF80
FF80
C000
C000
C000
FF80
FF80
C000
C000
C000
FF80
FF80
ENDCHAR
STARTCHAR 0207
ENCODING 519
SWIDTH 540 0
DWIDTH 9 0
BBX 7 12 1 0
BITMAP
38
44
00
38
7C
C6
FE
FE
C0
E6
7C
38
ENDCHAR
STARTCHAR 0208
ENCODING 520
SWIDTH 240 0
DWIDTH 4 0
BBX 6 15 -1 0
BITMAP
D8
6C
00
30
30
30
30
30
30
30
30
30
30
30
30
ENDCHAR
STARTCHAR 0209
ENCODING 521
SWIDTH 240 0
DWIDTH 4 0
BBX 6 12 -2 0
BITMAP
D8
6C
00
18
18
18
18
18
18
18
18
18
ENDCHAR
STARTCHAR 020A
ENCODING 522
SWIDTH 240 0
DWIDTH 4 0
BBX 5 15 0 0
BITMAP
70
88
00
60
60
60
60
60
60
60
60
60
60
60
60
ENDCHAR
STARTCHAR 020B
ENCODING 523
SWIDTH 240 0
DWIDTH 4 0
BBX 5 12 0 0
BITMAP
70
88
00
60
60
60
60
60
60
60
60
60
ENDCHAR
STARTCHAR 020C
ENCODING 524
SWIDTH 780 0
DWIDTH 13 0
BBX 11 15 1 0
BITMAP
3600
1B00
0000
1F00
7FC0
60C0
E060
C060
C060
C060
C060
E060
60C0
7FC0
1F00
ENDCHAR
STARTCHAR 020D
ENCODING 525
SWIDTH 600 0
DWIDTH 10 0
BBX 8 12 1 0
BITMAP
D8
6C
00
3C
7E
E7
C3
C3
C3
E7
7E
3C
ENDCHAR
STARTCHAR 020E
ENCODING 526
SWIDTH 780 0
DWIDTH 13 0
BBX 11 15 1 0
BITMAP
0E00
1100
0000
1F00
7FC0
60C0
E060
C060
C060
C060
C060
E060
60C0
7FC0
1F00
ENDCHAR
STARTCHAR 020F
ENCODING 527
SWIDTH 600 0
DWIDTH 10 0
BBX 8 12 1 0
BITMAP
1C
22
00
3C
7E
E7
C3
C3
C3
E7
7E
3C
ENDCHAR
STARTCHAR 0210
ENCODING 528
SWIDTH 720 0
DWIDTH 12 0
BBX 11 15 1 0
BITMAP
6C00
3600
0000
FF00
FF80
C1C0
C0C0
C1C0
FF80
FE00
C700
C380
C380
C1C0
C0E0
ENDCHAR
STARTCHAR 0211
ENCODING 529
SWIDTH 420 0
DWIDTH 7 0
BBX 7 12 0 0
BITMAP
D8
6C
00
6E
7E
70
60
60
60
60
60
60
ENDCHAR
STARTCHAR 0212
ENCODING 530
SWIDTH 720 0
DWIDTH 12 0
BBX 11 15 1 0
BITMAP
1C00
2200
0000
FF00
FF80
C1C0
C0C0
C1C0
FF80
FE00
C700
C380
C380
C1C0
C0E0
ENDCHAR
STARTCHAR 0213
ENCODING 531
SWIDTH 420 0
DWIDTH 7 0
BBX 6 12 1 0
BITMAP
70
88
00
DC
FC
E0
C0
C0
C0
C0
C0
C0
ENDCHAR
STARTCHAR 0214
ENCODING 532
SWIDTH 720 0
DWIDTH 12 0
BBX 10 15 1 0
BITMAP
3600
1B00
0000
C0C0
C0C0
C0C0
C0C0
C0C0
C0C0
C0C0
C0C0
C0C0
E1C0
7F80
3F00
ENDCHAR
STARTCHAR 0215
ENCODING 533
SWIDTH 600 0
DWIDTH 10 0
BBX 8 12 1 0
BITMAP
D8
6C
00
C3
C3
C3
C3
C3
C3
C7
FF
7B
ENDCHAR
STARTCHAR 0216
ENCODING 534
SWIDTH 720 0
DWIDTH 12 0
BBX 10 15 1 0
BITMAP
0E00
1100
0000
C0C0
C0C0
C0C0
C0C0
C0C0
C0C0
C0C0
C0C0
C0C0
E1C0
7F80
3F00
ENDCHAR
STARTCHAR 0217
ENCODING 535
SWIDTH 600 0
DWIDTH 10 0
BBX 8 12 1 0
BITMAP
1C
22
00
C3
C3
C3
C3
C3
C3
C7
FF
7B
ENDCHAR
STARTCHAR 0218
ENCODING 536
SWIDTH 660 0
DWIDTH 11 0
BBX 9 17 1 -5
BITMAP
3E00
7F00
E380
C180
F000
7E00
1F00
0380
C180
E380
7F00
3E00
0000
0C00
0C00
0400
0800
ENDCHAR
STARTCHAR 0219
ENCODING 537
SWIDTH 540 0
DWIDTH 9 0
BBX 7 14 1 -5
BITMAP
7C
FE
C6
F0
7C
0E
C6
FE
7C
00
18
18
08
10
ENDCHAR
STARTCHAR 021A
ENCODING 538
SWIDTH 600 0
DWIDTH 10 0
BBX 10 17 0 -5
BITMAP
FFC0
FFC0
0C00
0C00
0C00
0C00
0C00
0C00
0C00
0C00
0C00
0C00
0000
0C00
0C00
0400
0800
ENDCHAR
STARTCHAR 021B
ENCODING 539
SWIDTH 360 0
DWIDTH 6 0
BBX 5 17 0 -5
BITMAP
20
60
60
F8
F8
60
60
60
60
60
78
38
00
30
30
10
20
ENDCHAR
STARTCHAR 021C
ENCODING 540
SWIDTH 600 0
DWIDTH 10 0
BBX 8 15 1 -3
BITMAP
3C
FE
43
03
03
06
3E
FB
C3
03
07
0E
3C
F0
C0
ENDCHAR
STARTCHAR 021D
ENCODING 541
SWIDTH 540 0
DWIDTH 9 0
BBX 7 12 1 -3
BITMAP
3C
FE
46
06
1C
FC
E6
06
0E
3C
F8
C0
ENDCHAR
STARTCHAR 021E
ENCODING 542
SWIDTH 720 0
DWIDTH 12 0
BBX 10 15 1 0
BITMAP
1B00
0E00
0000
C0C0
C0C0
C0C0
C0C0
C0C0
FFC0
FFC0
C0C0
C0C0
C0C0
C0C0
C0C0
ENDCHAR
STARTCHAR 021F
ENCODING 543
SWIDTH 600 0
DWIDTH 10 0
BBX 8 15 1 0
BITMAP
6C
38
00
C0
C0
C0
DE
FF
E3
C3
C3
C3
C3
C3
C3
ENDCHAR
STARTCHAR 0220
ENCODING 544
SWIDTH 720 0
DWIDTH 12 0
BBX 10 15 1 -3
BITMAP
FF00
FF80
C1C0
C0C0
C0C0
C0C0
C0C0
C0C0
C0C0
C0C0
C0C0
C0C0
00C0
00C0
00C0
ENDCHAR
STARTCHAR 0221
ENCODING 545
SWIDTH 840 0
DWIDTH 14 0
BBX 13 15 1 -3
BITMAP
0300
0300
0300
3B00
7F00
E700
C300
C300
C300
E700
7F70
3BF8
0398
03F8
02F0
ENDCHAR
STARTCHAR 0222
ENCODING 546
SWIDTH 660 0
DWIDTH 11 0
BBX 9 12 1 0
BITMAP
3600
7700
6300
6300
3E00
7F00
E380
C180
C180
E380
7F00
3E00
ENDCHAR
STARTCHAR 0223
ENCODING 547
SWIDTH 660 0
DWIDTH 11 0
BBX 9 12 1 0
BITMAP
3600
6300
6300
6300
3E00
7F00
E380
C180
C180
E380
7F00
3E00
ENDCHAR
STARTCHAR 0224
ENCODING 548
SWIDTH 600 0
DWIDTH 10 0
BBX 10 14 0 -2
BITMAP
7FC0
7FC0
0180
0300
0600
0E00
1C00
1800
3000
6000
FF80
FFC0
00C0
00C0
ENDCHAR
STARTCHAR 0225
ENCODING 549
SWIDTH 540 0
DWIDTH 9 0
BBX 7 11 1 -2
BITMAP
FE
FE
0C
18
38
30
60
FC
FE
06
06
ENDCHAR
STARTCHAR 0226
ENCODING 550
SWIDTH 660 0
DWIDTH 11 0
BBX 11 15 0 0
BITMAP
0600
0600
0000
0E00
0E00
1B00
1B00
1B00
3180
3180
3F80
7FC0
60C0
60C0
C060
ENDCHAR
STARTCHAR 0227
ENCODING 551
SWIDTH 540 0
DWIDTH 9 0
BBX 8 12 1 0
BITMAP
18
18
00
7C
FE
C6
1E
7E
E6
C6
FE
7B
ENDCHAR
STARTCHAR 0228
ENCODING 552
SWIDTH 660 0
DWIDTH 11 0
BBX 9 15 1 -3
BITMAP
FF80
FF80
C000
C000
C000
FF80
FF80
C000
C000
C000
FF80
FF80
0C00
0600
1C00
ENDCHAR
STARTCHAR 0229
ENCODING 553
SWIDTH 540 0
DWIDTH 9 0
BBX 7 12 1 -3
BITMAP
38
7C
C6
FE
FE
C0
E6
7C
38
18
0C
38
ENDCHAR
STARTCHAR 022A
ENCODING 554
SWIDTH 780 0
DWIDTH 13 0
BBX 11 15 1 0
BITMAP
0F00
0900
0000
1F00
7FC0
60C0
E060
C060
C060
C060
C060
E060
60C0
7FC0
1F00
ENDCHAR
STARTCHAR 022B
ENCODING 555
SWIDTH 600 0
DWIDTH 10 0
BBX 8 15 1 0
BITMAP
7E
7E
00
66
66
00
3C
7E
E7
C3
C3
C3
E7
7E
3C
ENDCHAR
STARTCHAR 022C
ENCODING 556
SWIDTH 780 0
DWIDTH 13 0
BBX 11 15 1 0
BITMAP
0F00
0D00
0B00
1F00
7FC0
60C0
E060
C060
C060
C060
C060
E060
60C0
7FC0
1F00
ENDCHAR
STARTCHAR 022D
ENCODING 557
SWIDTH 600 0
DWIDTH 10 0
BBX 8 15 1 0
BITMAP
7E
7E
00
72
4E
00
3C
7E
E7
C3
C3
C3
E7
7E
3C
ENDCHAR
STARTCHAR 022E
ENCODING 558
SWIDTH 780 0
DWIDTH 13 0
BBX 11 15 1 0
BITMAP
0600
0600
0000
1F00
7FC0
60C0
E060
C060
C060
C060
C060
E060
60C0
7FC0
1F00
ENDCHAR
STARTCHAR 022F
ENCODING 559
SWIDTH 600 0
DWIDTH 10 0
BBX 8 12 1 0
BITMAP
18
18
00
3C
7E
E7
C3
C3
C3
E7
7E
3C
ENDCHAR
STARTCHAR 0230
ENCODING 560
SWIDTH 780 0
DWIDTH 13 0
BBX 11 15 1 0
BITMAP
1F00
0400
0000
1F00
7FC0
60C0
E060
C060
C060
C060
C060
E060
60C0
7FC0
1F00
ENDCHAR
STARTCHAR 0231
ENCODING 561
SWIDTH 600 0
DWIDTH 10 0
BBX 8 15 1 0
BITMAP
7E
7E
00
18
18
00
3C
7E
E7
C3
C3
C3
E7
7E
3C
ENDCHAR
STARTCHAR 0232
ENCODING 562
SWIDTH 600 0
DWIDTH 10 0
BBX 10 15 0 0
BITMAP
3F00
3F00
0000
C0C0
E1C0
6180
3300
3700
1E00
0C00
0C00
0C00
0C00
0C00
0C00
ENDCHAR
STARTCHAR 0233
ENCODING 563
SWIDTH 540 0
DWIDTH 9 0
BBX 9 15 0 -3
BITMAP
3F00
3F00
0000
C180
C180
6300
6300
3600
3600
3E00
1C00
1C00
1800
7800
7000
ENDCHAR
STARTCHAR 0234
ENCODING 564
SWIDTH 480 0
DWIDTH 8 0
BBX 7 15 1 -3
BITMAP
C0
C0
C0
C0
C0
C0
C0
C0
C0
C0
DC
FE
E6
FE
BC
ENDCHAR
STARTCHAR 0235
ENCODING 565
SWIDTH 840 0
DWIDTH 14 0
BBX 13 12 1 -3
BITMAP
DE00
FF00
E300
C300
C300
C300
C300
C370
C3F8
0398
03F8
02F0
ENDCHAR
STARTCHAR 0236
ENCODING 566
SWIDTH 540 0
DWIDTH 9 0
BBX 8 12 1 0
BITMAP
20
60
60
F8
F8
60
60
6E
7F
73
7F
5E
ENDCHAR
STARTCHAR 0237
ENCODING 567
SWIDTH 300 0
DWIDTH 5 0
BBX 4 12 0 -3
BITMAP
30
30
30
30
30
30
30
30
30
30
F0
E0
ENDCHAR
STARTCHAR 0238
ENCODING 568
SWIDTH 960 0
DWIDTH 16 0
BBX 14 12 1 0
BITMAP
0300
0300
0300
3B70
7FF8
E79C
C30C
C30C
C30C
E79C
7FF8
3B70
ENDCHAR
STARTCHAR 0239
ENCODING 569
SWIDTH 960 0
DWIDTH 16 0
BBX 14 12 1 -3
BITMAP
3B70
7FF8
E79C
C30C
C30C
C30C
E79C
7FF8
3B70
0300
0300
0300
ENDCHAR
STARTCHAR 023A
ENCODING 570
SWIDTH 720 0
DWIDTH 12 0
BBX 12 12 0 0
BITMAP
0620
0F40
0F80
1980
1980
1B80
32C0
3FC0
7FE0
6860
7060
E030
ENDCHAR
STARTCHAR 023B
ENCODING 571
SWIDTH 720 0
DWIDTH 12 0
BBX 10 12 1 0
BITMAP
1F80
7F80
61C0
C2C0
C400
C400
C800
C800
D0C0
61C0
7F80
5F00
ENDCHAR
STARTCHAR 023C
ENCODING 572
SWIDTH 540 0
DWIDTH 9 0
BBX 7 15 1 -3
BITMAP
02
04
04
3C
7E
EE
D0
D0
D0
E6
7E
7C
40
40
80
ENDCHAR
STARTCHAR 023D
ENCODING 573
SWIDTH 600 0
DWIDTH 10 0
BBX 9 12 0 0
BITMAP
6000
6000
6000
6000
6000
FC00
6000
6000
6000
6000
7F80
7F80
ENDCHAR
STARTCHAR 023E
ENCODING 574
SWIDTH 600 0
DWIDTH 10 0
BBX 10 14 0 -1
BITMAP
0040
FFC0
FFC0
0D00
0E00
0C00
0C00
0C00
0C00
1C00
2C00
2C00
4C00
8000
ENDCHAR
STARTCHAR 023F
ENCODING 575
SWIDTH 540 0
DWIDTH 9 0
BBX 7 12 1 -3
BITMAP
7C
FE
C6
F0
7C
1E
46
FE
7C
30
1C
1C
ENDCHAR
STARTCHAR 0240
ENCODING 576
SWIDTH 540 0
DWIDTH 9 0
BBX 8 12 1 -3
BITMAP
FE
FE
0C
18
38
30
60
F0
F8
1C
0F
06
ENDCHAR
STARTCHAR 0241
ENCODING 577
SWIDTH 660 0
DWIDTH 11 0
BBX 9 12 1 0
BITMAP
3E00
FF00
6380
0180
0180
0180
0380
1F00
1E00
1800
1800
1800
ENDCHAR
STARTCHAR 0242
ENCODING 578
SWIDTH 480 0
DWIDTH 8 0
BBX 7 9 0 0
BITMAP
3C
FE
C6
06
0E
1C
18
18
18
ENDCHAR
STARTCHAR 0243
ENCODING 579
SWIDTH 720 0
DWIDTH 12 0
BBX 11 12 0 0
BITMAP
7F80
7FC0
60C0
60C0
7F80
7FC0
60E0
FC60
FC60
60E0
7FC0
7F80
ENDCHAR
STARTCHAR 0244
ENCODING 580
SWIDTH 720 0
DWIDTH 12 0
BBX 12 12 0 0
BITMAP
6060
6060
6060
6060
FFF0
FFF0
6060
6060
6060
70E0
3FC0
1F80
ENDCHAR
STARTCHAR 0245
ENCODING 581
SWIDTH 660 0
DWIDTH 11 0
BBX 11 12 0 0
BITMAP
0E00
0E00
0E00
1B00
1B00
3B80
3180
3180
61C0
60C0
60C0
C0E0
ENDCHAR
STARTCHAR 0246
ENCODING 582
SWIDTH 660 0
DWIDTH 11 0
BBX 9 14 1 -1
BITMAP
0080
FF80
FF80
C200
C200
C400
FF00
FF00
C800
D000
D000
FF80
FF80
4000
ENDCHAR
STARTCHAR 0247
ENCODING 583
SWIDTH 540 0
DWIDTH 9 0
BBX 7 15 1 -3
BITMAP
02
04
04
3C
7C
CE
D6
FE
D0
E6
7C
78
40
40
80
ENDCHAR
STARTCHAR 0248
ENCODING 584
SWIDTH 540 0
DWIDTH 9 0
BBX 9 12 0 0
BITMAP
0300
0300
0300
0300
0780
0780
0300
0300
C300
C300
7E00
3C00
ENDCHAR
STARTCHAR 0249
ENCODING 585
SWIDTH 300 0
DWIDTH 5 0
BBX 5 15 -1 -3
BITMAP
30
30
00
30
30
30
78
78
30
30
30
30
30
F0
E0
ENDCHAR
STARTCHAR 024A
ENCODING 586
SWIDTH 780 0
DWIDTH 13 0
BBX 12 15 1 -3
BITMAP
1FC0
3FC0
70C0
E0C0
C0C0
C0C0
C0C0
C0C0
E0C0
70C0
3FC0
1FC0
00C0
00F0
0070
ENDCHAR
STARTCHAR 024B
ENCODING 587
SWIDTH 600 0
DWIDTH 10 0
BBX 10 12 1 -3
BITMAP
3B00
7F00
E700
C300
C300
C300
E700
7F00
3B00
0300
03C0
01C0
ENDCHAR
STARTCHAR 024C
ENCODING 588
SWIDTH 720 0
DWIDTH 12 0
BBX 12 12 0 0
BITMAP
3FC0
3FE0
3060
3060
3060
FFC0
FF80
3300
3180
30C0
30E0
3070
ENDCHAR
STARTCHAR 024D
ENCODING 589
SWIDTH 420 0
DWIDTH 7 0
BBX 6 9 0 0
BITMAP
6C
7C
60
60
F0
F0
60
60
60
ENDCHAR
STARTCHAR 024E
ENCODING 590
SWIDTH 660 0
DWIDTH 11 0
BBX 10 12 0 0
BITMAP
C0C0
6180
FFC0
FFC0
3300
1E00
1E00
0C00
0C00
0C00
0C00
0C00
ENDCHAR
STARTCHAR 024F
ENCODING 591
SWIDTH 540 0
DWIDTH 9 0
BBX 9 12 0 -3
BITMAP
C180
6300
FF80
FF80
3600
3600
3C00
1C00
1800
1800
F000
F000
ENDCHAR
STARTCHAR 0250
ENCODING 592
SWIDTH 540 0
DWIDTH 9 0
BBX 8 9 0 0
BITMAP
DE
7F
63
67
7E
78
63
7F
3E
ENDCHAR
STARTCHAR 0251
ENCODING 593
SWIDTH 600 0
DWIDTH 10 0
BBX 8 9 1 0
BITMAP
3B
7F
E7
C3
C3
C3
E7
7F
3B
ENDCHAR
STARTCHAR 0252
ENCODING 594
SWIDTH 600 0
DWIDTH 10 0
BBX 8 9 1 0
BITMAP
DC
FE
E7
C3
C3
C3
E7
FE
DC
ENDCHAR
STARTCHAR 0253
ENCODING 595
SWIDTH 600 0
DWIDTH 10 0
BBX 8 12 1 0
BITMAP
70
F0
C0
DC
FE
E7
C3
C3
C3
E7
FE
DC
ENDCHAR
STARTCHAR 0254
ENCODING 596
SWIDTH 540 0
DWIDTH 9 0
BBX 7 9 1 0
BITMAP
78
FC
C6
06
06
06
CE
FC
78
ENDCHAR
STARTCHAR 0255
ENCODING 597
SWIDTH 540 0
DWIDTH 9 0
BBX 8 9 0 0
BITMAP
1E
3F
73
60
6E
7F
73
FF
DE
ENDCHAR
STARTCHAR 0256
ENCODING 598
SWIDTH 600 0
DWIDTH 10 0
BBX 10 15 1 -3
BITMAP
0300
0300
0300
3B00
7F00
E700
C300
C300
C300
E700
7F00
3B00
0300
03C0
01C0
ENDCHAR
STARTCHAR 0257
ENCODING 599
SWIDTH 600 0
DWIDTH 10 0
BBX 10 12 1 0
BITMAP
01C0
03C0
0300
3B00
7F00
E700
C300
C300
C300
E700
7F00
3B00
ENDCHAR
STARTCHAR 0258
ENCODING 600
SWIDTH 540 0
DWIDTH 9 0
BBX 7 9 1 0
BITMAP
38
7C
C6
FE
FE
06
CE
FC
78
ENDCHAR
STARTCHAR 0259
ENCODING 601
SWIDTH 540 0
DWIDTH 9 0
BBX 7 9 1 0
BITMAP
78
FC
CE
06
FE
FE
C6
7C
38
ENDCHAR
STARTCHAR 025A
ENCODING 602
SWIDTH 780 0
DWIDTH 13 0
BBX 12 9 1 0
BITMAP
3C00
7E00
C380
1F80
FFF0
E370
C300
7E00
3C00
ENDCHAR
STARTCHAR 025B
ENCODING 603
SWIDTH 480 0
DWIDTH 8 0
BBX 6 9 1 0
BITMAP
78
FC
CC
60
E0
C0
CC
FC
78
ENDCHAR
STARTCHAR 025C
ENCODING 604
SWIDTH 480 0
DWIDTH 8 0
BBX 6 9 1 0
BITMAP
78
FC
CC
18
1C
0C
CC
FC
78
ENDCHAR
STARTCHAR 025D
ENCODING 605
SWIDTH 720 0
DWIDTH 12 0
BBX 10 9 1 0
BITMAP
7800
FE00
CE00
1BC0
1DC0
0C00
CC00
FC00
7800
ENDCHAR
STARTCHAR 025E
ENCODING 606
SWIDTH 600 0
DWIDTH 10 0
BBX 8 9 1 0
BITMAP
3E
7F
E3
CE
CE
C3
E3
7F
3E
ENDCHAR
STARTCHAR 025F
ENCODING 607
SWIDTH 360 0
DWIDTH 6 0
BBX 6 12 0 -3
BITMAP
30
30
30
30
30
30
30
FC
FC
30
F0
E0
ENDCHAR
STARTCHAR 0260
ENCODING 608
SWIDTH 600 0
DWIDTH 10 0
BBX 10 15 1 -3
BITMAP
01C0
03C0
0300
3B00
7F00
E700
C300
C300
C300
E700
7F00
3B00
C300
FF00
7E00
ENDCHAR
STARTCHAR 0261
ENCODING 609
SWIDTH 600 0
DWIDTH 10 0
BBX 8 12 1 -3
BITMAP
3B
7F
E7
C3
C3
C3
E7
7F
3B
C3
FF
7E
ENDCHAR
STARTCHAR 0262
ENCODING 610
SWIDTH 600 0
DWIDTH 10 0
BBX 8 9 1 0
BITMAP
3C
7E
E3
C0
CF
CF
E3
7F
3E
ENDCHAR
STARTCHAR 0263
ENCODING 611
SWIDTH 540 0
DWIDTH 9 0
BBX 9 12 0 -3
BITMAP
C180
6300
6300
3600
3E00
1C00
1C00
1C00
3600
3600
3E00
1C00
ENDCHAR
STARTCHAR 0264
ENCODING 612
SWIDTH 600 0
DWIDTH 10 0
BBX 10 9 0 0
BITMAP
7380
FFC0
9E40
0C00
1E00
1E00
3300
3F00
1E00
ENDCHAR
STARTCHAR 0265
ENCODING 613
SWIDTH 600 0
DWIDTH 10 0
BBX 8 12 1 -3
BITMAP
C3
C3
C3
C3
C3
C3
C7
FF
7B
03
03
03
ENDCHAR
STARTCHAR 0266
ENCODING 614
SWIDTH 600 0
DWIDTH 10 0
BBX 8 12 1 0
BITMAP
70
F0
C0
DE
FF
E3
C3
C3
C3
C3
C3
C3
ENDCHAR
STARTCHAR 0267
ENCODING 615
SWIDTH 600 0
DWIDTH 10 0
BBX 8 15 1 -3
BITMAP
70
F0
C0
DE
FF
E3
C3
C3
C3
C3
C3
C3
03
0F
0E
ENDCHAR
STARTCHAR 0268
ENCODING 616
SWIDTH 300 0
DWIDTH 5 0
BBX 4 12 0 0
BITMAP
60
60
00
60
60
60
60
F0
60
60
60
60
ENDCHAR
STARTCHAR 0269
ENCODING 617
SWIDTH 300 0
DWIDTH 5 0
BBX 4 9 1 0
BITMAP
C0
C0
C0
C0
C0
C0
C0
F0
70
ENDCHAR
STARTCHAR 026A
ENCODING 618
SWIDTH 420 0
DWIDTH 7 0
BBX 6 9 0 0
BITMAP
FC
FC
30
30
30
30
30
FC
FC
ENDCHAR
STARTCHAR 026B
ENCODING 619
SWIDTH 360 0
DWIDTH 6 0
BBX 6 12 0 0
BITMAP
30
30
30
30
74
B8
30
30
30
30
30
30
ENDCHAR
STARTCHAR 026C
ENCODING 620
SWIDTH 360 0
DWIDTH 6 0
BBX 6 12 0 0
BITMAP
18
18
18
18
18
78
98
7C
18
18
18
18
ENDCHAR
STARTCHAR 026D
ENCODING 621
SWIDTH 300 0
DWIDTH 5 0
BBX 4 15 1 -3
BITMAP
C0
C0
C0
C0
C0
C0
C0
C0
C0
C0
C0
C0
C0
F0
70
ENDCHAR
STARTCHAR 026E
ENCODING 622
SWIDTH 600 0
DWIDTH 10 0
BBX 8 15 1 -3
BITMAP
C0
C0
C0
FF
FF
C6
CC
DE
C7
C3
C3
C3
07
FE
7C
ENDCHAR
STARTCHAR 026F
ENCODING 623
SWIDTH 900 0
DWIDTH 15 0
BBX 12 9 1 0
BITMAP
C630
C630
C630
C630
C630
C630
CE70
FFF0
73B0
ENDCHAR
STARTCHAR 0270
ENCODING 624
SWIDTH 900 0
DWIDTH 15 0
BBX 12 12 1 -3
BITMAP
C630
C630
C630
C630
C630
C630
CE70
FFF0
73B0
0030
0030
0030
ENDCHAR
STARTCHAR 0271
ENCODING 625
SWIDTH 900 0
DWIDTH 15 0
BBX 12 13 1 -4
BITMAP
DCE0
FFF0
E730
C630
C630
C630
C630
C630
C630
0030
0030
00F0
00E0
ENDCHAR
STARTCHAR 0272
ENCODING 626
SWIDTH 600 0
DWIDTH 10 0
BBX 10 12 -1 -3
BITMAP
3780
3FC0
38C0
30C0
30C0
30C0
30C0
30C0
30C0
3000
F000
E000
ENDCHAR
STARTCHAR 0273
ENCODING 627
SWIDTH 600 0
DWIDTH 10 0
BBX 10 12 1 -3
BITMAP
DE00
FF00
E300
C300
C300
C300
C300
C300
C300
0300
03C0
01C0
ENDCHAR
STARTCHAR 0274
ENCODING 628
SWIDTH 600 0
DWIDTH 10 0
BBX 8 9 1 0
BITMAP
C3
E3
F3
F3
DB
CF
CF
C7
C3
ENDCHAR
STARTCHAR 0275
ENCODING 629
SWIDTH 600 0
DWIDTH 10 0
BBX 8 9 1 0
BITMAP
3C
7E
E7
C3
FF
C3
E7
7E
3C
ENDCHAR
STARTCHAR 0276
ENCODING 630
SWIDTH 840 0
DWIDTH 14 0
BBX 12 9 1 0
BITMAP
3FF0
7FF0
E700
C3E0
C3E0
C300
E700
7FF0
3FF0
ENDCHAR
STARTCHAR 0277
ENCODING 631
SWIDTH 840 0
DWIDTH 14 0
BBX 12 9 1 0
BITMAP
1F80
7FE0
6060
C030
C630
C630
C630
7FE0
39C0
ENDCHAR
STARTCHAR 0278
ENCODING 632
SWIDTH 780 0
DWIDTH 13 0
BBX 12 15 0 -3
BITMAP
0600
0600
0600
1FC0
7FE0
E670
C630
C630
C630
E670
7FE0
1F80
0600
0600
0600
ENDCHAR
STARTCHAR 0279
ENCODING 633
SWIDTH 420 0
DWIDTH 7 0
BBX 6 9 0 0
BITMAP
0C
0C
0C
0C
0C
0C
1C
FC
EC
ENDCHAR
STARTCHAR 027A
ENCODING 634
SWIDTH 420 0
DWIDTH 7 0
BBX 6 12 0 0
BITMAP
0C
0C
0C
0C
0C
0C
0C
0C
0C
1C
FC
EC
ENDCHAR
STARTCHAR 027B
ENCODING 635
SWIDTH 420 0
DWIDTH 7 0
BBX 8 12 0 -3
BITMAP
0C
0C
0C
0C
0C
0C
1C
FC
EC
0C
0F
07
ENDCHAR
STARTCHAR 027C
ENCODING 636
SWIDTH 420 0
DWIDTH 7 0
BBX 6 12 1 -3
BITMAP
DC
FC
E0
C0
C0
C0
C0
C0
C0
C0
C0
C0
ENDCHAR
STARTCHAR 027D
ENCODING 637
SWIDTH 420 0
DWIDTH 7 0
BBX 6 12 1 -3
BITMAP
DC
FC
E0
C0
C0
C0
C0
C0
C0
C0
F0
70
ENDCHAR
STARTCHAR 027E
ENCODING 638
SWIDTH 420 0
DWIDTH 7 0
BBX 6 9 1 0
BITMAP
3C
7C
E0
C0
C0
C0
C0
C0
C0
ENDCHAR
STARTCHAR 027F
ENCODING 639
SWIDTH 420 0
DWIDTH 7 0
BBX 6 12 0 -3
BITMAP
F0
F8
1C
0C
0C
0C
0C
0C
0C
0C
0C
0C
ENDCHAR
STARTCHAR 0280
ENCODING 640
SWIDTH 600 0
DWIDTH 10 0
BBX 9 9 1 0
BITMAP
FE00
FF00
C300
C300
FF00
FE00
C600
C300
C380
ENDCHAR
STARTCHAR 0281
ENCODING 641
SWIDTH 600 0
DWIDTH 10 0
BBX 9 9 1 0
BITMAP
C380
C700
C600
FE00
FF00
C300
C300
FF00
FE00
ENDCHAR
STARTCHAR 0282
ENCODING 642
SWIDTH 540 0
DWIDTH 9 0
BBX 7 12 1 -3
BITMAP
7C
FE
C6
F0
7C
0E
C6
FE
FC
C0
F0
70
ENDCHAR
STARTCHAR 0283
ENCODING 643
SWIDTH 360 0
DWIDTH 6 0
BBX 6 15 0 -3
BITMAP
1C
3C
30
30
30
30
30
30
30
30
30
30
30
F0
E0
ENDCHAR
STARTCHAR 0284
ENCODING 644
SWIDTH 360 0
DWIDTH 6 0
BBX 6 15 0 -3
BITMAP
1C
3C
30
30
30
30
30
30
30
30
FC
FC
30
F0
E0
ENDCHAR
STARTCHAR 0285
ENCODING 645
SWIDTH 360 0
DWIDTH 6 0
BBX 6 12 0 -3
BITMAP
E0
F0
30
30
30
30
30
30
30
30
3C
1C
ENDCHAR
STARTCHAR 0286
ENCODING 646
SWIDTH 540 0
DWIDTH 9 0
BBX 9 15 0 -3
BITMAP
0380
0780
0600
0600
0600
0600
0600
0600
0600
0600
7600
FE00
CE00
FE00
7A00
ENDCHAR
STARTCHAR 0287
ENCODING 647
SWIDTH 360 0
DWIDTH 6 0
BBX 6 12 0 0
BITMAP
F0
F8
18
18
18
18
18
FC
FC
18
18
10
ENDCHAR
STARTCHAR 0288
ENCODING 648
SWIDTH 360 0
DWIDTH 6 0
BBX 6 15 0 -3
BITMAP
20
60
60
F8
F8
60
60
60
60
60
60
60
60
7C
3C
ENDCHAR
STARTCHAR 0289
ENCODING 649
SWIDTH 600 0
DWIDTH 10 0
BBX 10 9 0 0
BITMAP
6180
6180
6180
6180
FFC0
6180
6380
7F80
3D80
ENDCHAR
STARTCHAR 028A
ENCODING 650
SWIDTH 660 0
DWIDTH 11 0
BBX 9 9 1 0
BITMAP
E380
E380
6300
C180
C180
C180
E380
7F00
3E00
ENDCHAR
STARTCHAR 028B
ENCODING 651
SWIDTH 600 0
DWIDTH 10 0
BBX 8 9 1 0
BITMAP
CE
CF
C3
C3
C3
C3
C6
7E
3C
ENDCHAR
STARTCHAR 028C
ENCODING 652
SWIDTH 540 0
DWIDTH 9 0
BBX 9 9 0 0
BITMAP
1C00
1C00
3600
3600
3600
6300
6300
6300
C180
ENDCHAR
STARTCHAR 028D
ENCODING 653
SWIDTH 780 0
DWIDTH 13 0
BBX 13 9 0 0
BITMAP
18C0
38C0
3DE0
3DE0
6DA0
6530
6730
E730
C218
ENDCHAR
STARTCHAR 028E
ENCODING 654
SWIDTH 540 0
DWIDTH 9 0
BBX 9 12 0 0
BITMAP
0600
0C00
0C00
1800
1C00
1C00
3600
3600
7700
6300
6300
C180
ENDCHAR
STARTCHAR 028F
ENCODING 655
SWIDTH 600 0
DWIDTH 10 0
BBX 10 9 0 0
BITMAP
E1C0
7380
3300
1E00
1E00
0C00
0C00
0C00
0C00
ENDCHAR
STARTCHAR 0290
ENCODING 656
SWIDTH 540 0
DWIDTH 9 0
BBX 9 12 1 -3
BITMAP
FE00
FE00
0C00
1800
3800
3000
6000
FE00
FE00
0600
0780
0380
ENDCHAR
STARTCHAR 0291
ENCODING 657
SWIDTH 720 0
DWIDTH 12 0
BBX 12 11 0 -2
BITMAP
FF00
FF00
0600
0C00
19E0
33F0
6630
FFF0
FFE0
1800
0800
ENDCHAR
STARTCHAR 0292
ENCODING 658
SWIDTH 540 0
DWIDTH 9 0
BBX 8 12 0 -3
BITMAP
7F
7F
06
0C
1E
07
03
03
C3
E7
7E
3C
ENDCHAR
STARTCHAR 0293
ENCODING 659
SWIDTH 540 0
DWIDTH 9 0
BBX 8 12 0 -3
BITMAP
7F
7F
06
0C
1E
07
03
7B
FF
C7
FF
7A
ENDCHAR
STARTCHAR 0294
ENCODING 660
SWIDTH 540 0
DWIDTH 9 0
BBX 7 12 1 0
BITMAP
78
FC
C6
06
06
06
0E
3C
38
30
30
30
ENDCHAR
STARTCHAR 0295
ENCODING 661
SWIDTH 540 0
DWIDTH 9 0
BBX 7 12 1 0
BITMAP
3C
7E
C6
C0
C0
C0
E0
78
38
18
18
18
ENDCHAR
STARTCHAR 0296
ENCODING 662
SWIDTH 540 0
DWIDTH 9 0
BBX 7 12 1 0
BITMAP
30
30
30
38
3C
0E
06
06
06
C6
FC
78
ENDCHAR
STARTCHAR 0297
ENCODING 663
SWIDTH 540 0
DWIDTH 9 0
BBX 7 12 1 -3
BITMAP
38
7C
E6
C6
C0
C0
C0
C0
C6
E6
7C
38
ENDCHAR
STARTCHAR 0298
ENCODING 664
SWIDTH 780 0
DWIDTH 13 0
BBX 11 12 1 0
BITMAP
1F00
7FC0
60C0
C060
C060
CC60
CC60
C060
C060
60C0
7FC0
1F00
ENDCHAR
STARTCHAR 0299
ENCODING 665
SWIDTH 600 0
DWIDTH 10 0
BBX 8 9 1 0
BITMAP
FE
FF
C3
FE
FE
C3
C3
FF
FE
ENDCHAR
STARTCHAR 029A
ENCODING 666
SWIDTH 600 0
DWIDTH 10 0
BBX 8 9 1 0
BITMAP
7C
FE
C7
73
73
C3
C7
FE
7C
ENDCHAR
STARTCHAR 029B
ENCODING 667
SWIDTH 600 0
DWIDTH 10 0
BBX 10 11 1 0
BITMAP
01C0
03C0
3F00
7F00
E300
C000
CF00
CF00
E300
7F00
3E00
ENDCHAR
STARTCHAR 029C
ENCODING 668
SWIDTH 600 0
DWIDTH 10 0
BBX 8 9 1 0
BITMAP
C3
C3
C3
FF
FF
C3
C3
C3
C3
ENDCHAR
STARTCHAR 029D
ENCODING 669
SWIDTH 480 0
DWIDTH 8 0
BBX 8 15 0 -3
BITMAP
0C
0C
00
0C
0C
0C
0C
0C
0C
0C
7F
FF
CC
FC
78
ENDCHAR
STARTCHAR 029E
ENCODING 670
SWIDTH 540 0
DWIDTH 9 0
BBX 8 12 0 -3
BITMAP
C3
63
33
37
1F
1B
33
63
C3
03
03
03
ENDCHAR
STARTCHAR 029F
ENCODING 671
SWIDTH 480 0
DWIDTH 8 0
BBX 6 9 1 0
BITMAP
C0
C0
C0
C0
C0
C0
C0
FC
FC
ENDCHAR
STARTCHAR 02A0
ENCODING 672
SWIDTH 600 0
DWIDTH 10 0
BBX 10 15 1 -3
BITMAP
01C0
03C0
0300
3B00
7F00
E700
C300
C300
C300
E700
7F00
3B00
0300
0300
0300
ENDCHAR
STARTCHAR 02A1
ENCODING 673
SWIDTH 540 0
DWIDTH 9 0
BBX 7 12 1 0
BITMAP
78
FC
C6
06
06
06
0E
3C
38
30
FE
30
ENDCHAR
STARTCHAR 02A2
ENCODING 674
SWIDTH 540 0
DWIDTH 9 0
BBX 7 12 1 0
BITMAP
3C
7E
C6
C0
C0
C0
E0
78
38
18
FE
18
ENDCHAR
STARTCHAR 02A3
ENCODING 675
SWIDTH 1080 0
DWIDTH 18 0
BBX 16 12 1 0
BITMAP
0300
0300
0300
3BFF
7FFF
E706
C30C
C318
C330
E760
7FFF
3BFF
ENDCHAR
STARTCHAR 02A4
ENCODING 676
SWIDTH 960 0
DWIDTH 16 0
BBX 14 15 1 -3
BITMAP
0300
0300
0300
3BFC
7FFC
E718
C330
C378
C31C
E70C
7F0C
3B0C
001C
03F8
01F0
ENDCHAR
STARTCHAR 02A5
ENCODING 677
SWIDTH 1260 0
DWIDTH 21 0
BBX 20 14 1 -2
BITMAP
030000
030000
030000
3BFF00
7FFF00
E70600
C30C00
C319E0
C333F0
E76630
7FFFF0
3BFFE0
001800
000800
ENDCHAR
STARTCHAR 02A6
ENCODING 678
SWIDTH 840 0
DWIDTH 14 0
BBX 13 12 0 0
BITMAP
2000
6000
6000
FFF0
FFF8
6318
63C0
61F0
6078
6018
7FF8
3FF0
ENDCHAR
STARTCHAR 02A7
ENCODING 679
SWIDTH 540 0
DWIDTH 9 0
BBX 9 15 0 -3
BITMAP
2380
6780
6600
FE00
FE00
6600
6600
6600
6600
6600
7E00
3E00
0600
1E00
1C00
ENDCHAR
STARTCHAR 02A8
ENCODING 680
SWIDTH 840 0
DWIDTH 14 0
BBX 13 12 0 0
BITMAP
2000
6000
6000
F8F0
F9F8
6398
6300
6370
63F8
6398
7FF8
3CF0
ENDCHAR
STARTCHAR 02A9
ENCODING 681
SWIDTH 900 0
DWIDTH 15 0
BBX 14 15 0 -3
BITMAP
3800
7800
6000
FF78
FFFC
638C
630C
630C
630C
630C
630C
630C
000C
003C
0038
ENDCHAR
STARTCHAR 02AA
ENCODING 682
SWIDTH 780 0
DWIDTH 13 0
BBX 11 12 1 0
BITMAP
C000
C000
C000
C7C0
CFE0
CC60
CF00
C7C0
C0E0
E060
FFE0
DFC0
ENDCHAR
STARTCHAR 02AB
ENCODING 683
SWIDTH 720 0
DWIDTH 12 0
BBX 10 12 1 0
BITMAP
C000
C000
C000
FFC0
FFC0
C180
C300
C600
CC00
D800
FFC0
FFC0
ENDCHAR
STARTCHAR 02AC
ENCODING 684
SWIDTH 540 0
DWIDTH 9 0
BBX 9 12 0 0
BITMAP
C980
5D00
5500
7700
3600
0000
0000
C980
5D00
5500
7700
3600
ENDCHAR
STARTCHAR 02AD
ENCODING 685
SWIDTH 600 0
DWIDTH 10 0
BBX 8 12 1 0
BITMAP
FF
FF
C3
C3
00
00
00
00
FF
FF
C3
C3
ENDCHAR
STARTCHAR 02AE
ENCODING 686
SWIDTH 720 0
DWIDTH 12 0
BBX 11 12 0 -3
BITMAP
E060
F060
1860
1860
1860
1860
18E0
1FE0
0F60
0060
0060
0060
ENDCHAR
STARTCHAR 02AF
ENCODING 687
SWIDTH 720 0
DWIDTH 12 0
BBX 14 12 0 -3
BITMAP
E060
F060
1860
1860
1860
1860
18E0
1FE0
0F60
0060
007C
003C
ENDCHAR
STARTCHAR 02B0
ENCODING 688
SWIDTH 360 0
DWIDTH 6 0
BBX 5 8 0 4
BITMAP
C0
C0
F0
D8
D8
D8
D8
D8
ENDCHAR
STARTCHAR 02B1
ENCODING 689
SWIDTH 360 0
DWIDTH 6 0
BBX 5 8 0 4
BITMAP
70
C0
F0
D8
D8
D8
D8
D8
ENDCHAR
STARTCHAR 02B2
ENCODING 690
SWIDTH 180 0
DWIDTH 3 0
BBX 3 10 -1 2
BITMAP
60
00
60
60
60
60
60
60
60
C0
ENDCHAR
STARTCHAR 02B3
ENCODING 691
SWIDTH 240 0
DWIDTH 4 0
BBX 4 6 0 4
BITMAP
F0
C0
C0
C0
C0
C0
ENDCHAR
STARTCHAR 02B4
ENCODING 692
SWIDTH 240 0
DWIDTH 4 0
BBX 4 6 -1 4
BITMAP
30
30
30
30
30
F0
ENDCHAR
STARTCHAR 02B5
ENCODING 693
SWIDTH 240 0
DWIDTH 4 0
BBX 5 8 -1 2
BITMAP
30
30
30
30
30
F0
30
18
ENDCHAR
STARTCHAR 02B6
ENCODING 694
SWIDTH 360 0
DWIDTH 6 0
BBX 6 6 0 4
BITMAP
CC
D8
F0
D8
D8
F0
ENDCHAR
STARTCHAR 02B7
ENCODING 695
SWIDTH 540 0
DWIDTH 9 0
BBX 8 6 0 4
BITMAP
DB
DB
5A
7E
66
24
ENDCHAR
STARTCHAR 02B8
ENCODING 696
SWIDTH 360 0
DWIDTH 6 0
BBX 5 8 0 2
BITMAP
D8
D8
50
70
70
20
60
C0
ENDCHAR
STARTCHAR 02B9
ENCODING 697
SWIDTH 240 0
DWIDTH 4 0
BBX 2 4 1 8
BITMAP
C0
C0
C0
C0
ENDCHAR
STARTCHAR 02BA
ENCODING 698
SWIDTH 480 0
DWIDTH 8 0
BBX 6 4 1 8
BITMAP
CC
CC
CC
CC
ENDCHAR
STARTCHAR 02BB
ENCODING 699
SWIDTH 300 0
DWIDTH 5 0
BBX 2 5 1 7
BITMAP
40
80
80
C0
C0
ENDCHAR
STARTCHAR 02BC
ENCODING 700
SWIDTH 300 0
DWIDTH 5 0
BBX 2 5 1 7
BITMAP
C0
C0
40
40
80
ENDCHAR
STARTCHAR 02BD
ENCODING 701
SWIDTH 300 0
DWIDTH 5 0
BBX 2 5 1 7
BITMAP
C0
C0
80
80
40
ENDCHAR
STARTCHAR 02BE
ENCODING 702
SWIDTH 360 0
DWIDTH 6 0
BBX 2 3 2 10
BITMAP
80
40
80
ENDCHAR
STARTCHAR 02BF
ENCODING 703
SWIDTH 360 0
DWIDTH 6 0
BBX 2 3 2 10
BITMAP
40
80
40
ENDCHAR
STARTCHAR 02C0
ENCODING 704
SWIDTH 360 0
DWIDTH 6 0
BBX 5 8 0 4
BITMAP
70
D8
18
18
18
70
60
60
ENDCHAR
STARTCHAR 02C1
ENCODING 705
SWIDTH 360 0
DWIDTH 6 0
BBX 5 8 0 4
BITMAP
70
D8
C0
C0
C0
70
30
30
ENDCHAR
STARTCHAR 02C2
ENCODING 706
SWIDTH 600 0
DWIDTH 10 0
BBX 8 9 0 1
BITMAP
01
07
1E
78
E0
78
1E
07
01
ENDCHAR
STARTCHAR 02C3
ENCODING 707
SWIDTH 600 0
DWIDTH 10 0
BBX 8 9 0 1
BITMAP
80
E0
78
1E
07
1E
78
E0
80
ENDCHAR
STARTCHAR 02C4
ENCODING 708
SWIDTH 600 0
DWIDTH 10 0
BBX 9 8 0 2
BITMAP
0800
1C00
1C00
3600
3600
6300
6300
C180
ENDCHAR
STARTCHAR 02C5
ENCODING 709
SWIDTH 600 0
DWIDTH 10 0
BBX 9 8 0 2
BITMAP
C180
6300
6300
3600
3600
1C00
1C00
0800
ENDCHAR
STARTCHAR 02C6
ENCODING 710
SWIDTH 360 0
DWIDTH 6 0
BBX 5 2 0 10
BITMAP
70
D8
ENDCHAR
STARTCHAR 02C7
ENCODING 711
SWIDTH 360 0
DWIDTH 6 0
BBX 5 2 0 10
BITMAP
D8
70
ENDCHAR
STARTCHAR 02C8
ENCODING 712
SWIDTH 360 0
DWIDTH 6 0
BBX 1 3 3 10
BITMAP
80
80
80
ENDCHAR
STARTCHAR 02C9
ENCODING 713
SWIDTH 360 0
DWIDTH 6 0
BBX 6 2 0 10
BITMAP
FC
FC
ENDCHAR
STARTCHAR 02CA
ENCODING 714
SWIDTH 360 0
DWIDTH 6 0
BBX 3 2 2 10
BITMAP
60
C0
ENDCHAR
STARTCHAR 02CB
ENCODING 715
SWIDTH 360 0
DWIDTH 6 0
BBX 3 2 1 10
BITMAP
C0
60
ENDCHAR
STARTCHAR 02CC
ENCODING 716
SWIDTH 360 0
DWIDTH 6 0
BBX 1 3 3 -4
BITMAP
80
80
80
ENDCHAR
STARTCHAR 02CD
ENCODING 717
SWIDTH 360 0
DWIDTH 6 0
BBX 6 2 0 -3
BITMAP
FC
FC
ENDCHAR
STARTCHAR 02CE
ENCODING 718
SWIDTH 360 0
DWIDTH 6 0
BBX 3 2 1 -3
BITMAP
C0
60
ENDCHAR
STARTCHAR 02CF
ENCODING 719
SWIDTH 360 0
DWIDTH 6 0
BBX 3 2 2 -3
BITMAP
60
C0
ENDCHAR
STARTCHAR 02D0
ENCODING 720
SWIDTH 360 0
DWIDTH 6 0
BBX 2 9 2 0
BITMAP
C0
C0
00
00
00
00
00
C0
C0
ENDCHAR
STARTCHAR 02D1
ENCODING 721
SWIDTH 360 0
DWIDTH 6 0
BBX 2 2 2 7
BITMAP
C0
C0
ENDCHAR
STARTCHAR 02D2
ENCODING 722
SWIDTH 360 0
DWIDTH 6 0
BBX 2 3 2 1
BITMAP
80
40
80
ENDCHAR
STARTCHAR 02D3
ENCODING 723
SWIDTH 360 0
DWIDTH 6 0
BBX 2 3 2 1
BITMAP
40
80
40
ENDCHAR
STARTCHAR 02D4
ENCODING 724
SWIDTH 360 0
DWIDTH 6 0
BBX 3 3 1 1
BITMAP
40
40
E0
ENDCHAR
STARTCHAR 02D5
ENCODING 725
SWIDTH 360 0
DWIDTH 6 0
BBX 3 3 1 1
BITMAP
E0
40
40
ENDCHAR
STARTCHAR 02D6
ENCODING 726
SWIDTH 360 0
DWIDTH 6 0
BBX 3 3 1 1
BITMAP
40
E0
40
ENDCHAR
STARTCHAR 02D7
ENCODING 727
SWIDTH 360 0
DWIDTH 6 0
BBX 6 2 0 2
BITMAP
FC
FC
ENDCHAR
STARTCHAR 02D8
ENCODING 728
SWIDTH 300 0
DWIDTH 5 0
BBX 5 2 0 10
BITMAP
88
70
ENDCHAR
STARTCHAR 02D9
ENCODING 729
SWIDTH 360 0
DWIDTH 6 0
BBX 2 2 2 10
BITMAP
C0
C0
ENDCHAR
STARTCHAR 02DA
ENCODING 730
SWIDTH 360 0
DWIDTH 6 0
BBX 4 4 1 8
BITMAP
60
90
90
60
ENDCHAR
STARTCHAR 02DB
ENCODING 731
SWIDTH 360 0
DWIDTH 6 0
BBX 3 3 0 -3
BITMAP
40
C0
E0
ENDCHAR
STARTCHAR 02DC
ENCODING 732
SWIDTH 360 0
DWIDTH 6 0
BBX 6 2 0 10
BITMAP
E4
9C
ENDCHAR
STARTCHAR 02DD
ENCODING 733
SWIDTH 360 0
DWIDTH 6 0
BBX 6 2 1 10
BITMAP
6C
D8
ENDCHAR
STARTCHAR 02DE
ENCODING 734
SWIDTH 360 0
DWIDTH 6 0
BBX 5 4 0 3
BITMAP
C0
C0
78
38
ENDCHAR
STARTCHAR 02DF
ENCODING 735
SWIDTH 360 0
DWIDTH 6 0
BBX 6 6 0 6
BITMAP
84
48
30
30
48
84
ENDCHAR
STARTCHAR 02E0
ENCODING 736
SWIDTH 360 0
DWIDTH 6 0
BBX 5 8 0 2
BITMAP
D8
50
70
70
20
70
50
70
ENDCHAR
STARTCHAR 02E1
ENCODING 737
SWIDTH 120 0
DWIDTH 2 0
BBX 2 8 0 4
BITMAP
C0
C0
C0
C0
C0
C0
C0
C0
ENDCHAR
STARTCHAR 02E2
ENCODING 738
SWIDTH 360 0
DWIDTH 6 0
BBX 5 6 0 4
BITMAP
70
D8
E0
38
D8
70
ENDCHAR
STARTCHAR 02E3
ENCODING 739
SWIDTH 360 0
DWIDTH 6 0
BBX 5 6 0 4
BITMAP
D8
50
60
30
50
D8
ENDCHAR
STARTCHAR 02E4
ENCODING 740
SWIDTH 360 0
DWIDTH 6 0
BBX 5 8 0 4
BITMAP
70
D8
C0
C0
C0
70
30
30
ENDCHAR
STARTCHAR 02E5
ENCODING 741
SWIDTH 420 0
DWIDTH 7 0
BBX 5 12 1 0
BITMAP
F8
08
08
08
08
08
08
08
08
08
08
08
ENDCHAR
STARTCHAR 02E6
ENCODING 742
SWIDTH 420 0
DWIDTH 7 0
BBX 5 12 1 0
BITMAP
08
08
08
F8
08
08
08
08
08
08
08
08
ENDCHAR
STARTCHAR 02E7
ENCODING 743
SWIDTH 420 0
DWIDTH 7 0
BBX 5 12 1 0
BITMAP
08
08
08
08
08
08
F8
08
08
08
08
08
ENDCHAR
STARTCHAR 02E8
ENCODING 744
SWIDTH 420 0
DWIDTH 7 0
BBX 5 12 1 0
BITMAP
08
08
08
08
08
08
08
08
F8
08
08
08
ENDCHAR
STARTCHAR 02E9
ENCODING 745
SWIDTH 420 0
DWIDTH 7 0
BBX 5 12 1 0
BITMAP
08
08
08
08
08
08
08
08
08
08
08
F8
ENDCHAR
STARTCHAR 02EA
ENCODING 746
SWIDTH 360 0
DWIDTH 6 0
BBX 4 7 1 0
BITMAP
80
80
80
80
80
80
F0
ENDCHAR
STARTCHAR 02EB
ENCODING 747
SWIDTH 360 0
DWIDTH 6 0
BBX 4 7 1 0
BITMAP
80
80
80
F0
80
80
80
ENDCHAR
STARTCHAR 02EC
ENCODING 748
SWIDTH 360 0
DWIDTH 6 0
BBX 5 2 0 -3
BITMAP
D8
70
ENDCHAR
STARTCHAR 02ED
ENCODING 749
SWIDTH 360 0
DWIDTH 6 0
BBX 6 3 0 10
BITMAP
FC
00
FC
ENDCHAR
STARTCHAR 02EE
ENCODING 750
SWIDTH 540 0
DWIDTH 9 0
BBX 6 5 2 7
BITMAP
CC
CC
44
44
88
ENDCHAR
STARTCHAR 02EF
ENCODING 751
SWIDTH 360 0
DWIDTH 6 0
BBX 3 2 1 -3
BITMAP
A0
40
ENDCHAR
STARTCHAR 02F0
ENCODING 752
SWIDTH 360 0
DWIDTH 6 0
BBX 3 2 1 -3
BITMAP
40
A0
ENDCHAR
STARTCHAR 02F1
ENCODING 753
SWIDTH 360 0
DWIDTH 6 0
BBX 2 3 2 -3
BITMAP
40
80
40
ENDCHAR
STARTCHAR 02F2
ENCODING 754
SWIDTH 360 0
DWIDTH 6 0
BBX 2 3 2 -3
BITMAP
80
40
80
ENDCHAR
STARTCHAR 02F3
ENCODING 755
SWIDTH 360 0
DWIDTH 6 0
BBX 4 4 1 -4
BITMAP
60
90
90
60
ENDCHAR
STARTCHAR 02F4
ENCODING 756
SWIDTH 360 0
DWIDTH 6 0
BBX 3 2 1 1
BITMAP
C0
60
ENDCHAR
STARTCHAR 02F5
ENCODING 757
SWIDTH 360 0
DWIDTH 6 0
BBX 6 2 0 1
BITMAP
D8
6C
ENDCHAR
STARTCHAR 02F6
ENCODING 758
SWIDTH 360 0
DWIDTH 6 0
BBX 6 2 0 1
BITMAP
6C
D8
ENDCHAR
STARTCHAR 02F7
ENCODING 759
SWIDTH 360 0
DWIDTH 6 0
BBX 6 2 0 -3
BITMAP
E4
9C
ENDCHAR
STARTCHAR 02F8
ENCODING 760
SWIDTH 360 0
DWIDTH 6 0
BBX 2 9 2 3
BITMAP
C0
C0
00
00
00
00
00
C0
C0
ENDCHAR
STARTCHAR 02F9
ENCODING 761
SWIDTH 360 0
DWIDTH 6 0
BBX 3 3 1 9
BITMAP
E0
80
80
ENDCHAR
STARTCHAR 02FA
ENCODING 762
SWIDTH 360 0
DWIDTH 6 0
BBX 3 3 2 9
BITMAP
E0
20
20
ENDCHAR
STARTCHAR 02FB
ENCODING 763
SWIDTH 360 0
DWIDTH 6 0
BBX 3 3 1 -4
BITMAP
80
80
E0
ENDCHAR
STARTCHAR 02FC
ENCODING 764
SWIDTH 360 0
DWIDTH 6 0
BBX 3 3 2 -4
BITMAP
20
20
E0
ENDCHAR
STARTCHAR 02FD
ENCODING 765
SWIDTH 420 0
DWIDTH 7 0
BBX 6 3 0 -4
BITMAP
84
84
FC
ENDCHAR
STARTCHAR 02FE
ENCODING 766
SWIDTH 420 0
DWIDTH 7 0
BBX 6 3 0 -4
BITMAP
80
80
FC
ENDCHAR
STARTCHAR 02FF
ENCODING 767
SWIDTH 360 0
DWIDTH 6 0
BBX 5 5 0 -4
BITMAP
40
80
F8
80
40
ENDCHAR
STARTCHAR 0300
ENCODING 768
SWIDTH 0 0
DWIDTH 0 0
BBX 3 2 -5 13
BITMAP
C0
60
ENDCHAR
STARTCHAR 0301
ENCODING 769
SWIDTH 0 0
DWIDTH 0 0
BBX 3 2 -3 13
BITMAP
60
C0
ENDCHAR
STARTCHAR 0302
ENCODING 770
SWIDTH 0 0
DWIDTH 0 0
BBX 5 2 -3 10
BITMAP
70
D8
ENDCHAR
STARTCHAR 0303
ENCODING 771
SWIDTH 0 0
DWIDTH 0 0
BBX 6 2 -7 13
BITMAP
64
98
ENDCHAR
STARTCHAR 0304
ENCODING 772
SWIDTH 0 0
DWIDTH 0 0
BBX 5 2 -3 10
BITMAP
F8
F8
ENDCHAR
STARTCHAR 0305
ENCODING 773
SWIDTH 0 0
DWIDTH 0 0
BBX 10 2 -5 13
BITMAP
FFC0
FFC0
ENDCHAR
STARTCHAR 0306
ENCODING 774
SWIDTH 0 0
DWIDTH 0 0
BBX 5 2 -2 10
BITMAP
88
70
ENDCHAR
STARTCHAR 0307
ENCODING 775
SWIDTH 0 0
DWIDTH 0 0
BBX 2 2 -1 10
BITMAP
C0
C0
ENDCHAR
STARTCHAR 0308
ENCODING 776
SWIDTH 0 0
DWIDTH 0 0
BBX 6 2 -3 10
BITMAP
CC
CC
ENDCHAR
STARTCHAR 0309
ENCODING 777
SWIDTH 0 0
DWIDTH 0 0
BBX 3 2 -4 13
BITMAP
E0
40
ENDCHAR
STARTCHAR 030A
ENCODING 778
SWIDTH 0 0
DWIDTH 0 0
BBX 4 4 -2 10
BITMAP
60
90
90
60
ENDCHAR
STARTCHAR 030B
ENCODING 779
SWIDTH 0 0
DWIDTH 0 0
BBX 6 2 -3 10
BITMAP
6C
D8
ENDCHAR
STARTCHAR 030C
ENCODING 780
SWIDTH 0 0
DWIDTH 0 0
BBX 5 2 -3 10
BITMAP
D8
70
ENDCHAR
STARTCHAR 030D
ENCODING 781
SWIDTH 0 0
DWIDTH 0 0
BBX 1 3 0 10
BITMAP
80
80
80
ENDCHAR
STARTCHAR 030E
ENCODING 782
SWIDTH 0 0
DWIDTH 0 0
BBX 3 3 -2 10
BITMAP
A0
A0
A0
ENDCHAR
STARTCHAR 030F
ENCODING 783
SWIDTH 0 0
DWIDTH 0 0
BBX 6 2 -3 10
BITMAP
D8
6C
ENDCHAR
STARTCHAR 0310
ENCODING 784
SWIDTH 0 0
DWIDTH 0 0
BBX 5 4 -2 10
BITMAP
30
30
88
70
ENDCHAR
STARTCHAR 0311
ENCODING 785
SWIDTH 0 0
DWIDTH 0 0
BBX 5 2 -2 10
BITMAP
70
88
ENDCHAR
STARTCHAR 0312
ENCODING 786
SWIDTH 0 0
DWIDTH 0 0
BBX 2 5 -1 7
BITMAP
40
80
80
C0
C0
ENDCHAR
STARTCHAR 0313
ENCODING 787
SWIDTH 0 0
DWIDTH 0 0
BBX 2 5 -1 7
BITMAP
C0
C0
40
40
80
ENDCHAR
STARTCHAR 0314
ENCODING 788
SWIDTH 0 0
DWIDTH 0 0
BBX 2 5 -1 7
BITMAP
C0
C0
80
80
40
ENDCHAR
STARTCHAR 0315
ENCODING 789
SWIDTH 0 0
DWIDTH 0 0
BBX 2 5 0 7
BITMAP
C0
C0
40
40
80
ENDCHAR
STARTCHAR 0316
ENCODING 790
SWIDTH 0 0
DWIDTH 0 0
BBX 3 2 -2 -3
BITMAP
C0
60
ENDCHAR
STARTCHAR 0317
ENCODING 791
SWIDTH 0 0
DWIDTH 0 0
BBX 3 2 -1 -3
BITMAP
60
C0
ENDCHAR
STARTCHAR 0318
ENCODING 792
SWIDTH 0 0
DWIDTH 0 0
BBX 3 3 -2 -4
BITMAP
20
E0
20
ENDCHAR
STARTCHAR 0319
ENCODING 793
SWIDTH 0 0
DWIDTH 0 0
BBX 3 3 -1 -4
BITMAP
80
E0
80
ENDCHAR
STARTCHAR 031A
ENCODING 794
SWIDTH 0 0
DWIDTH 0 0
BBX 6 4 -3 10
BITMAP
FC
04
04
04
ENDCHAR
STARTCHAR 031B
ENCODING 795
SWIDTH 0 0
DWIDTH 0 0
BBX 3 5 0 7
BITMAP
60
60
20
60
C0
ENDCHAR
STARTCHAR 031C
ENCODING 796
SWIDTH 0 0
DWIDTH 0 0
BBX 2 3 -1 -4
BITMAP
40
80
40
ENDCHAR
STARTCHAR 031D
ENCODING 797
SWIDTH 0 0
DWIDTH 0 0
BBX 3 3 -1 -4
BITMAP
40
40
E0
ENDCHAR
STARTCHAR 031E
ENCODING 798
SWIDTH 0 0
DWIDTH 0 0
BBX 3 3 -1 -4
BITMAP
E0
40
40
ENDCHAR
STARTCHAR 031F
ENCODING 799
SWIDTH 0 0
DWIDTH 0 0
BBX 3 3 -1 -4
BITMAP
40
E0
40
ENDCHAR
STARTCHAR 0320
ENCODING 800
SWIDTH 0 0
DWIDTH 0 0
BBX 5 2 -3 -3
BITMAP
F8
F8
ENDCHAR
STARTCHAR 0321
ENCODING 801
SWIDTH 0 0
DWIDTH 0 0
BBX 4 4 -2 -3
BITMAP
30
30
F0
E0
ENDCHAR
STARTCHAR 0322
ENCODING 802
SWIDTH 0 0
DWIDTH 0 0
BBX 4 4 0 -3
BITMAP
C0
C0
F0
70
ENDCHAR
STARTCHAR 0323
ENCODING 803
SWIDTH 0 0
DWIDTH 0 0
BBX 2 2 -7 -3
BITMAP
C0
C0
ENDCHAR
STARTCHAR 0324
ENCODING 804
SWIDTH 0 0
DWIDTH 0 0
BBX 6 2 -3 -3
BITMAP
CC
CC
ENDCHAR
STARTCHAR 0325
ENCODING 805
SWIDTH 0 0
DWIDTH 0 0
BBX 4 4 -2 -4
BITMAP
60
90
90
60
ENDCHAR
STARTCHAR 0326
ENCODING 806
SWIDTH 0 0
DWIDTH 0 0
BBX 2 3 -1 -4
BITMAP
C0
40
80
ENDCHAR
STARTCHAR 0327
ENCODING 807
SWIDTH 0 0
DWIDTH 0 0
BBX 4 3 -2 -3
BITMAP
70
30
E0
ENDCHAR
STARTCHAR 0328
ENCODING 808
SWIDTH 0 0
DWIDTH 0 0
BBX 3 3 -2 -3
BITMAP
40
C0
E0
ENDCHAR
STARTCHAR 0329
ENCODING 809
SWIDTH 0 0
DWIDTH 0 0
BBX 1 3 0 -4
BITMAP
80
80
80
ENDCHAR
STARTCHAR 032A
ENCODING 810
SWIDTH 0 0
DWIDTH 0 0
BBX 6 3 -3 -4
BITMAP
FC
84
84
ENDCHAR
STARTCHAR 032B
ENCODING 811
SWIDTH 0 0
DWIDTH 0 0
BBX 5 2 -2 -3
BITMAP
A8
50
ENDCHAR
STARTCHAR 032C
ENCODING 812
SWIDTH 0 0
DWIDTH 0 0
BBX 5 2 -3 -3
BITMAP
D8
70
ENDCHAR
STARTCHAR 032D
ENCODING 813
SWIDTH 0 0
DWIDTH 0 0
BBX 5 2 -3 -3
BITMAP
70
D8
ENDCHAR
STARTCHAR 032E
ENCODING 814
SWIDTH 0 0
DWIDTH 0 0
BBX 5 2 -2 -3
BITMAP
88
70
ENDCHAR
STARTCHAR 032F
ENCODING 815
SWIDTH 0 0
DWIDTH 0 0
BBX 5 2 -2 -3
BITMAP
70
88
ENDCHAR
STARTCHAR 0330
ENCODING 816
SWIDTH 0 0
DWIDTH 0 0
BBX 6 2 -3 -3
BITMAP
E4
9C
ENDCHAR
STARTCHAR 0331
ENCODING 817
SWIDTH 0 0
DWIDTH 0 0
BBX 5 2 -3 -3
BITMAP
F8
F8
ENDCHAR
STARTCHAR 0332
ENCODING 818
SWIDTH 0 0
DWIDTH 0 0
BBX 10 2 -5 -3
BITMAP
FFC0
FFC0
ENDCHAR
STARTCHAR 0333
ENCODING 819
SWIDTH 0 0
DWIDTH 0 0
BBX 5 5 -3 -6
BITMAP
F8
F8
00
F8
F8
ENDCHAR
STARTCHAR 0334
ENCODING 820
SWIDTH 0 0
DWIDTH 0 0
BBX 6 2 -3 2
BITMAP
E4
9C
ENDCHAR
STARTCHAR 0335
ENCODING 821
SWIDTH 0 0
DWIDTH 0 0
BBX 5 2 -3 2
BITMAP
F8
F8
ENDCHAR
STARTCHAR 0336
ENCODING 822
SWIDTH 0 0
DWIDTH 0 0
BBX 10 2 -5 2
BITMAP
FFC0
FFC0
ENDCHAR
STARTCHAR 0337
ENCODING 823
SWIDTH 0 0
DWIDTH 0 0
BBX 8 9 -4 0
BITMAP
02
03
06
0C
18
30
60
C0
40
ENDCHAR
STARTCHAR 0338
ENCODING 824
SWIDTH 0 0
DWIDTH 0 0
BBX 5 12 -2 0
BITMAP
18
18
30
30
30
30
60
60
60
60
C0
C0
ENDCHAR
STARTCHAR 0339
ENCODING 825
SWIDTH 0 0
DWIDTH 0 0
BBX 2 3 -1 -4
BITMAP
80
40
80
ENDCHAR
STARTCHAR 033A
ENCODING 826
SWIDTH 0 0
DWIDTH 0 0
BBX 6 3 -3 -4
BITMAP
84
84
FC
ENDCHAR
STARTCHAR 033B
ENCODING 827
SWIDTH 0 0
DWIDTH 0 0
BBX 3 3 -2 -4
BITMAP
E0
A0
E0
ENDCHAR
STARTCHAR 033C
ENCODING 828
SWIDTH 0 0
DWIDTH 0 0
BBX 5 2 -3 -3
BITMAP
50
A8
ENDCHAR
STARTCHAR 033D
ENCODING 829
SWIDTH 0 0
DWIDTH 0 0
BBX 4 4 -2 10
BITMAP
90
60
60
90
ENDCHAR
STARTCHAR 033E
ENCODING 830
SWIDTH 0 0
DWIDTH 0 0
BBX 2 4 -1 10
BITMAP
C0
80
40
C0
ENDCHAR
STARTCHAR 033F
ENCODING 831
SWIDTH 0 0
DWIDTH 0 0
BBX 10 2 -5 13
BITMAP
FFC0
FFC0
ENDCHAR
STARTCHAR 0340
ENCODING 832
SWIDTH 0 0
DWIDTH 0 0
BBX 3 2 -3 10
BITMAP
C0
60
ENDCHAR
STARTCHAR 0341
ENCODING 833
SWIDTH 0 0
DWIDTH 0 0
BBX 3 2 0 10
BITMAP
60
C0
ENDCHAR
STARTCHAR 0342
ENCODING 834
SWIDTH 0 0
DWIDTH 0 0
BBX 6 2 -3 10
BITMAP
E4
9C
ENDCHAR
STARTCHAR 0343
ENCODING 835
SWIDTH 0 0
DWIDTH 0 0
BBX 2 5 -1 7
BITMAP
C0
C0
40
40
80
ENDCHAR
STARTCHAR 0344
ENCODING 836
SWIDTH 0 0
DWIDTH 0 0
BBX 7 3 -4 10
BITMAP
18
D6
F6
ENDCHAR
STARTCHAR 0345
ENCODING 837
SWIDTH 0 0
DWIDTH 0 0
BBX 2 3 -1 -4
BITMAP
C0
C0
C0
ENDCHAR
STARTCHAR 0346
ENCODING 838
SWIDTH 0 0
DWIDTH 0 0
BBX 6 3 -3 10
BITMAP
FC
84
84
ENDCHAR
STARTCHAR 0347
ENCODING 839
SWIDTH 0 0
DWIDTH 0 0
BBX 9 5 -4 -6
BITMAP
FF80
FF80
0000
FF80
FF80
ENDCHAR
STARTCHAR 0348
ENCODING 840
SWIDTH 0 0
DWIDTH 0 0
BBX 3 3 -2 -4
BITMAP
A0
A0
A0
ENDCHAR
STARTCHAR 0349
ENCODING 841
SWIDTH 0 0
DWIDTH 0 0
BBX 3 3 -2 -4
BITMAP
E0
20
20
ENDCHAR
STARTCHAR 034A
ENCODING 842
SWIDTH 0 0
DWIDTH 0 0
BBX 6 2 -3 10
BITMAP
F4
BC
ENDCHAR
STARTCHAR 034B
ENCODING 843
SWIDTH 0 0
DWIDTH 0 0
BBX 6 4 -3 10
BITMAP
30
E4
9C
30
ENDCHAR
STARTCHAR 034C
ENCODING 844
SWIDTH 0 0
DWIDTH 0 0
BBX 6 4 -3 10
BITMAP
E4
9C
E4
9C
ENDCHAR
STARTCHAR 034D
ENCODING 845
SWIDTH 0 0
DWIDTH 0 0
BBX 6 3 -3 -4
BITMAP
48
FC
48
ENDCHAR
STARTCHAR 034E
ENCODING 846
SWIDTH 0 0
DWIDTH 0 0
BBX 3 3 -1 -4
BITMAP
40
E0
40
ENDCHAR
STARTCHAR 034F
ENCODING 847
SWIDTH 0 0
DWIDTH 0 0
BBX 13 13 -6 0
BITMAP
E738
8008
8A88
1040
2020
8008
A028
8008
2020
1040
8A88
8008
E738
ENDCHAR
STARTCHAR 0350
ENCODING 848
SWIDTH 0 0
DWIDTH 0 0
BBX 2 3 -1 10
BITMAP
80
40
80
ENDCHAR
STARTCHAR 0351
ENCODING 849
SWIDTH 0 0
DWIDTH 0 0
BBX 2 3 -1 10
BITMAP
40
80
40
ENDCHAR
STARTCHAR 0352
ENCODING 850
SWIDTH 0 0
DWIDTH 0 0
BBX 5 4 -2 10
BITMAP
70
88
30
30
ENDCHAR
STARTCHAR 0353
ENCODING 851
SWIDTH 0 0
DWIDTH 0 0
BBX 4 4 -2 -4
BITMAP
90
60
60
90
ENDCHAR
STARTCHAR 0354
ENCODING 852
SWIDTH 0 0
DWIDTH 0 0
BBX 2 3 -1 -3
BITMAP
40
80
40
ENDCHAR
STARTCHAR 0355
ENCODING 853
SWIDTH 0 0
DWIDTH 0 0
BBX 2 3 -1 -3
BITMAP
80
40
80
ENDCHAR
STARTCHAR 0356
ENCODING 854
SWIDTH 0 0
DWIDTH 0 0
BBX 5 3 -2 -3
BITMAP
80
50
A8
ENDCHAR
STARTCHAR 0357
ENCODING 855
SWIDTH 0 0
DWIDTH 0 0
BBX 2 3 -1 10
BITMAP
80
40
80
ENDCHAR
STARTCHAR 0358
ENCODING 856
SWIDTH 0 0
DWIDTH 0 0
BBX 1 1 2 10
BITMAP
80
ENDCHAR
STARTCHAR 0359
ENCODING 857
SWIDTH 0 0
DWIDTH 0 0
BBX 3 3 -2 -4
BITMAP
40
E0
A0
ENDCHAR
STARTCHAR 035A
ENCODING 858
SWIDTH 0 0
DWIDTH 0 0
BBX 5 3 -2 -4
BITMAP
D8
A8
D8
ENDCHAR
STARTCHAR 035B
ENCODING 859
SWIDTH 0 0
DWIDTH 0 0
BBX 4 5 -2 10
BITMAP
40
40
F0
20
20
ENDCHAR
STARTCHAR 035C
ENCODING 860
SWIDTH 0 0
DWIDTH 0 0
BBX 13 3 -1 -4
BITMAP
8008
6030
1FC0
ENDCHAR
STARTCHAR 035D
ENCODING 861
SWIDTH 0 0
DWIDTH 0 0
BBX 13 3 -1 10
BITMAP
8008
6030
1FC0
ENDCHAR
STARTCHAR 035E
ENCODING 862
SWIDTH 0 0
DWIDTH 0 0
BBX 10 2 -1 10
BITMAP
FFC0
FFC0
ENDCHAR
STARTCHAR 035F
ENCODING 863
SWIDTH 0 0
DWIDTH 0 0
BBX 10 2 -1 -3
BITMAP
FFC0
FFC0
ENDCHAR
STARTCHAR 0360
ENCODING 864
SWIDTH 0 0
DWIDTH 0 0
BBX 13 2 -1 10
BITMAP
7E08
81F0
ENDCHAR
STARTCHAR 0361
ENCODING 865
SWIDTH 0 0
DWIDTH 0 0
BBX 13 3 -1 10
BITMAP
1FC0
6030
8008
ENDCHAR
STARTCHAR 0362
ENCODING 866
SWIDTH 0 0
DWIDTH 0 0
BBX 10 3 -1 -4
BITMAP
0080
FFC0
0080
ENDCHAR
STARTCHAR 0363
ENCODING 867
SWIDTH 0 0
DWIDTH 0 0
BBX 5 6 -3 4
BITMAP
70
D8
78
D8
D8
78
ENDCHAR
STARTCHAR 0364
ENCODING 868
SWIDTH 0 0
DWIDTH 0 0
BBX 5 6 -3 4
BITMAP
70
D8
F8
C0
D8
70
ENDCHAR
STARTCHAR 0365
ENCODING 869
SWIDTH 0 0
DWIDTH 0 0
BBX 2 8 -1 4
BITMAP
C0
00
C0
C0
C0
C0
C0
C0
ENDCHAR
STARTCHAR 0366
ENCODING 870
SWIDTH 0 0
DWIDTH 0 0
BBX 6 6 -3 4
BITMAP
78
CC
CC
CC
CC
78
ENDCHAR
STARTCHAR 0367
ENCODING 871
SWIDTH 0 0
DWIDTH 0 0
BBX 5 6 -3 4
BITMAP
D8
D8
D8
D8
D8
78
ENDCHAR
STARTCHAR 0368
ENCODING 872
SWIDTH 0 0
DWIDTH 0 0
BBX 5 6 -3 4
BITMAP
70
D8
C0
C0
D8
70
ENDCHAR
STARTCHAR 0369
ENCODING 873
SWIDTH 0 0
DWIDTH 0 0
BBX 6 8 -3 4
BITMAP
0C
0C
7C
CC
CC
CC
CC
7C
ENDCHAR
STARTCHAR 036A
ENCODING 874
SWIDTH 0 0
DWIDTH 0 0
BBX 5 8 -3 4
BITMAP
C0
C0
F0
D8
D8
D8
D8
D8
ENDCHAR
STARTCHAR 036B
ENCODING 875
SWIDTH 0 0
DWIDTH 0 0
BBX 8 6 -4 4
BITMAP
FE
DB
DB
DB
DB
DB
ENDCHAR
STARTCHAR 036C
ENCODING 876
SWIDTH 0 0
DWIDTH 0 0
BBX 4 6 -2 4
BITMAP
F0
C0
C0
C0
C0
C0
ENDCHAR
STARTCHAR 036D
ENCODING 877
SWIDTH 0 0
DWIDTH 0 0
BBX 4 8 -2 4
BITMAP
20
60
F0
60
60
60
60
70
ENDCHAR
STARTCHAR 036E
ENCODING 878
SWIDTH 0 0
DWIDTH 0 0
BBX 5 6 -3 4
BITMAP
D8
D8
50
50
70
20
ENDCHAR
STARTCHAR 036F
ENCODING 879
SWIDTH 0 0
DWIDTH 0 0
BBX 5 6 -3 4
BITMAP
D8
50
60
30
50
D8
ENDCHAR
STARTCHAR 0370
ENCODING 880
SWIDTH 540 0
DWIDTH 9 0
BBX 7 12 1 0
BITMAP
C0
C0
C0
C0
C0
FE
FE
C0
C0
C0
C0
C0
ENDCHAR
STARTCHAR 0371
ENCODING 881
SWIDTH 480 0
DWIDTH 8 0
BBX 7 9 0 0
BITMAP
E0
F0
30
3E
3E
30
30
30
30
ENDCHAR
STARTCHAR 0372
ENCODING 882
SWIDTH 600 0
DWIDTH 10 0
BBX 8 12 1 0
BITMAP
FF
FF
DB
DB
DB
18
18
18
18
18
18
18
ENDCHAR
STARTCHAR 0373
ENCODING 883
SWIDTH 600 0
DWIDTH 10 0
BBX 8 12 1 0
BITMAP
7F
FF
DB
18
18
18
18
18
18
18
18
18
ENDCHAR
STARTCHAR 0374
ENCODING 884
SWIDTH 360 0
DWIDTH 6 0
BBX 3 2 2 10
BITMAP
60
C0
ENDCHAR
STARTCHAR 0375
ENCODING 885
SWIDTH 360 0
DWIDTH 6 0
BBX 3 2 1 -3
BITMAP
60
C0
ENDCHAR
STARTCHAR 0376
ENCODING 886
SWIDTH 720 0
DWIDTH 12 0
BBX 10 12 1 0
BITMAP
C0C0
C1C0
C3C0
C3C0
C6C0
CCC0
CCC0
D8C0
F0C0
F0C0
E0C0
C0C0
ENDCHAR
STARTCHAR 0377
ENCODING 887
SWIDTH 660 0
DWIDTH 11 0
BBX 10 9 1 0
BITMAP
C300
C700
CF00
DF00
DB00
F300
F300
E3C0
C1C0
ENDCHAR
STARTCHAR 037A
ENCODING 890
SWIDTH 360 0
DWIDTH 6 0
BBX 2 2 2 -3
BITMAP
C0
C0
ENDCHAR
STARTCHAR 037B
ENCODING 891
SWIDTH 540 0
DWIDTH 9 0
BBX 7 9 1 0
BITMAP
78
FC
C6
06
06
06
CE
FC
78
ENDCHAR
STARTCHAR 037C
ENCODING 892
SWIDTH 540 0
DWIDTH 9 0
BBX 8 9 1 0
BITMAP
3C
7E
E3
D8
D8
C3
E7
7E
3C
ENDCHAR
STARTCHAR 037D
ENCODING 893
SWIDTH 540 0
DWIDTH 9 0
BBX 8 9 0 0
BITMAP
3C
7E
C7
1B
1B
C3
E7
7E
3C
ENDCHAR
STARTCHAR 037E
ENCODING 894
SWIDTH 360 0
DWIDTH 6 0
BBX 2 12 2 -3
BITMAP
C0
C0
00
00
00
00
00
C0
C0
40
40
80
ENDCHAR
STARTCHAR 037F
ENCODING 895
SWIDTH 540 0
DWIDTH 9 0
BBX 8 12 0 0
BITMAP
03
03
03
03
03
03
03
03
C3
C7
7E
3C
ENDCHAR
STARTCHAR 0384
ENCODING 900
SWIDTH 360 0
DWIDTH 6 0
BBX 3 2 1 10
BITMAP
60
C0
ENDCHAR
STARTCHAR 0385
ENCODING 901
SWIDTH 480 0
DWIDTH 8 0
BBX 7 3 0 9
BITMAP
18
D6
F6
ENDCHAR
STARTCHAR 0386
ENCODING 902
SWIDTH 660 0
DWIDTH 11 0
BBX 11 12 0 0
BITMAP
6E00
CE00
1B00
1B00
1B00
3180
3180
3F80
7FC0
60C0
60C0
C060
ENDCHAR
STARTCHAR 0387
ENCODING 903
SWIDTH 360 0
DWIDTH 6 0
BBX 2 2 2 7
BITMAP
C0
C0
ENDCHAR
STARTCHAR 0388
ENCODING 904
SWIDTH 900 0
DWIDTH 15 0
BBX 14 12 0 0
BITMAP
67FC
C7FC
0600
0600
0600
07FC
07FC
0600
0600
0600
07FC
07FC
ENDCHAR
STARTCHAR 0389
ENCODING 905
SWIDTH 900 0
DWIDTH 15 0
BBX 14 12 0 0
BITMAP
6C0C
CC0C
0C0C
0C0C
0C0C
0FFC
0FFC
0C0C
0C0C
0C0C
0C0C
0C0C
ENDCHAR
STARTCHAR 038A
ENCODING 906
SWIDTH 480 0
DWIDTH 8 0
BBX 7 12 0 0
BITMAP
66
C6
06
06
06
06
06
06
06
06
06
06
ENDCHAR
STARTCHAR 038C
ENCODING 908
SWIDTH 840 0
DWIDTH 14 0
BBX 13 12 0 0
BITMAP
67C0
DFF0
1830
3018
3018
3018
3018
3018
3018
1830
1FF0
07C0
ENDCHAR
STARTCHAR 038E
ENCODING 910
SWIDTH 960 0
DWIDTH 16 0
BBX 16 12 0 0
BITMAP
6303
C387
0186
00CC
00FC
0078
0030
0030
0030
0030
0030
0030
ENDCHAR
STARTCHAR 038F
ENCODING 911
SWIDTH 840 0
DWIDTH 14 0
BBX 13 12 0 0
BITMAP
67C0
DFF0
1C70
3838
3018
3018
3018
3018
1830
0C60
3EF8
3EF8
ENDCHAR
STARTCHAR 0390
ENCODING 912
SWIDTH 240 0
DWIDTH 4 0
BBX 7 13 -1 0
BITMAP
18
D6
F6
00
30
30
30
30
30
30
30
30
30
ENDCHAR
STARTCHAR 0391
ENCODING 913
SWIDTH 660 0
DWIDTH 11 0
BBX 11 12 0 0
BITMAP
0E00
0E00
1B00
1B00
1B00
3180
3180
3F80
7FC0
60C0
60C0
C060
ENDCHAR
STARTCHAR 0392
ENCODING 914
SWIDTH 720 0
DWIDTH 12 0
BBX 10 12 1 0
BITMAP
FF00
FF80
C180
C180
C180
FF00
FF80
C0C0
C0C0
C0C0
FF80
FF00
ENDCHAR
STARTCHAR 0393
ENCODING 915
SWIDTH 600 0
DWIDTH 10 0
BBX 8 12 1 0
BITMAP
FF
FF
C0
C0
C0
C0
C0
C0
C0
C0
C0
C0
ENDCHAR
STARTCHAR 0394
ENCODING 916
SWIDTH 720 0
DWIDTH 12 0
BBX 12 12 0 0
BITMAP
0600
0F00
0F00
1B80
1980
1980
30C0
30C0
60E0
6060
7FE0
FFF0
ENDCHAR
STARTCHAR 0395
ENCODING 917
SWIDTH 660 0
DWIDTH 11 0
BBX 9 12 1 0
BITMAP
FF80
FF80
C000
C000
C000
FF80
FF80
C000
C000
C000
FF80
FF80
ENDCHAR
STARTCHAR 0396
ENCODING 918
SWIDTH 540 0
DWIDTH 9 0
BBX 9 12 0 0
BITMAP
7F80
7F80
0300
0600
0E00
0C00
1800
3800
3000
6000
FF80
FF80
ENDCHAR
STARTCHAR 0397
ENCODING 919
SWIDTH 720 0
DWIDTH 12 0
BBX 10 12 1 0
BITMAP
C0C0
C0C0
C0C0
C0C0
C0C0
FFC0
FFC0
C0C0
C0C0
C0C0
C0C0
C0C0
ENDCHAR
STARTCHAR 0398
ENCODING 920
SWIDTH 780 0
DWIDTH 13 0
BBX 11 12 1 0
BITMAP
1F00
7FC0
60C0
C060
C060
DF60
DF60
C060
C060
60C0
7FC0
1F00
ENDCHAR
STARTCHAR 0399
ENCODING 921
SWIDTH 240 0
DWIDTH 4 0
BBX 2 12 1 0
BITMAP
C0
C0
C0
C0
C0
C0
C0
C0
C0
C0
C0
C0
ENDCHAR
STARTCHAR 039A
ENCODING 922
SWIDTH 720 0
DWIDTH 12 0
BBX 10 12 1 0
BITMAP
C1C0
C180
C300
C600
CC00
DE00
F700
E300
C380
C180
C1C0
C0C0
ENDCHAR
STARTCHAR 039B
ENCODING 923
SWIDTH 660 0
DWIDTH 11 0
BBX 11 12 0 0
BITMAP
0E00
0E00
0E00
1B00
1B00
3B80
3180
3180
61C0
60C0
60C0
C0E0
ENDCHAR
STARTCHAR 039C
ENCODING 924
SWIDTH 780 0
DWIDTH 13 0
BBX 11 12 1 0
BITMAP
E0E0
E0E0
F1E0
F1E0
D160
DB60
DB60
DB60
CE60
CE60
CE60
C460
ENDCHAR
STARTCHAR 039D
ENCODING 925
SWIDTH 720 0
DWIDTH 12 0
BBX 10 12 1 0
BITMAP
C0C0
E0C0
F0C0
F0C0
D8C0
CCC0
CCC0
C6C0
C3C0
C3C0
C1C0
C0C0
ENDCHAR
STARTCHAR 039E
ENCODING 926
SWIDTH 660 0
DWIDTH 11 0
BBX 9 12 1 0
BITMAP
FF80
FF80
0000
0000
0000
7F00
7F00
0000
0000
0000
FF80
FF80
ENDCHAR
STARTCHAR 039F
ENCODING 927
SWIDTH 780 0
DWIDTH 13 0
BBX 11 12 1 0
BITMAP
1F00
7FC0
60C0
E060
C060
C060
C060
C060
E060
60C0
7FC0
1F00
ENDCHAR
STARTCHAR 03A0
ENCODING 928
SWIDTH 720 0
DWIDTH 12 0
BBX 10 12 1 0
BITMAP
FFC0
FFC0
C0C0
C0C0
C0C0
C0C0
C0C0
C0C0
C0C0
C0C0
C0C0
C0C0
ENDCHAR
STARTCHAR 03A1
ENCODING 929
SWIDTH 660 0
DWIDTH 11 0
BBX 9 12 1 0
BITMAP
FE00
FF00
C180
C180
C380
FF00
FE00
C000
C000
C000
C000
C000
ENDCHAR
STARTCHAR 03A3
ENCODING 931
SWIDTH 600 0
DWIDTH 10 0
BBX 8 12 1 0
BITMAP
FF
FF
60
30
18
0C
0C
18
30
60
FF
FF
ENDCHAR
STARTCHAR 03A4
ENCODING 932
SWIDTH 600 0
DWIDTH 10 0
BBX 10 12 0 0
BITMAP
FFC0
FFC0
0C00
0C00
0C00
0C00
0C00
0C00
0C00
0C00
0C00
0C00
ENDCHAR
STARTCHAR 03A5
ENCODING 933
SWIDTH 600 0
DWIDTH 10 0
BBX 10 12 0 0
BITMAP
C0C0
E1C0
6180
3300
3700
1E00
0C00
0C00
0C00
0C00
0C00
0C00
ENDCHAR
STARTCHAR 03A6
ENCODING 934
SWIDTH 840 0
DWIDTH 14 0
BBX 12 12 1 0
BITMAP
0600
1F80
7FE0
6660
C630
C630
C630
C630
6660
7FE0
1F80
0600
ENDCHAR
STARTCHAR 03A7
ENCODING 935
SWIDTH 660 0
DWIDTH 11 0
BBX 9 12 1 0
BITMAP
C180
E380
6300
3600
3E00
1C00
1C00
3E00
3600
6300
E380
C180
ENDCHAR
STARTCHAR 03A8
ENCODING 936
SWIDTH 840 0
DWIDTH 14 0
BBX 12 12 1 0
BITMAP
C630
C630
C630
C630
C630
E670
7FE0
3FC0
0600
0600
0600
0600
ENDCHAR
STARTCHAR 03A9
ENCODING 937
SWIDTH 840 0
DWIDTH 14 0
BBX 12 12 1 0
BITMAP
1F80
7FC0
70E0
E070
C030
C030
C030
C030
6060
30C0
F9F0
F9F0
ENDCHAR
STARTCHAR 03AA
ENCODING 938
SWIDTH 240 0
DWIDTH 4 0
BBX 6 15 -1 0
BITMAP
CC
CC
00
30
30
30
30
30
30
30
30
30
30
30
30
ENDCHAR
STARTCHAR 03AB
ENCODING 939
SWIDTH 600 0
DWIDTH 10 0
BBX 10 15 0 0
BITMAP
3300
3300
0000
C0C0
E1C0
6180
3300
3700
1E00
0C00
0C00
0C00
0C00
0C00
0C00
ENDCHAR
STARTCHAR 03AC
ENCODING 940
SWIDTH 600 0
DWIDTH 10 0
BBX 8 12 1 0
BITMAP
0C
18
00
3B
7F
E6
C6
C6
C6
E6
7F
3B
ENDCHAR
STARTCHAR 03AD
ENCODING 941
SWIDTH 480 0
DWIDTH 8 0
BBX 7 12 1 0
BITMAP
18
30
00
7C
FC
C0
70
70
C0
C4
FE
7C
ENDCHAR
STARTCHAR 03AE
ENCODING 942
SWIDTH 600 0
DWIDTH 10 0
BBX 8 15 1 -3
BITMAP
0C
18
00
DE
FF
E3
C3
C3
C3
C3
C3
C3
03
03
03
ENDCHAR
STARTCHAR 03AF
ENCODING 943
SWIDTH 240 0
DWIDTH 4 0
BBX 3 12 1 0
BITMAP
60
C0
00
C0
C0
C0
C0
C0
C0
C0
C0
C0
ENDCHAR
STARTCHAR 03B0
ENCODING 944
SWIDTH 600 0
DWIDTH 10 0
BBX 8 13 1 0
BITMAP
0C
6B
7B
00
C3
C3
C3
C3
C3
C3
E7
7E
3C
ENDCHAR
STARTCHAR 03B1
ENCODING 945
SWIDTH 600 0
DWIDTH 10 0
BBX 8 9 1 0
BITMAP
3B
7F
E6
C6
C6
C6
E6
7F
3B
ENDCHAR
STARTCHAR 03B2
ENCODING 946
SWIDTH 600 0
DWIDTH 10 0
BBX 8 15 1 -3
BITMAP
3C
7E
C6
C6
C4
D8
C6
C3
C3
E3
FF
DE
C0
C0
C0
ENDCHAR
STARTCHAR 03B3
ENCODING 947
SWIDTH 480 0
DWIDTH 8 0
BBX 8 12 0 -3
BITMAP
C3
C3
C3
66
66
24
3C
3C
18
18
18
18
ENDCHAR
STARTCHAR 03B4
ENCODING 948
SWIDTH 600 0
DWIDTH 10 0
BBX 8 12 1 0
BITMAP
7E
7E
30
38
7E
E7
C3
C3
C3
E7
7E
3C
ENDCHAR
STARTCHAR 03B5
ENCODING 949
SWIDTH 480 0
DWIDTH 8 0
BBX 7 9 1 0
BITMAP
7C
FC
C0
70
70
C0
C4
FE
7C
ENDCHAR
STARTCHAR 03B6
ENCODING 950
SWIDTH 480 0
DWIDTH 8 0
BBX 7 15 1 -3
BITMAP
7E
7E
0C
18
30
60
C0
C0
C0
C0
7C
3E
06
1E
1C
ENDCHAR
STARTCHAR 03B7
ENCODING 951
SWIDTH 600 0
DWIDTH 10 0
BBX 8 12 1 -3
BITMAP
DE
FF
E3
C3
C3
C3
C3
C3
C3
03
03
03
ENDCHAR
STARTCHAR 03B8
ENCODING 952
SWIDTH 540 0
DWIDTH 9 0
BBX 7 12 1 0
BITMAP
38
7C
EE
C6
C6
FE
FE
C6
C6
CE
7C
38
ENDCHAR
STARTCHAR 03B9
ENCODING 953
SWIDTH 240 0
DWIDTH 4 0
BBX 2 9 1 0
BITMAP
C0
C0
C0
C0
C0
C0
C0
C0
C0
ENDCHAR
STARTCHAR 03BA
ENCODING 954
SWIDTH 540 0
DWIDTH 9 0
BBX 8 9 1 0
BITMAP
C7
CE
DC
F8
F0
F8
DC
CE
C7
ENDCHAR
STARTCHAR 03BB
ENCODING 955
SWIDTH 480 0
DWIDTH 8 0
BBX 8 12 0 0
BITMAP
30
30
18
18
3C
3C
24
66
66
C3
C3
C3
ENDCHAR
STARTCHAR 03BC
ENCODING 956
SWIDTH 600 0
DWIDTH 10 0
BBX 8 12 1 -3
BITMAP
C3
C3
C3
C3
C3
C3
E7
FF
DB
C0
C0
C0
ENDCHAR
STARTCHAR 03BD
ENCODING 957
SWIDTH 540 0
DWIDTH 9 0
BBX 7 9 1 0
BITMAP
C6
C6
C6
6C
6C
6C
38
38
38
ENDCHAR
STARTCHAR 03BE
ENCODING 958
SWIDTH 480 0
DWIDTH 8 0
BBX 7 15 1 -3
BITMAP
7C
FC
C0
C0
7C
3C
60
C0
C0
E0
7C
3E
06
1E
1C
ENDCHAR
STARTCHAR 03BF
ENCODING 959
SWIDTH 600 0
DWIDTH 10 0
BBX 8 9 1 0
BITMAP
3C
7E
E7
C3
C3
C3
E7
7E
3C
ENDCHAR
STARTCHAR 03C0
ENCODING 960
SWIDTH 780 0
DWIDTH 13 0
BBX 13 9 0 0
BITMAP
FFF8
FFF8
18C0
18C0
18C0
18C0
18C0
18C0
18C0
ENDCHAR
STARTCHAR 03C1
ENCODING 961
SWIDTH 660 0
DWIDTH 11 0
BBX 9 12 1 -3
BITMAP
3E00
7F00
E380
C180
C180
C180
E380
FF00
DE00
C000
C000
C000
ENDCHAR
STARTCHAR 03C2
ENCODING 962
SWIDTH 540 0
DWIDTH 9 0
BBX 7 12 1 -3
BITMAP
1E
7E
60
C0
C0
C0
E0
7C
3E
06
3E
3C
ENDCHAR
STARTCHAR 03C3
ENCODING 963
SWIDTH 720 0
DWIDTH 12 0
BBX 10 9 1 0
BITMAP
3FC0
7FC0
E600
C300
C300
C300
E700
7E00
3C00
ENDCHAR
STARTCHAR 03C4
ENCODING 964
SWIDTH 480 0
DWIDTH 8 0
BBX 6 9 1 0
BITMAP
FC
FC
30
30
30
30
30
30
30
ENDCHAR
STARTCHAR 03C5
ENCODING 965
SWIDTH 600 0
DWIDTH 10 0
BBX 8 9 1 0
BITMAP
C3
C3
C3
C3
C3
C3
E7
7E
3C
ENDCHAR
STARTCHAR 03C6
ENCODING 966
SWIDTH 720 0
DWIDTH 12 0
BBX 10 12 1 -3
BITMAP
3700
6F80
CCC0
CCC0
CCC0
CCC0
EDC0
7F80
3F00
0C00
0C00
0C00
ENDCHAR
STARTCHAR 03C7
ENCODING 967
SWIDTH 600 0
DWIDTH 10 0
BBX 8 12 1 -3
BITMAP
C3
C3
66
66
3C
18
3C
3C
66
66
C3
C3
ENDCHAR
STARTCHAR 03C8
ENCODING 968
SWIDTH 720 0
DWIDTH 12 0
BBX 10 12 1 -3
BITMAP
CCC0
CCC0
CCC0
CCC0
CCC0
CCC0
EDC0
7F80
3F00
0C00
0C00
0C00
ENDCHAR
STARTCHAR 03C9
ENCODING 969
SWIDTH 840 0
DWIDTH 14 0
BBX 12 9 1 0
BITMAP
6060
C030
C630
C630
C630
C630
E670
7FE0
39C0
ENDCHAR
STARTCHAR 03CA
ENCODING 970
SWIDTH 240 0
DWIDTH 4 0
BBX 6 12 -1 0
BITMAP
CC
CC
00
30
30
30
30
30
30
30
30
30
ENDCHAR
STARTCHAR 03CB
ENCODING 971
SWIDTH 600 0
DWIDTH 10 0
BBX 8 12 1 0
BITMAP
66
66
00
C3
C3
C3
C3
C3
C3
E7
7E
3C
ENDCHAR
STARTCHAR 03CC
ENCODING 972
SWIDTH 600 0
DWIDTH 10 0
BBX 8 12 1 0
BITMAP
0C
18
00
3C
7E
E7
C3
C3
C3
E7
7E
3C
ENDCHAR
STARTCHAR 03CD
ENCODING 973
SWIDTH 600 0
DWIDTH 10 0
BBX 8 12 1 0
BITMAP
0C
18
00
C3
C3
C3
C3
C3
C3
E7
7E
3C
ENDCHAR
STARTCHAR 03CE
ENCODING 974
SWIDTH 840 0
DWIDTH 14 0
BBX 12 12 1 0
BITMAP
0300
0600
0000
6060
C030
C630
C630
C630
C630
E670
7FE0
39C0
ENDCHAR
STARTCHAR 03CF
ENCODING 975
SWIDTH 720 0
DWIDTH 12 0
BBX 11 16 1 -4
BITMAP
C0C0
C180
C300
C600
CC00
F800
FC00
E600
C300
C180
C0C0
C0E0
01C0
0380
0700
0E00
ENDCHAR
STARTCHAR 03D0
ENCODING 976
SWIDTH 600 0
DWIDTH 10 0
BBX 8 12 1 0
BITMAP
3C
7E
66
FC
C0
DC
FE
E3
C3
63
7E
3C
ENDCHAR
STARTCHAR 03D1
ENCODING 977
SWIDTH 600 0
DWIDTH 10 0
BBX 10 12 0 0
BITMAP
1E00
3F00
3180
3180
1FC0
0FC0
E180
E180
6380
6300
7F00
3C00
ENDCHAR
STARTCHAR 03D2
ENCODING 978
SWIDTH 780 0
DWIDTH 13 0
BBX 13 12 0 0
BITMAP
E070
60F8
30D0
3980
1B80
0F00
0600
0600
0600
0600
0600
0600
ENDCHAR
STARTCHAR 03D3
ENCODING 979
SWIDTH 1020 0
DWIDTH 17 0
BBX 17 12 0 0
BITMAP
6E0700
C60F80
030D00
039800
01B800
00F000
006000
006000
006000
006000
006000
006000
ENDCHAR
STARTCHAR 03D4
ENCODING 980
SWIDTH 780 0
DWIDTH 13 0
BBX 13 15 0 0
BITMAP
1980
1980
0000
E070
60F8
30D0
3980
1B80
0F00
0600
0600
0600
0600
0600
0600
ENDCHAR
STARTCHAR 03D5
ENCODING 981
SWIDTH 780 0
DWIDTH 13 0
BBX 12 15 0 -3
BITMAP
0600
0600
0600
1FC0
7FE0
E670
C630
C630
C630
E670
7FE0
1F80
0600
0600
0600
ENDCHAR
STARTCHAR 03D6
ENCODING 982
SWIDTH 840 0
DWIDTH 14 0
BBX 12 9 1 0
BITMAP
FFF0
FFF0
C030
C630
C630
C630
E670
7FE0
39C0
ENDCHAR
STARTCHAR 03D7
ENCODING 983
SWIDTH 720 0
DWIDTH 12 0
BBX 12 13 0 -4
BITMAP
E060
F0C0
31C0
33C0
36C0
3CC0
38C0
30F0
6070
0030
0030
00F0
00E0
ENDCHAR
STARTCHAR 03D8
ENCODING 984
SWIDTH 780 0
DWIDTH 13 0
BBX 11 15 1 -3
BITMAP
1F00
3FC0
60C0
C060
C060
C060
C060
C060
C060
60C0
7FC0
1F00
0C00
0C00
0C00
ENDCHAR
STARTCHAR 03D9
ENCODING 985
SWIDTH 600 0
DWIDTH 10 0
BBX 8 12 1 -3
BITMAP
3C
7E
E7
C3
C3
C3
E7
7E
3C
18
18
18
ENDCHAR
STARTCHAR 03DA
ENCODING 986
SWIDTH 720 0
DWIDTH 12 0
BBX 10 12 1 0
BITMAP
1F00
7F80
61C0
C0C0
C000
C000
C000
E000
7C00
3C00
0C00
0C00
ENDCHAR
STARTCHAR 03DB
ENCODING 987
SWIDTH 540 0
DWIDTH 9 0
BBX 7 12 1 -3
BITMAP
3C
7E
C6
C0
C0
C0
F0
7C
1E
46
7E
3C
ENDCHAR
STARTCHAR 03DC
ENCODING 988
SWIDTH 600 0
DWIDTH 10 0
BBX 8 12 1 0
BITMAP
FF
FF
C0
C0
C0
FE
FE
C6
C0
C0
C0
C0
ENDCHAR
STARTCHAR 03DD
ENCODING 989
SWIDTH 480 0
DWIDTH 8 0
BBX 6 12 1 -3
BITMAP
FC
FC
C0
C0
C0
FC
FC
CC
C0
C0
C0
C0
ENDCHAR
STARTCHAR 03DE
ENCODING 990
SWIDTH 780 0
DWIDTH 13 0
BBX 13 12 0 0
BITMAP
E000
F000
3010
3070
31E0
33E0
3E60
3C60
7060
4060
0078
0038
ENDCHAR
STARTCHAR 03DF
ENCODING 991
SWIDTH 540 0
DWIDTH 9 0
BBX 9 12 0 0
BITMAP
3800
3000
3000
6000
6000
FF80
FF80
0300
0300
0600
0600
0E00
ENDCHAR
STARTCHAR 03E0
ENCODING 992
SWIDTH 840 0
DWIDTH 14 0
BBX 13 15 0 -3
BITMAP
1F00
7FC0
F9E0
D870
18F0
19F0
0338
0318
0318
0318
0318
0318
0030
07E0
03C0
ENDCHAR
STARTCHAR 03E1
ENCODING 993
SWIDTH 600 0
DWIDTH 10 0
BBX 9 15 0 -3
BITMAP
6000
F800
3C00
0E00
0F00
3F00
3300
0780
1F80
0980
0180
0180
0180
0180
0300
ENDCHAR
STARTCHAR 03E2
ENCODING 994
SWIDTH 1020 0
DWIDTH 17 0
BBX 14 15 1 -3
BITMAP
C30C
C30C
C30C
C30C
C30C
C30C
C30C
C30C
C30C
C71C
FFFC
79EC
000C
FFFC
FFF8
ENDCHAR
STARTCHAR 03E3
ENCODING 995
SWIDTH 900 0
DWIDTH 15 0
BBX 12 12 1 -3
BITMAP
C630
C630
C630
C630
C630
C630
CE70
FFF0
73B0
0030
FFF0
FFE0
ENDCHAR
STARTCHAR 03E4
ENCODING 996
SWIDTH 720 0
DWIDTH 12 0
BBX 10 12 1 0
BITMAP
3CC0
7CC0
E0C0
C0C0
C0C0
E0C0
7FC0
3FC0
00C0
00C0
00C0
00C0
ENDCHAR
STARTCHAR 03E5
ENCODING 997
SWIDTH 600 0
DWIDTH 10 0
BBX 8 12 1 0
BITMAP
73
F3
C3
C3
C3
C3
C7
FF
7B
03
03
03
ENDCHAR
STARTCHAR 03E6
ENCODING 998
SWIDTH 720 0
DWIDTH 12 0
BBX 10 15 1 -3
BITMAP
C000
C000
C000
C000
FF00
FF80
C1C0
C0C0
C0C0
C0C0
C0C0
C0C0
0180
FF80
FE00
ENDCHAR
STARTCHAR 03E7
ENCODING 999
SWIDTH 600 0
DWIDTH 10 0
BBX 10 9 0 0
BITMAP
3EC0
7FC0
6380
7F80
3D80
0180
7380
FF00
DE00
ENDCHAR
STARTCHAR 03E8
ENCODING 1000
SWIDTH 660 0
DWIDTH 11 0
BBX 9 12 1 0
BITMAP
3E00
7F00
E180
C180
0780
3F00
7C00
E180
C180
E180
7F00
3E00
ENDCHAR
STARTCHAR 03E9
ENCODING 1001
SWIDTH 660 0
DWIDTH 11 0
BBX 9 12 1 0
BITMAP
3E00
7F00
E180
C180
0780
3F00
7C00
E000
C000
E100
7F80
3F00
ENDCHAR
STARTCHAR 03EA
ENCODING 1002
SWIDTH 660 0
DWIDTH 11 0
BBX 11 12 0 0
BITMAP
F1E0
FBE0
0E00
0E00
0E00
0E00
1B00
1B00
3180
3180
7FC0
7FC0
ENDCHAR
STARTCHAR 03EB
ENCODING 1003
SWIDTH 600 0
DWIDTH 10 0
BBX 10 9 0 0
BITMAP
F3C0
FFC0
1E00
0C00
1E00
3300
7380
7F80
7F80
ENDCHAR
STARTCHAR 03EC
ENCODING 1004
SWIDTH 780 0
DWIDTH 13 0
BBX 11 12 1 0
BITMAP
0FC0
3FC0
7000
5F00
FFC0
E0E0
C060
C060
C060
60E0
7FC0
1F00
ENDCHAR
STARTCHAR 03ED
ENCODING 1005
SWIDTH 600 0
DWIDTH 10 0
BBX 8 9 1 0
BITMAP
1F
7F
E0
DE
DF
C3
E3
7F
3C
ENDCHAR
STARTCHAR 03EE
ENCODING 1006
SWIDTH 540 0
DWIDTH 9 0
BBX 8 12 0 0
BITMAP
18
18
18
7E
FF
99
99
18
18
18
18
18
ENDCHAR
STARTCHAR 03EF
ENCODING 1007
SWIDTH 420 0
DWIDTH 7 0
BBX 7 12 0 0
BITMAP
18
1C
18
FE
98
18
18
18
18
18
38
18
ENDCHAR
STARTCHAR 03F0
ENCODING 1008
SWIDTH 720 0
DWIDTH 12 0
BBX 12 9 0 0
BITMAP
E060
F0C0
31C0
33C0
36C0
3CC0
38C0
30F0
6070
ENDCHAR
STARTCHAR 03F1
ENCODING 1009
SWIDTH 660 0
DWIDTH 11 0
BBX 9 12 1 -3
BITMAP
3E00
7F00
E380
C180
C180
C180
E380
FF00
DE00
E000
7F00
3F80
ENDCHAR
STARTCHAR 03F2
ENCODING 1010
SWIDTH 540 0
DWIDTH 9 0
BBX 7 9 1 0
BITMAP
3C
7E
E6
C0
C0
C0
E6
7E
3C
ENDCHAR
STARTCHAR 03F3
ENCODING 1011
SWIDTH 240 0
DWIDTH 4 0
BBX 4 15 -1 -3
BITMAP
30
30
00
30
30
30
30
30
30
30
30
30
30
F0
E0
ENDCHAR
STARTCHAR 03F4
ENCODING 1012
SWIDTH 780 0
DWIDTH 13 0
BBX 11 12 1 0
BITMAP
1F00
3F80
60C0
C060
C060
FFE0
FFE0
C060
C060
60C0
3F80
1F00
ENDCHAR
STARTCHAR 03F5
ENCODING 1013
SWIDTH 480 0
DWIDTH 8 0
BBX 6 9 1 0
BITMAP
3C
7C
C0
F0
F0
C0
E0
7C
3C
ENDCHAR
STARTCHAR 03F6
ENCODING 1014
SWIDTH 480 0
DWIDTH 8 0
BBX 6 9 1 0
BITMAP
F0
F8
0C
3C
3C
0C
1C
F8
F0
ENDCHAR
STARTCHAR 03F7
ENCODING 1015
SWIDTH 660 0
DWIDTH 11 0
BBX 9 12 1 0
BITMAP
C000
C000
FE00
FF00
C380
C180
C180
C380
FF00
FE00
C000
C000
ENDCHAR
STARTCHAR 03F8
ENCODING 1016
SWIDTH 600 0
DWIDTH 10 0
BBX 8 15 1 -3
BITMAP
C0
C0
C0
DC
FE
E7
C3
C3
C3
E7
FE
DC
C0
C0
C0
ENDCHAR
STARTCHAR 03F9
ENCODING 1017
SWIDTH 720 0
DWIDTH 12 0
BBX 10 12 1 0
BITMAP
1F00
7F80
61C0
E080
C000
C000
C000
C000
E080
61C0
7F80
1F00
ENDCHAR
STARTCHAR 03FA
ENCODING 1018
SWIDTH 840 0
DWIDTH 14 0
BBX 12 12 1 0
BITMAP
E070
F0F0
F9F0
DFB0
CF30
CF30
C030
C030
C030
C030
C030
C030
ENDCHAR
STARTCHAR 03FB
ENCODING 1019
SWIDTH 780 0
DWIDTH 13 0
BBX 11 12 1 -3
BITMAP
E0E0
F1E0
F1E0
F1E0
DB60
DB60
DF60
CE60
CE60
C000
C000
C000
ENDCHAR
STARTCHAR 03FC
ENCODING 1020
SWIDTH 660 0
DWIDTH 11 0
BBX 9 12 0 -3
BITMAP
1E00
3F00
7380
6180
6180
6180
7380
7F00
6E00
6000
F800
6000
ENDCHAR
STARTCHAR 03FD
ENCODING 1021
SWIDTH 720 0
DWIDTH 12 0
BBX 10 12 1 0
BITMAP
3E00
7F00
E180
C0C0
00C0
00C0
00C0
00C0
C0C0
E180
7F00
3E00
ENDCHAR
STARTCHAR 03FE
ENCODING 1022
SWIDTH 720 0
DWIDTH 12 0
BBX 10 12 1 0
BITMAP
1F00
3F80
61C0
C0C0
C000
CC00
CC00
C000
C0C0
61C0
3F80
1F00
ENDCHAR
STARTCHAR 03FF
ENCODING 1023
SWIDTH 720 0
DWIDTH 12 0
BBX 10 12 1 0
BITMAP
3E00
7F00
E180
C0C0
00C0
0CC0
0CC0
00C0
C0C0
E180
7F00
3E00
ENDCHAR
STARTCHAR 0400
ENCODING 1024
SWIDTH 660 0
DWIDTH 11 0
BBX 9 15 1 0
BITMAP
1800
0C00
0000
FF80
FF80
C000
C000
C000
FF80
FF80
C000
C000
C000
FF80
FF80
ENDCHAR
STARTCHAR 0401
ENCODING 1025
SWIDTH 660 0
DWIDTH 11 0
BBX 9 15 1 0
BITMAP
3300
3300
0000
FF80
FF80
C000
C000
C000
FF80
FF80
C000
C000
C000
FF80
FF80
ENDCHAR
STARTCHAR 0402
ENCODING 1026
SWIDTH 900 0
DWIDTH 15 0
BBX 14 12 0 0
BITMAP
FFC0
FFC0
0C00
0C00
0DF0
0FF8
0E1C
0C0C
0C0C
0C1C
0CF8
0CF0
ENDCHAR
STARTCHAR 0403
ENCODING 1027
SWIDTH 600 0
DWIDTH 10 0
BBX 8 15 1 0
BITMAP
0C
18
00
FF
FF
C0
C0
C0
C0
C0
C0
C0
C0
C0
C0
ENDCHAR
STARTCHAR 0404
ENCODING 1028
SWIDTH 720 0
DWIDTH 12 0
BBX 10 12 1 0
BITMAP
1F00
7F80
61C0
C080
C000
FC00
FC00
C000
C080
61C0
7F80
1F00
ENDCHAR
STARTCHAR 0405
ENCODING 1029
SWIDTH 660 0
DWIDTH 11 0
BBX 9 12 1 0
BITMAP
3E00
7F00
E380
C180
F000
7E00
1F00
0380
C180
E380
7F00
3E00
ENDCHAR
STARTCHAR 0406
ENCODING 1030
SWIDTH 240 0
DWIDTH 4 0
BBX 2 12 1 0
BITMAP
C0
C0
C0
C0
C0
C0
C0
C0
C0
C0
C0
C0
ENDCHAR
STARTCHAR 0407
ENCODING 1031
SWIDTH 240 0
DWIDTH 4 0
BBX 6 15 -1 0
BITMAP
CC
CC
00
30
30
30
30
30
30
30
30
30
30
30
30
ENDCHAR
STARTCHAR 0408
ENCODING 1032
SWIDTH 540 0
DWIDTH 9 0
BBX 8 12 0 0
BITMAP
03
03
03
03
03
03
03
03
C3
C7
7E
3C
ENDCHAR
STARTCHAR 0409
ENCODING 1033
SWIDTH 1140 0
DWIDTH 19 0
BBX 18 12 0 0
BITMAP
3FC000
3FC000
30C000
30C000
30C000
30FF00
30FF80
30C1C0
30C0C0
30C1C0
F0FF80
E0FF00
ENDCHAR
STARTCHAR 040A
ENCODING 1034
SWIDTH 1080 0
DWIDTH 18 0
BBX 16 12 1 0
BITMAP
C300
C300
C300
C300
C300
FFFC
FFFE
C307
C303
C307
C3FE
C3FC
ENDCHAR
STARTCHAR 040B
ENCODING 1035
SWIDTH 900 0
DWIDTH 15 0
BBX 14 12 0 0
BITMAP
FFC0
FFC0
0C00
0C00
0FF0
0FF8
0C1C
0C0C
0C0C
0C0C
0C0C
0C0C
ENDCHAR
STARTCHAR 040C
ENCODING 1036
SWIDTH 600 0
DWIDTH 10 0
BBX 9 15 1 0
BITMAP
0C00
1800
0000
C380
C780
CE00
CC00
DC00
F800
FC00
CE00
C600
C300
C300
C180
ENDCHAR
STARTCHAR 040D
ENCODING 1037
SWIDTH 720 0
DWIDTH 12 0
BBX 10 15 1 0
BITMAP
1800
0C00
0000
C0C0
C1C0
C3C0
C3C0
C6C0
CCC0
CCC0
D8C0
F0C0
F0C0
E0C0
C0C0
ENDCHAR
STARTCHAR 040E
ENCODING 1038
SWIDTH 660 0
DWIDTH 11 0
BBX 11 15 0 0
BITMAP
1100
0E00
0000
C060
E0E0
60C0
3180
3180
1B00
1F00
0E00
0400
0C00
3C00
3800
ENDCHAR
STARTCHAR 040F
ENCODING 1039
SWIDTH 720 0
DWIDTH 12 0
BBX 10 15 1 -3
BITMAP
C0C0
C0C0
C0C0
C0C0
C0C0
C0C0
C0C0
C0C0
C0C0
C0C0
FFC0
FFC0
0C00
0C00
0C00
ENDCHAR
STARTCHAR 0410
ENCODING 1040
SWIDTH 660 0
DWIDTH 11 0
BBX 11 12 0 0
BITMAP
0E00
0E00
1B00
1B00
1B00
3180
3180
3F80
7FC0
60C0
60C0
C060
ENDCHAR
STARTCHAR 0411
ENCODING 1041
SWIDTH 720 0
DWIDTH 12 0
BBX 10 12 1 0
BITMAP
FF80
FF80
C000
C000
C000
FF00
FF80
C1C0
C0C0
C1C0
FF80
FF00
ENDCHAR
STARTCHAR 0412
ENCODING 1042
SWIDTH 720 0
DWIDTH 12 0
BBX 10 12 1 0
BITMAP
FF00
FF80
C180
C180
C180
FF00
FF80
C0C0
C0C0
C0C0
FF80
FF00
ENDCHAR
STARTCHAR 0413
ENCODING 1043
SWIDTH 600 0
DWIDTH 10 0
BBX 8 12 1 0
BITMAP
FF
FF
C0
C0
C0
C0
C0
C0
C0
C0
C0
C0
ENDCHAR
STARTCHAR 0414
ENCODING 1044
SWIDTH 720 0
DWIDTH 12 0
BBX 12 15 0 -3
BITMAP
3FE0
3FE0
3060
3060
3060
3060
3060
3060
6060
6060
FFF0
FFF0
C030
C030
C030
ENDCHAR
STARTCHAR 0415
ENCODING 1045
SWIDTH 660 0
DWIDTH 11 0
BBX 9 12 1 0
BITMAP
FF80
FF80
C000
C000
C000
FF80
FF80
C000
C000
C000
FF80
FF80
ENDCHAR
STARTCHAR 0416
ENCODING 1046
SWIDTH 840 0
DWIDTH 14 0
BBX 14 12 0 0
BITMAP
E31C
F33C
3330
1B70
1B60
0FC0
1FE0
3B70
3330
6318
6318
C30C
ENDCHAR
STARTCHAR 0417
ENCODING 1047
SWIDTH 660 0
DWIDTH 11 0
BBX 10 12 0 0
BITMAP
3F00
7F80
E1C0
40C0
0180
0700
0780
00C0
40C0
E1C0
7F80
3F00
ENDCHAR
STARTCHAR 0418
ENCODING 1048
SWIDTH 720 0
DWIDTH 12 0
BBX 10 12 1 0
BITMAP
C0C0
C1C0
C3C0
C3C0
C6C0
CCC0
CCC0
D8C0
F0C0
F0C0
E0C0
C0C0
ENDCHAR
STARTCHAR 0419
ENCODING 1049
SWIDTH 720 0
DWIDTH 12 0
BBX 10 15 1 0
BITMAP
1100
0E00
0000
C0C0
C1C0
C3C0
C3C0
C6C0
CCC0
CCC0
D8C0
F0C0
F0C0
E0C0
C0C0
ENDCHAR
STARTCHAR 041A
ENCODING 1050
SWIDTH 600 0
DWIDTH 10 0
BBX 9 12 1 0
BITMAP
C380
C780
CE00
CC00
DC00
F800
FC00
CE00
C600
C300
C300
C180
ENDCHAR
STARTCHAR 041B
ENCODING 1051
SWIDTH 720 0
DWIDTH 12 0
BBX 11 12 0 0
BITMAP
3FE0
3FE0
3060
3060
3060
3060
3060
3060
3060
3060
F060
E060
ENDCHAR
STARTCHAR 041C
ENCODING 1052
SWIDTH 780 0
DWIDTH 13 0
BBX 11 12 1 0
BITMAP
E0E0
E0E0
F1E0
F1E0
D160
DB60
DB60
DB60
CE60
CE60
CE60
C460
ENDCHAR
STARTCHAR 041D
ENCODING 1053
SWIDTH 720 0
DWIDTH 12 0
BBX 10 12 1 0
BITMAP
C0C0
C0C0
C0C0
C0C0
C0C0
FFC0
FFC0
C0C0
C0C0
C0C0
C0C0
C0C0
ENDCHAR
STARTCHAR 041E
ENCODING 1054
SWIDTH 780 0
DWIDTH 13 0
BBX 11 12 1 0
BITMAP
1F00
7FC0
60C0
E060
C060
C060
C060
C060
E060
60C0
7FC0
1F00
ENDCHAR
STARTCHAR 041F
ENCODING 1055
SWIDTH 720 0
DWIDTH 12 0
BBX 10 12 1 0
BITMAP
FFC0
FFC0
C0C0
C0C0
C0C0
C0C0
C0C0
C0C0
C0C0
C0C0
C0C0
C0C0
ENDCHAR
STARTCHAR 0420
ENCODING 1056
SWIDTH 660 0
DWIDTH 11 0
BBX 9 12 1 0
BITMAP
FE00
FF00
C180
C180
C380
FF00
FE00
C000
C000
C000
C000
C000
ENDCHAR
STARTCHAR 0421
ENCODING 1057
SWIDTH 720 0
DWIDTH 12 0
BBX 10 12 1 0
BITMAP
1F00
7F80
61C0
E080
C000
C000
C000
C000
E080
61C0
7F80
1F00
ENDCHAR
STARTCHAR 0422
ENCODING 1058
SWIDTH 600 0
DWIDTH 10 0
BBX 10 12 0 0
BITMAP
FFC0
FFC0
0C00
0C00
0C00
0C00
0C00
0C00
0C00
0C00
0C00
0C00
ENDCHAR
STARTCHAR 0423
ENCODING 1059
SWIDTH 660 0
DWIDTH 11 0
BBX 11 12 0 0
BITMAP
C060
E0E0
60C0
3180
3180
1B00
1F00
0E00
0400
0C00
3C00
3800
ENDCHAR
STARTCHAR 0424
ENCODING 1060
SWIDTH 840 0
DWIDTH 14 0
BBX 12 12 1 0
BITMAP
0600
1F80
7FE0
6660
C630
C630
C630
C630
6660
7FE0
1F80
0600
ENDCHAR
STARTCHAR 0425
ENCODING 1061
SWIDTH 660 0
DWIDTH 11 0
BBX 9 12 1 0
BITMAP
C180
E380
6300
3600
3E00
1C00
1C00
3E00
3600
6300
E380
C180
ENDCHAR
STARTCHAR 0426
ENCODING 1062
SWIDTH 720 0
DWIDTH 12 0
BBX 11 15 1 -3
BITMAP
C0C0
C0C0
C0C0
C0C0
C0C0
C0C0
C0C0
C0C0
C0C0
C0C0
FFE0
FFE0
0060
0060
0060
ENDCHAR
STARTCHAR 0427
ENCODING 1063
SWIDTH 720 0
DWIDTH 12 0
BBX 10 12 1 0
BITMAP
C0C0
C0C0
C0C0
C0C0
C0C0
E0C0
7FC0
3FC0
00C0
00C0
00C0
00C0
ENDCHAR
STARTCHAR 0428
ENCODING 1064
SWIDTH 960 0
DWIDTH 16 0
BBX 14 12 1 0
BITMAP
C30C
C30C
C30C
C30C
C30C
C30C
C30C
C30C
C30C
C30C
FFFC
FFFC
ENDCHAR
STARTCHAR 0429
ENCODING 1065
SWIDTH 960 0
DWIDTH 16 0
BBX 15 15 1 -3
BITMAP
C30C
C30C
C30C
C30C
C30C
C30C
C30C
C30C
C30C
C30C
FFFE
FFFE
0006
0006
0006
ENDCHAR
STARTCHAR 042A
ENCODING 1066
SWIDTH 900 0
DWIDTH 15 0
BBX 14 12 0 0
BITMAP
FC00
FC00
0C00
0C00
0C00
0FF0
0FF8
0C1C
0C0C
0C1C
0FF8
0FF0
ENDCHAR
STARTCHAR 042B
ENCODING 1067
SWIDTH 1020 0
DWIDTH 17 0
BBX 15 12 1 0
BITMAP
C006
C006
C006
C006
C006
FF06
FF86
C1C6
C0C6
C1C6
FF86
FF06
ENDCHAR
STARTCHAR 042C
ENCODING 1068
SWIDTH 720 0
DWIDTH 12 0
BBX 10 12 1 0
BITMAP
C000
C000
C000
C000
C000
FF00
FF80
C1C0
C0C0
C1C0
FF80
FF00
ENDCHAR
STARTCHAR 042D
ENCODING 1069
SWIDTH 720 0
DWIDTH 12 0
BBX 10 12 1 0
BITMAP
3E00
7F00
E180
40C0
00C0
0FC0
0FC0
00C0
40C0
E180
7F80
3E00
ENDCHAR
STARTCHAR 042E
ENCODING 1070
SWIDTH 1080 0
DWIDTH 18 0
BBX 16 12 1 0
BITMAP
C0F8
C3FE
C306
C603
C603
FE03
FE03
C603
C603
C306
C3FE
C0F8
ENDCHAR
STARTCHAR 042F
ENCODING 1071
SWIDTH 720 0
DWIDTH 12 0
BBX 11 12 0 0
BITMAP
1FE0
3FE0
7060
6060
7060
3FE0
0FE0
1C60
3860
3060
7060
E060
ENDCHAR
STARTCHAR 0430
ENCODING 1072
SWIDTH 540 0
DWIDTH 9 0
BBX 8 9 1 0
BITMAP
7C
FE
C6
1E
7E
E6
C6
FE
7B
ENDCHAR
STARTCHAR 0431
ENCODING 1073
SWIDTH 660 0
DWIDTH 11 0
BBX 9 12 1 0
BITMAP
3F80
7F00
E000
DE00
FF00
E380
C180
C180
C180
E380
7F00
3E00
ENDCHAR
STARTCHAR 0432
ENCODING 1074
SWIDTH 600 0
DWIDTH 10 0
BBX 8 9 1 0
BITMAP
FE
FF
C3
FE
FE
C3
C3
FF
FE
ENDCHAR
STARTCHAR 0433
ENCODING 1075
SWIDTH 420 0
DWIDTH 7 0
BBX 6 9 1 0
BITMAP
FC
FC
C0
C0
C0
C0
C0
C0
C0
ENDCHAR
STARTCHAR 0434
ENCODING 1076
SWIDTH 660 0
DWIDTH 11 0
BBX 10 11 0 -2
BITMAP
3F80
3F80
3180
3180
3180
3180
6180
FFC0
FFC0
C0C0
C0C0
ENDCHAR
STARTCHAR 0435
ENCODING 1077
SWIDTH 540 0
DWIDTH 9 0
BBX 7 9 1 0
BITMAP
38
7C
C6
FE
FE
C0
E6
7C
38
ENDCHAR
STARTCHAR 0436
ENCODING 1078
SWIDTH 720 0
DWIDTH 12 0
BBX 12 9 0 0
BITMAP
E670
F6F0
36C0
1F80
1F80
36C0
6660
6660
C630
ENDCHAR
STARTCHAR 0437
ENCODING 1079
SWIDTH 480 0
DWIDTH 8 0
BBX 6 9 1 0
BITMAP
78
FC
CC
18
18
0C
CC
FC
78
ENDCHAR
STARTCHAR 0438
ENCODING 1080
SWIDTH 600 0
DWIDTH 10 0
BBX 8 9 1 0
BITMAP
C3
C7
CF
CF
DB
F3
F3
E3
C3
ENDCHAR
STARTCHAR 0439
ENCODING 1081
SWIDTH 600 0
DWIDTH 10 0
BBX 8 12 1 0
BITMAP
22
1C
00
C3
C7
CF
CF
DB
F3
F3
E3
C3
ENDCHAR
STARTCHAR 043A
ENCODING 1082
SWIDTH 540 0
DWIDTH 9 0
BBX 8 9 1 0
BITMAP
C7
CF
CC
DC
F8
FC
CE
C6
C7
ENDCHAR
STARTCHAR 043B
ENCODING 1083
SWIDTH 660 0
DWIDTH 11 0
BBX 10 9 0 0
BITMAP
3FC0
3FC0
30C0
30C0
30C0
30C0
30C0
F0C0
E0C0
ENDCHAR
STARTCHAR 043C
ENCODING 1084
SWIDTH 780 0
DWIDTH 13 0
BBX 11 9 1 0
BITMAP
E0E0
E0E0
F1E0
F1E0
DB60
DB60
CE60
CE60
C460
ENDCHAR
STARTCHAR 043D
ENCODING 1085
SWIDTH 600 0
DWIDTH 10 0
BBX 8 9 1 0
BITMAP
C3
C3
C3
FF
FF
C3
C3
C3
C3
ENDCHAR
STARTCHAR 043E
ENCODING 1086
SWIDTH 600 0
DWIDTH 10 0
BBX 8 9 1 0
BITMAP
3C
7E
E7
C3
C3
C3
E7
7E
3C
ENDCHAR
STARTCHAR 043F
ENCODING 1087
SWIDTH 600 0
DWIDTH 10 0
BBX 8 9 1 0
BITMAP
FF
FF
C3
C3
C3
C3
C3
C3
C3
ENDCHAR
STARTCHAR 0440
ENCODING 1088
SWIDTH 600 0
DWIDTH 10 0
BBX 8 12 1 -3
BITMAP
DC
FE
E7
C3
C3
C3
E7
FE
DC
C0
C0
C0
ENDCHAR
STARTCHAR 0441
ENCODING 1089
SWIDTH 540 0
DWIDTH 9 0
BBX 7 9 1 0
BITMAP
3C
7E
E6
C0
C0
C0
E6
7E
3C
ENDCHAR
STARTCHAR 0442
ENCODING 1090
SWIDTH 480 0
DWIDTH 8 0
BBX 8 9 0 0
BITMAP
FF
FF
18
18
18
18
18
18
18
ENDCHAR
STARTCHAR 0443
ENCODING 1091
SWIDTH 540 0
DWIDTH 9 0
BBX 9 12 0 -3
BITMAP
C180
C180
6300
6300
3600
3600
3E00
1C00
1C00
1800
7800
7000
ENDCHAR
STARTCHAR 0444
ENCODING 1092
SWIDTH 960 0
DWIDTH 16 0
BBX 14 15 1 -3
BITMAP
0300
0300
0300
3B70
7FF8
E79C
C30C
C30C
C30C
E79C
7FF8
3B70
0300
0300
0300
ENDCHAR
STARTCHAR 0445
ENCODING 1093
SWIDTH 540 0
DWIDTH 9 0
BBX 7 9 1 0
BITMAP
C6
EE
6C
38
38
38
6C
EE
C6
ENDCHAR
STARTCHAR 0446
ENCODING 1094
SWIDTH 600 0
DWIDTH 10 0
BBX 9 11 1 -2
BITMAP
C300
C300
C300
C300
C300
C300
C300
FF80
FF80
0180
0180
ENDCHAR
STARTCHAR 0447
ENCODING 1095
SWIDTH 600 0
DWIDTH 10 0
BBX 8 9 1 0
BITMAP
C3
C3
C3
C3
FF
7F
03
03
03
ENDCHAR
STARTCHAR 0448
ENCODING 1096
SWIDTH 840 0
DWIDTH 14 0
BBX 12 9 1 0
BITMAP
C630
C630
C630
C630
C630
C630
C630
FFF0
FFF0
ENDCHAR
STARTCHAR 0449
ENCODING 1097
SWIDTH 840 0
DWIDTH 14 0
BBX 13 11 1 -2
BITMAP
C630
C630
C630
C630
C630
C630
C630
FFF8
FFF8
0018
0018
ENDCHAR
STARTCHAR 044A
ENCODING 1098
SWIDTH 720 0
DWIDTH 12 0
BBX 10 9 1 0
BITMAP
F800
F800
1800
1F80
1FC0
18C0
18C0
1FC0
1F80
ENDCHAR
STARTCHAR 044B
ENCODING 1099
SWIDTH 840 0
DWIDTH 14 0
BBX 12 9 1 0
BITMAP
C030
C030
C030
FE30
FF30
C330
C330
FF30
FE30
ENDCHAR
STARTCHAR 044C
ENCODING 1100
SWIDTH 600 0
DWIDTH 10 0
BBX 8 9 1 0
BITMAP
C0
C0
C0
FE
FF
C3
C3
FF
FE
ENDCHAR
STARTCHAR 044D
ENCODING 1101
SWIDTH 540 0
DWIDTH 9 0
BBX 7 9 1 0
BITMAP
78
7C
C6
1E
1E
06
CE
7C
38
ENDCHAR
STARTCHAR 044E
ENCODING 1102
SWIDTH 900 0
DWIDTH 15 0
BBX 13 9 1 0
BITMAP
C3E0
C7F0
CE38
CC18
FC18
FC18
CE38
C7F0
C3E0
ENDCHAR
STARTCHAR 044F
ENCODING 1103
SWIDTH 600 0
DWIDTH 10 0
BBX 9 9 0 0
BITMAP
3F80
7F80
6180
6180
7F80
3F80
7180
6180
E180
ENDCHAR
STARTCHAR 0450
ENCODING 1104
SWIDTH 540 0
DWIDTH 9 0
BBX 7 12 1 0
BITMAP
30
18
00
38
7C
C6
FE
FE
C0
E6
7C
38
ENDCHAR
STARTCHAR 0451
ENCODING 1105
SWIDTH 540 0
DWIDTH 9 0
BBX 7 12 1 0
BITMAP
66
66
00
38
7C
C6
FE
FE
C0
E6
7C
38
ENDCHAR
STARTCHAR 0452
ENCODING 1106
SWIDTH 600 0
DWIDTH 10 0
BBX 9 15 0 -3
BITMAP
6000
FC00
6000
6F00
7F80
7180
6180
6180
6180
6180
6180
6180
0180
0780
0700
ENDCHAR
STARTCHAR 0453
ENCODING 1107
SWIDTH 420 0
DWIDTH 7 0
BBX 6 12 1 0
BITMAP
30
60
00
FC
FC
C0
C0
C0
C0
C0
C0
C0
ENDCHAR
STARTCHAR 0454
ENCODING 1108
SWIDTH 540 0
DWIDTH 9 0
BBX 7 9 1 0
BITMAP
38
7C
C6
F0
F0
C0
E6
7C
38
ENDCHAR
STARTCHAR 0455
ENCODING 1109
SWIDTH 540 0
DWIDTH 9 0
BBX 7 9 1 0
BITMAP
7C
FE
C6
F0
7C
0E
C6
FE
7C
ENDCHAR
STARTCHAR 0456
ENCODING 1110
SWIDTH 240 0
DWIDTH 4 0
BBX 2 12 1 0
BITMAP
C0
C0
00
C0
C0
C0
C0
C0
C0
C0
C0
C0
ENDCHAR
STARTCHAR 0457
ENCODING 1111
SWIDTH 240 0
DWIDTH 4 0
BBX 6 12 -1 0
BITMAP
CC
CC
00
30
30
30
30
30
30
30
30
30
ENDCHAR
STARTCHAR 0458
ENCODING 1112
SWIDTH 240 0
DWIDTH 4 0
BBX 4 15 -1 -3
BITMAP
30
30
00
30
30
30
30
30
30
30
30
30
30
F0
E0
ENDCHAR
STARTCHAR 0459
ENCODING 1113
SWIDTH 960 0
DWIDTH 16 0
BBX 15 9 0 0
BITMAP
3F80
3F80
3180
31FC
31FE
3186
3186
F1FE
E1FC
ENDCHAR
STARTCHAR 045A
ENCODING 1114
SWIDTH 900 0
DWIDTH 15 0
BBX 13 9 1 0
BITMAP
C600
C600
C600
FFF0
FFF8
C618
C618
C7F8
C7F0
ENDCHAR
STARTCHAR 045B
ENCODING 1115
SWIDTH 600 0
DWIDTH 10 0
BBX 9 12 0 0
BITMAP
6000
FC00
6000
6F00
7F80
7180
6180
6180
6180
6180
6180
6180
ENDCHAR
STARTCHAR 045C
ENCODING 1116
SWIDTH 540 0
DWIDTH 9 0
BBX 8 12 1 0
BITMAP
18
30
00
C7
CF
CC
DC
F8
FC
CE
C6
C7
ENDCHAR
STARTCHAR 045D
ENCODING 1117
SWIDTH 600 0
DWIDTH 10 0
BBX 8 12 1 0
BITMAP
30
18
00
C3
C7
CF
CF
DB
F3
F3
E3
C3
ENDCHAR
STARTCHAR 045E
ENCODING 1118
SWIDTH 540 0
DWIDTH 9 0
BBX 9 15 0 -3
BITMAP
2200
1C00
0000
C180
C180
6300
6300
3600
3600
3E00
1C00
1C00
1800
7800
7000
ENDCHAR
STARTCHAR 045F
ENCODING 1119
SWIDTH 600 0
DWIDTH 10 0
BBX 8 11 1 -2
BITMAP
C3
C3
C3
C3
C3
C3
C3
FF
FF
18
18
ENDCHAR
STARTCHAR 0460
ENCODING 1120
SWIDTH 1320 0
DWIDTH 22 0
BBX 20 12 1 0
BITMAP
1F9F80
3F0FC0
7000E0
E00070
C00030
C00030
C06030
C06030
E06070
70F0E0
3FFFC0
1F9F80
ENDCHAR
STARTCHAR 0461
ENCODING 1121
SWIDTH 780 0
DWIDTH 13 0
BBX 13 9 0 0
BITMAP
C618
C630
C630
6630
6760
2F60
3FC0
39C0
18C0
ENDCHAR
STARTCHAR 0462
ENCODING 1122
SWIDTH 900 0
DWIDTH 15 0
BBX 14 12 0 0
BITMAP
0C00
0C00
FFC0
0C00
0C00
0FF0
0FF8
0C1C
0C0C
0C1C
0FF8
0FF0
ENDCHAR
STARTCHAR 0463
ENCODING 1123
SWIDTH 720 0
DWIDTH 12 0
BBX 11 12 0 0
BITMAP
1800
1800
1800
FF00
FF00
1800
1FC0
1FE0
1860
1860
1FE0
1FC0
ENDCHAR
STARTCHAR 0464
ENCODING 1124
SWIDTH 1020 0
DWIDTH 17 0
BBX 15 12 1 0
BITMAP
C0F8
C3FC
C30E
C604
C600
FFE0
FFE0
C600
C604
C30E
C3FC
C0F8
ENDCHAR
STARTCHAR 0465
ENCODING 1125
SWIDTH 840 0
DWIDTH 14 0
BBX 12 9 1 0
BITMAP
C3C0
C7E0
CC30
FF80
FF80
CC00
CE30
C7E0
C3C0
ENDCHAR
STARTCHAR 0466
ENCODING 1126
SWIDTH 660 0
DWIDTH 11 0
BBX 11 12 0 0
BITMAP
0E00
0E00
0E00
1B00
1B00
3B80
3F80
3F80
64C0
64C0
64C0
C460
ENDCHAR
STARTCHAR 0467
ENCODING 1127
SWIDTH 540 0
DWIDTH 9 0
BBX 9 9 0 0
BITMAP
1C00
1C00
1C00
3600
3600
7F00
7300
7300
C180
ENDCHAR
STARTCHAR 0468
ENCODING 1128
SWIDTH 960 0
DWIDTH 16 0
BBX 14 12 1 0
BITMAP
C1C0
C1C0
C1C0
C360
C360
C770
FFF0
FFF0
CC98
CC98
CC98
D88C
ENDCHAR
STARTCHAR 0469
ENCODING 1129
SWIDTH 840 0
DWIDTH 14 0
BBX 12 9 1 0
BITMAP
C380
C380
C380
C6C0
C6C0
FFE0
CD60
CD60
D930
ENDCHAR
STARTCHAR 046A
ENCODING 1130
SWIDTH 840 0
DWIDTH 14 0
BBX 12 12 1 0
BITMAP
7FE0
7FE0
30C0
1980
1F80
3FC0
7FE0
E670
C630
C630
C630
C630
ENDCHAR
STARTCHAR 046B
ENCODING 1131
SWIDTH 780 0
DWIDTH 13 0
BBX 10 9 1 0
BITMAP
7F80
3F00
3300
1E00
3F00
7F80
EDC0
CCC0
CCC0
ENDCHAR
STARTCHAR 046C
ENCODING 1132
SWIDTH 1080 0
DWIDTH 18 0
BBX 16 12 1 0
BITMAP
C7FE
C7FE
C30C
C198
C1F8
FFFC
FFFE
CE67
CC63
CC63
CC63
CC63
ENDCHAR
STARTCHAR 046D
ENCODING 1133
SWIDTH 1020 0
DWIDTH 17 0
BBX 15 9 1 0
BITMAP
C3FC
C1F8
C198
C0F0
FFF8
FFFC
C76E
C666
C666
ENDCHAR
STARTCHAR 046E
ENCODING 1134
SWIDTH 660 0
DWIDTH 11 0
BBX 9 18 1 -3
BITMAP
2300
1400
1400
3E00
FF80
C180
0180
0300
0E00
0F00
0180
0180
0380
7F00
FE00
C000
FF00
7F80
ENDCHAR
STARTCHAR 046F
ENCODING 1135
SWIDTH 480 0
DWIDTH 8 0
BBX 7 15 1 -3
BITMAP
46
28
28
38
FC
CC
0C
18
1C
0C
7C
F8
C0
FE
7E
ENDCHAR
STARTCHAR 0470
ENCODING 1136
SWIDTH 840 0
DWIDTH 14 0
BBX 12 12 1 0
BITMAP
C630
C630
6630
6630
6630
7670
3FE0
1FC0
0600
0600
0600
0600
ENDCHAR
STARTCHAR 0471
ENCODING 1137
SWIDTH 780 0
DWIDTH 13 0
BBX 11 12 1 -3
BITMAP
C660
C660
C660
6660
6660
6660
66E0
3FC0
1F80
0600
0600
0600
ENDCHAR
STARTCHAR 0472
ENCODING 1138
SWIDTH 780 0
DWIDTH 13 0
BBX 11 12 1 0
BITMAP
1F00
3F80
60C0
C060
C7E0
FFE0
F860
C060
C060
61C0
3F80
1F00
ENDCHAR
STARTCHAR 0473
ENCODING 1139
SWIDTH 600 0
DWIDTH 10 0
BBX 8 9 1 0
BITMAP
3C
7E
E3
CF
FF
F3
C7
7E
3C
ENDCHAR
STARTCHAR 0474
ENCODING 1140
SWIDTH 840 0
DWIDTH 14 0
BBX 14 12 0 0
BITMAP
C038
C07C
60E8
60C0
70C0
3180
3180
1980
1B00
1B00
0F00
0E00
ENDCHAR
STARTCHAR 0475
ENCODING 1141
SWIDTH 660 0
DWIDTH 11 0
BBX 11 9 0 0
BITMAP
C1C0
61E0
6300
7300
3600
3600
1E00
1C00
1C00
ENDCHAR
STARTCHAR 0476
ENCODING 1142
SWIDTH 840 0
DWIDTH 14 0
BBX 14 15 0 0
BITMAP
3600
1B00
0000
C038
C07C
60E8
60C0
70C0
3180
3180
1980
1B00
1B00
0F00
0E00
ENDCHAR
STARTCHAR 0477
ENCODING 1143
SWIDTH 660 0
DWIDTH 11 0
BBX 11 12 0 0
BITMAP
6C00
3600
0000
C1C0
61E0
6300
7300
3600
3600
1E00
1C00
1C00
ENDCHAR
STARTCHAR 0478
ENCODING 1144
SWIDTH 1140 0
DWIDTH 19 0
BBX 18 15 1 -3
BITMAP
3E0000
7F0000
630000
C1E0C0
C1B180
C1B180
C1B180
C19B00
C19B00
631B00
7F0E00
3E0E00
001E00
007C00
007800
ENDCHAR
STARTCHAR 0479
ENCODING 1145
SWIDTH 1020 0
DWIDTH 17 0
BBX 16 12 1 -3
BITMAP
3983
7CC6
EEC6
C6CE
C66C
C66C
EE78
7C38
3838
0070
01F0
01E0
ENDCHAR
STARTCHAR 047A
ENCODING 1146
SWIDTH 840 0
DWIDTH 14 0
BBX 13 14 0 -1
BITMAP
0700
1FC0
3FE0
7270
E038
C018
C018
C018
C018
E038
7270
3FE0
1FC0
0700
ENDCHAR
STARTCHAR 047B
ENCODING 1147
SWIDTH 660 0
DWIDTH 11 0
BBX 10 11 0 -1
BITMAP
0C00
3F00
7F80
E1C0
C0C0
C0C0
C0C0
E1C0
7F80
3F00
0C00
ENDCHAR
STARTCHAR 047C
ENCODING 1148
SWIDTH 1320 0
DWIDTH 22 0
BBX 20 17 1 0
BITMAP
007000
008C00
016300
002000
004000
1F9F80
3F0FC0
7000E0
E00070
C00030
C00030
C00030
C00030
E00070
70F0E0
3FFFC0
1F9F80
ENDCHAR
STARTCHAR 047D
ENCODING 1149
SWIDTH 900 0
DWIDTH 15 0
BBX 13 15 1 0
BITMAP
0700
08C0
1630
0200
0400
0000
3060
7070
E038
C018
C018
C018
E238
7FF0
3DE0
ENDCHAR
STARTCHAR 047E
ENCODING 1150
SWIDTH 1320 0
DWIDTH 22 0
BBX 20 15 1 0
BITMAP
01FC00
012400
000000
1F9F80
3F0FC0
7000E0
E00070
C00030
C00030
C06030
C06030
E06070
70F0E0
3FFFC0
1F9F80
ENDCHAR
STARTCHAR 047F
ENCODING 1151
SWIDTH 780 0
DWIDTH 13 0
BBX 13 12 0 0
BITMAP
3F80
2480
0000
C618
C630
C630
6630
6760
2F60
3FC0
39C0
18C0
ENDCHAR
STARTCHAR 0480
ENCODING 1152
SWIDTH 720 0
DWIDTH 12 0
BBX 10 15 1 -3
BITMAP
1F00
3F80
61C0
C0C0
C000
C000
C000
C000
C000
6000
7C00
1C00
0C00
0C00
0C00
ENDCHAR
STARTCHAR 0481
ENCODING 1153
SWIDTH 540 0
DWIDTH 9 0
BBX 7 12 1 -3
BITMAP
3C
7E
C6
C0
C0
C0
E0
78
38
18
18
18
ENDCHAR
STARTCHAR 0482
ENCODING 1154
SWIDTH 600 0
DWIDTH 10 0
BBX 10 12 0 0
BITMAP
0300
0600
6600
7F00
1FC0
0CC0
CC00
FE00
3F80
1980
1800
1800
ENDCHAR
STARTCHAR 0483
ENCODING 1155
SWIDTH 0 0
DWIDTH 0 0
BBX 6 3 -3 10
BITMAP
04
FC
80
ENDCHAR
STARTCHAR 0484
ENCODING 1156
SWIDTH 0 0
DWIDTH 0 0
BBX 6 3 -3 10
BITMAP
38
E4
C4
ENDCHAR
STARTCHAR 0485
ENCODING 1157
SWIDTH 0 0
DWIDTH 0 0
BBX 2 4 -1 8
BITMAP
C0
C0
80
40
ENDCHAR
STARTCHAR 0486
ENCODING 1158
SWIDTH 0 0
DWIDTH 0 0
BBX 2 4 -1 8
BITMAP
C0
C0
40
80
ENDCHAR
STARTCHAR 0487
ENCODING 1159
SWIDTH 0 0
DWIDTH 0 0
BBX 9 3 -4 11
BITMAP
3800
4600
8180
ENDCHAR
STARTCHAR 0488
ENCODING 1160
SWIDTH 0 0
DWIDTH 0 0
BBX 18 15 -9 -3
BITMAP
01E000
012000
780780
480480
000000
000000
F003C0
900240
000000
000000
000000
780780
480480
01E000
012000
ENDCHAR
STARTCHAR 0489
ENCODING 1161
SWIDTH 0 0
DWIDTH 0 0
BBX 16 17 -8 -3
BITMAP
0080
0100
2180
2007
300C
1000
0000
0000
A006
6005
0000
0008
300C
E004
0184
0080
0100
ENDCHAR
STARTCHAR 048A
ENCODING 1162
SWIDTH 720 0
DWIDTH 12 0
BBX 11 18 1 -3
BITMAP
1100
0E00
0000
C0C0
C1C0
C3C0
C3C0
C6C0
CCC0
CCC0
D8C0
F0C0
F0C0
E0E0
C0E0
0060
00C0
00C0
ENDCHAR
STARTCHAR 048B
ENCODING 1163
SWIDTH 600 0
DWIDTH 10 0
BBX 9 14 1 -2
BITMAP
2200
1C00
0000
C300
C700
CF00
CF00
DB00
F300
F300
E380
C380
0100
0300
ENDCHAR
STARTCHAR 048C
ENCODING 1164
SWIDTH 720 0
DWIDTH 12 0
BBX 11 12 0 0
BITMAP
6000
F000
F000
6000
6000
7F80
7FC0
60E0
6060
60E0
7FC0
7F80
ENDCHAR
STARTCHAR 048D
ENCODING 1165
SWIDTH 600 0
DWIDTH 10 0
BBX 9 12 0 0
BITMAP
6000
F000
F000
6000
6000
6000
7F00
7F80
6180
6180
7F80
7F00
ENDCHAR
STARTCHAR 048E
ENCODING 1166
SWIDTH 660 0
DWIDTH 11 0
BBX 9 12 1 0
BITMAP
FE00
FF00
C380
C580
C780
FF00
FF80
C080
C000
C000
C000
C000
ENDCHAR
STARTCHAR 048F
ENCODING 1167
SWIDTH 600 0
DWIDTH 10 0
BBX 8 12 1 -3
BITMAP
DC
FE
E7
C3
C3
CB
EF
FE
DF
C1
C0
C0
ENDCHAR
STARTCHAR 0490
ENCODING 1168
SWIDTH 480 0
DWIDTH 8 0
BBX 6 15 1 0
BITMAP
0C
0C
0C
FC
FC
C0
C0
C0
C0
C0
C0
C0
C0
C0
C0
ENDCHAR
STARTCHAR 0491
ENCODING 1169
SWIDTH 480 0
DWIDTH 8 0
BBX 6 11 1 0
BITMAP
0C
0C
FC
FC
C0
C0
C0
C0
C0
C0
C0
ENDCHAR
STARTCHAR 0492
ENCODING 1170
SWIDTH 600 0
DWIDTH 10 0
BBX 10 12 0 0
BITMAP
7FC0
7FC0
6000
6000
6000
FC00
FC00
6000
6000
6000
6000
6000
ENDCHAR
STARTCHAR 0493
ENCODING 1171
SWIDTH 420 0
DWIDTH 7 0
BBX 7 9 0 0
BITMAP
7E
7E
60
60
F8
F8
60
60
60
ENDCHAR
STARTCHAR 0494
ENCODING 1172
SWIDTH 720 0
DWIDTH 12 0
BBX 10 16 1 -4
BITMAP
FF00
FF00
C000
C000
FE00
FF80
C180
C0C0
C0C0
C0C0
C0C0
C0C0
00C0
C180
7F80
3E00
ENDCHAR
STARTCHAR 0495
ENCODING 1173
SWIDTH 600 0
DWIDTH 10 0
BBX 8 13 1 -4
BITMAP
FC
FC
C0
FC
FE
C7
C3
C3
C3
03
C7
7E
3C
ENDCHAR
STARTCHAR 0496
ENCODING 1174
SWIDTH 900 0
DWIDTH 15 0
BBX 14 15 0 -3
BITMAP
E31C
F33C
3330
3B70
1B60
1FE0
1FE0
3330
3330
6318
631C
C30C
000C
000C
000C
ENDCHAR
STARTCHAR 0497
ENCODING 1175
SWIDTH 720 0
DWIDTH 12 0
BBX 12 11 0 -2
BITMAP
E670
F6F0
36C0
3FC0
3FC0
36C0
6660
6670
C670
0030
0030
ENDCHAR
STARTCHAR 0498
ENCODING 1176
SWIDTH 660 0
DWIDTH 11 0
BBX 10 15 0 -3
BITMAP
3F00
7F80
E1C0
40C0
0180
0700
0780
00C0
40C0
E1C0
7F80
3F00
0600
0600
1C00
ENDCHAR
STARTCHAR 0499
ENCODING 1177
SWIDTH 480 0
DWIDTH 8 0
BBX 6 12 1 -3
BITMAP
78
FC
CC
18
1C
0C
CC
FC
78
30
30
E0
ENDCHAR
STARTCHAR 049A
ENCODING 1178
SWIDTH 600 0
DWIDTH 10 0
BBX 9 15 1 -3
BITMAP
C380
C780
C600
CC00
CC00
F800
FC00
CE00
C600
C300
C380
C180
0180
0180
0180
ENDCHAR
STARTCHAR 049B
ENCODING 1179
SWIDTH 540 0
DWIDTH 9 0
BBX 8 11 1 -2
BITMAP
C7
CF
DC
F8
F8
CC
C6
C7
C3
03
03
ENDCHAR
STARTCHAR 049C
ENCODING 1180
SWIDTH 600 0
DWIDTH 10 0
BBX 9 12 1 0
BITMAP
C380
C780
D600
DC00
DC00
F800
FC00
DE00
D600
D300
C300
C180
ENDCHAR
STARTCHAR 049D
ENCODING 1181
SWIDTH 540 0
DWIDTH 9 0
BBX 8 9 1 0
BITMAP
C7
DF
DC
FC
F8
DC
D6
D6
C3
ENDCHAR
STARTCHAR 049E
ENCODING 1182
SWIDTH 600 0
DWIDTH 10 0
BBX 10 12 0 0
BITMAP
61C0
63C0
F700
6600
6E00
7C00
7E00
6700
6300
6180
6180
60C0
ENDCHAR
STARTCHAR 049F
ENCODING 1183
SWIDTH 540 0
DWIDTH 9 0
BBX 9 12 0 0
BITMAP
6000
F000
F000
6380
6780
6600
6E00
7C00
7E00
6700
6300
6380
ENDCHAR
STARTCHAR 04A0
ENCODING 1184
SWIDTH 780 0
DWIDTH 13 0
BBX 13 12 0 0
BITMAP
FC38
FC78
0CE0
0CC0
0DC0
0F80
0FC0
0CE0
0C60
0C30
0C30
0C18
ENDCHAR
STARTCHAR 04A1
ENCODING 1185
SWIDTH 660 0
DWIDTH 11 0
BBX 11 9 0 0
BITMAP
F9C0
F9C0
1B80
1B00
1F00
1F80
19C0
18C0
18E0
ENDCHAR
STARTCHAR 04A2
ENCODING 1186
SWIDTH 720 0
DWIDTH 12 0
BBX 10 15 1 -3
BITMAP
C180
C180
C180
C180
C180
FF80
FF80
C180
C180
C180
C1C0
C1C0
00C0
00C0
00C0
ENDCHAR
STARTCHAR 04A3
ENCODING 1187
SWIDTH 600 0
DWIDTH 10 0
BBX 9 11 1 -2
BITMAP
C300
C300
C300
FF00
FF00
C300
C300
C380
C380
0180
0180
ENDCHAR
STARTCHAR 04A4
ENCODING 1188
SWIDTH 900 0
DWIDTH 15 0
BBX 14 12 1 0
BITMAP
C0FC
C0FC
C0C0
C0C0
C0C0
FFC0
FFC0
C0C0
C0C0
C0C0
C0C0
C0C0
ENDCHAR
STARTCHAR 04A5
ENCODING 1189
SWIDTH 720 0
DWIDTH 12 0
BBX 11 9 1 0
BITMAP
C3E0
C3E0
C300
FF00
FF00
C300
C300
C300
C300
ENDCHAR
STARTCHAR 04A6
ENCODING 1190
SWIDTH 1140 0
DWIDTH 19 0
BBX 17 16 1 -4
BITMAP
FF8000
FF8000
C18000
C18000
C1FC00
C1FF00
C18300
C18180
C18180
C18180
C18180
C18180
000180
018300
00FF00
007C00
ENDCHAR
STARTCHAR 04A7
ENCODING 1191
SWIDTH 960 0
DWIDTH 16 0
BBX 14 13 1 -4
BITMAP
FF00
FF00
C300
C3F0
C3F8
C31C
C30C
C30C
C30C
000C
031C
01F8
00F0
ENDCHAR
STARTCHAR 04A8
ENCODING 1192
SWIDTH 720 0
DWIDTH 12 0
BBX 12 12 0 0
BITMAP
3C00
7C00
6380
C7C0
CE60
CC60
CC60
CC60
EEE0
67C0
7FF0
1FF0
ENDCHAR
STARTCHAR 04A9
ENCODING 1193
SWIDTH 600 0
DWIDTH 10 0
BBX 10 9 0 0
BITMAP
3C00
7800
E700
CD80
CD80
CD80
EF80
7FC0
3FC0
ENDCHAR
STARTCHAR 04AA
ENCODING 1194
SWIDTH 720 0
DWIDTH 12 0
BBX 10 15 1 -3
BITMAP
1F00
3F80
61C0
C0C0
C000
C000
C000
C000
C0C0
61C0
7F80
1F00
0600
0600
1C00
ENDCHAR
STARTCHAR 04AB
ENCODING 1195
SWIDTH 540 0
DWIDTH 9 0
BBX 7 12 1 -3
BITMAP
3C
7E
E6
C0
C0
C0
E6
7E
3C
0C
0C
38
ENDCHAR
STARTCHAR 04AC
ENCODING 1196
SWIDTH 600 0
DWIDTH 10 0
BBX 10 15 0 -3
BITMAP
FFC0
FFC0
0C00
0C00
0C00
0C00
0C00
0C00
0C00
0C00
0E00
0E00
0600
0600
0600
ENDCHAR
STARTCHAR 04AD
ENCODING 1197
SWIDTH 480 0
DWIDTH 8 0
BBX 8 11 0 -2
BITMAP
FF
FF
18
18
18
18
18
1C
1C
0C
0C
ENDCHAR
STARTCHAR 04AE
ENCODING 1198
SWIDTH 540 0
DWIDTH 9 0
BBX 9 12 1 0
BITMAP
C380
6300
6700
3600
3C00
3C00
1800
1800
1800
1800
1800
1800
ENDCHAR
STARTCHAR 04AF
ENCODING 1199
SWIDTH 540 0
DWIDTH 9 0
BBX 8 12 1 -3
BITMAP
C3
67
66
66
3E
3C
3C
1C
18
18
18
18
ENDCHAR
STARTCHAR 04B0
ENCODING 1200
SWIDTH 540 0
DWIDTH 9 0
BBX 9 12 1 0
BITMAP
C380
6300
6700
3600
3C00
FF80
FF80
1800
1800
1800
1800
1800
ENDCHAR
STARTCHAR 04B1
ENCODING 1201
SWIDTH 540 0
DWIDTH 9 0
BBX 8 13 1 -4
BITMAP
C3
67
66
66
3E
3C
3C
1C
18
7E
7E
18
18
ENDCHAR
STARTCHAR 04B2
ENCODING 1202
SWIDTH 660 0
DWIDTH 11 0
BBX 10 15 1 -3
BITMAP
E1C0
6180
3300
3B00
1E00
0C00
0E00
1E00
3300
3380
61C0
E0C0
00C0
00C0
00C0
ENDCHAR
STARTCHAR 04B3
ENCODING 1203
SWIDTH 540 0
DWIDTH 9 0
BBX 8 11 1 -2
BITMAP
E7
66
3C
3C
18
3C
3E
67
E3
03
03
ENDCHAR
STARTCHAR 04B4
ENCODING 1204
SWIDTH 900 0
DWIDTH 15 0
BBX 14 15 0 -3
BITMAP
FF18
FF18
1818
1818
1818
1818
1818
1818
1818
1818
1FFC
1FFC
000C
000C
000C
ENDCHAR
STARTCHAR 04B5
ENCODING 1205
SWIDTH 720 0
DWIDTH 12 0
BBX 11 11 0 -2
BITMAP
FCC0
FCC0
30C0
30C0
30C0
30C0
30C0
3FE0
3FE0
0060
0060
ENDCHAR
STARTCHAR 04B6
ENCODING 1206
SWIDTH 720 0
DWIDTH 12 0
BBX 11 15 1 -3
BITMAP
C0C0
C0C0
C0C0
C0C0
C0C0
E0C0
7FC0
3FC0
00C0
00C0
00E0
00E0
0060
0060
0060
ENDCHAR
STARTCHAR 04B7
ENCODING 1207
SWIDTH 600 0
DWIDTH 10 0
BBX 9 11 1 -2
BITMAP
C300
C300
C300
C300
FF00
7F00
0300
0380
0380
0180
0180
ENDCHAR
STARTCHAR 04B8
ENCODING 1208
SWIDTH 720 0
DWIDTH 12 0
BBX 9 12 1 0
BITMAP
C180
C180
C180
CD80
CD80
ED80
7F80
3F80
0D80
0D80
0180
0180
ENDCHAR
STARTCHAR 04B9
ENCODING 1209
SWIDTH 600 0
DWIDTH 10 0
BBX 8 9 1 0
BITMAP
C3
C3
D3
D3
FF
7F
13
13
03
ENDCHAR
STARTCHAR 04BA
ENCODING 1210
SWIDTH 720 0
DWIDTH 12 0
BBX 10 12 1 0
BITMAP
C000
C000
C000
C000
FF00
FF80
C1C0
C0C0
C0C0
C0C0
C0C0
C0C0
ENDCHAR
STARTCHAR 04BB
ENCODING 1211
SWIDTH 600 0
DWIDTH 10 0
BBX 8 12 1 0
BITMAP
C0
C0
C0
DE
FF
E3
C3
C3
C3
C3
C3
C3
ENDCHAR
STARTCHAR 04BC
ENCODING 1212
SWIDTH 900 0
DWIDTH 15 0
BBX 14 12 0 0
BITMAP
01E0
07F0
0618
CC0C
CC0C
FFFC
7FFC
0C00
0C0C
061C
03F8
01F0
ENDCHAR
STARTCHAR 04BD
ENCODING 1213
SWIDTH 720 0
DWIDTH 12 0
BBX 10 9 1 0
BITMAP
0700
CF80
D8C0
FFC0
7FC0
1800
1CC0
0FC0
0780
ENDCHAR
STARTCHAR 04BE
ENCODING 1214
SWIDTH 900 0
DWIDTH 15 0
BBX 14 14 0 -2
BITMAP
03E0
07F0
0E38
DC1C
D80C
FFFC
7FFC
1800
1C0C
0E1C
07F8
03F0
00C0
00C0
ENDCHAR
STARTCHAR 04BF
ENCODING 1215
SWIDTH 720 0
DWIDTH 12 0
BBX 11 11 0 -2
BITMAP
0780
0FC0
DCE0
D860
7FE0
1800
1C60
0FE0
07C0
0180
0180
ENDCHAR
STARTCHAR 04C0
ENCODING 1216
SWIDTH 240 0
DWIDTH 4 0
BBX 2 12 1 0
BITMAP
C0
C0
C0
C0
C0
C0
C0
C0
C0
C0
C0
C0
ENDCHAR
STARTCHAR 04C1
ENCODING 1217
SWIDTH 840 0
DWIDTH 14 0
BBX 14 15 0 0
BITMAP
0440
0380
0000
E31C
F33C
3330
1B70
1B60
0FC0
1FE0
3B70
3330
6318
6318
C30C
ENDCHAR
STARTCHAR 04C2
ENCODING 1218
SWIDTH 720 0
DWIDTH 12 0
BBX 12 12 0 0
BITMAP
0880
0700
0000
E670
F6F0
36C0
1F80
1F80
36C0
6660
6660
C630
ENDCHAR
STARTCHAR 04C3
ENCODING 1219
SWIDTH 720 0
DWIDTH 12 0
BBX 10 16 1 -4
BITMAP
C380
C780
CE00
CC00
DC00
FE00
FF80
C380
C1C0
C0C0
C0C0
C0C0
00C0
C180
7F80
3E00
ENDCHAR
STARTCHAR 04C4
ENCODING 1220
SWIDTH 600 0
DWIDTH 10 0
BBX 8 12 1 -3
BITMAP
CE
CE
D8
D8
FC
FE
C7
C3
C3
07
FE
7C
ENDCHAR
STARTCHAR 04C5
ENCODING 1221
SWIDTH 720 0
DWIDTH 12 0
BBX 12 15 0 -3
BITMAP
3FE0
3FE0
3060
3060
3060
3060
3060
3060
3060
3060
F070
E070
0030
0060
0060
ENDCHAR
STARTCHAR 04C6
ENCODING 1222
SWIDTH 660 0
DWIDTH 11 0
BBX 11 11 0 -2
BITMAP
3FC0
3FC0
30C0
30C0
30C0
30C0
30C0
F0E0
E0E0
0040
00C0
ENDCHAR
STARTCHAR 04C7
ENCODING 1223
SWIDTH 720 0
DWIDTH 12 0
BBX 10 16 1 -4
BITMAP
C0C0
C0C0
C0C0
C0C0
C0C0
FFC0
FFC0
C0C0
C0C0
C0C0
C0C0
C0C0
00C0
C180
7F80
3E00
ENDCHAR
STARTCHAR 04C8
ENCODING 1224
SWIDTH 600 0
DWIDTH 10 0
BBX 8 12 1 -3
BITMAP
C3
C3
C3
FF
FF
C3
C3
C3
C3
07
FE
7C
ENDCHAR
STARTCHAR 04C9
ENCODING 1225
SWIDTH 720 0
DWIDTH 12 0
BBX 11 15 1 -3
BITMAP
C0C0
C0C0
C0C0
C0C0
C0C0
FFC0
FFC0
C0C0
C0C0
C0C0
C0E0
C0E0
0060
00C0
00C0
ENDCHAR
STARTCHAR 04CA
ENCODING 1226
SWIDTH 600 0
DWIDTH 10 0
BBX 9 11 1 -2
BITMAP
C300
C300
C300
FF00
FF00
C300
C300
C380
C380
0100
0300
ENDCHAR
STARTCHAR 04CB
ENCODING 1227
SWIDTH 720 0
DWIDTH 12 0
BBX 10 15 1 -3
BITMAP
C0C0
C0C0
C0C0
C0C0
C0C0
E0C0
7FC0
3FC0
00C0
00C0
01C0
01C0
0180
0180
0180
ENDCHAR
STARTCHAR 04CC
ENCODING 1228
SWIDTH 600 0
DWIDTH 10 0
BBX 8 11 1 -2
BITMAP
C3
C3
C3
C3
FF
7F
03
07
07
06
06
ENDCHAR
STARTCHAR 04CD
ENCODING 1229
SWIDTH 840 0
DWIDTH 14 0
BBX 12 15 1 -3
BITMAP
E0E0
E0E0
F1E0
F1E0
D160
DB60
DB60
DB60
CE60
CE60
CE70
C470
0030
0060
0060
ENDCHAR
STARTCHAR 04CE
ENCODING 1230
SWIDTH 780 0
DWIDTH 13 0
BBX 12 11 1 -2
BITMAP
E0E0
E0E0
F1E0
F1E0
DB60
DB60
CE60
CE70
C470
0020
0060
ENDCHAR
STARTCHAR 04CF
ENCODING 1231
SWIDTH 240 0
DWIDTH 4 0
BBX 2 12 1 0
BITMAP
C0
C0
C0
C0
C0
C0
C0
C0
C0
C0
C0
C0
ENDCHAR
STARTCHAR 04D0
ENCODING 1232
SWIDTH 660 0
DWIDTH 11 0
BBX 11 15 0 0
BITMAP
1100
0E00
0000
0E00
0E00
1B00
1B00
1B00
3180
3180
3F80
7FC0
60C0
60C0
C060
ENDCHAR
STARTCHAR 04D1
ENCODING 1233
SWIDTH 540 0
DWIDTH 9 0
BBX 8 12 1 0
BITMAP
44
38
00
7C
FE
C6
1E
7E
E6
C6
FE
7B
ENDCHAR
STARTCHAR 04D2
ENCODING 1234
SWIDTH 660 0
DWIDTH 11 0
BBX 11 15 0 0
BITMAP
1980
1980
0000
0E00
0E00
1B00
1B00
1B00
3180
3180
3F80
7FC0
60C0
60C0
C060
ENDCHAR
STARTCHAR 04D3
ENCODING 1235
SWIDTH 540 0
DWIDTH 9 0
BBX 8 12 1 0
BITMAP
66
66
00
7C
FE
C6
1E
7E
E6
C6
FE
7B
ENDCHAR
STARTCHAR 04D4
ENCODING 1236
SWIDTH 1020 0
DWIDTH 17 0
BBX 17 12 -1 0
BITMAP
03FF80
07FF80
06C000
0CC000
0CC000
18FF80
18FF80
3FC000
3FC000
60C000
60FF80
C0FF80
ENDCHAR
STARTCHAR 04D5
ENCODING 1237
SWIDTH 900 0
DWIDTH 15 0
BBX 13 9 1 0
BITMAP
3DE0
7FF0
C618
1FF8
7FF8
E600
C718
FFF0
79E0
ENDCHAR
STARTCHAR 04D6
ENCODING 1238
SWIDTH 660 0
DWIDTH 11 0
BBX 9 15 1 0
BITMAP
2200
1C00
0000
FF80
FF80
C000
C000
C000
FF80
FF80
C000
C000
C000
FF80
FF80
ENDCHAR
STARTCHAR 04D7
ENCODING 1239
SWIDTH 540 0
DWIDTH 9 0
BBX 7 12 1 0
BITMAP
44
38
00
38
7C
C6
FE
FE
C0
E6
7C
38
ENDCHAR
STARTCHAR 04D8
ENCODING 1240
SWIDTH 720 0
DWIDTH 12 0
BBX 10 12 1 0
BITMAP
3E00
7F00
E180
C0C0
00C0
FFC0
FFC0
C0C0
C0C0
6180
3F80
1E00
ENDCHAR
STARTCHAR 04D9
ENCODING 1241
SWIDTH 540 0
DWIDTH 9 0
BBX 7 9 1 0
BITMAP
78
FC
CE
06
FE
FE
C6
7C
38
ENDCHAR
STARTCHAR 04DA
ENCODING 1242
SWIDTH 720 0
DWIDTH 12 0
BBX 10 15 1 0
BITMAP
3300
3300
0000
3E00
7F00
E180
C0C0
00C0
FFC0
FFC0
C0C0
C0C0
6180
3F80
1E00
ENDCHAR
STARTCHAR 04DB
ENCODING 1243
SWIDTH 540 0
DWIDTH 9 0
BBX 7 12 1 0
BITMAP
CC
CC
00
78
FC
CE
06
FE
FE
C6
7C
38
ENDCHAR
STARTCHAR 04DC
ENCODING 1244
SWIDTH 840 0
DWIDTH 14 0
BBX 14 15 0 0
BITMAP
0CC0
0CC0
0000
E31C
F33C
3330
1B70
1B60
0FC0
1FE0
3B70
3330
6318
6318
C30C
ENDCHAR
STARTCHAR 04DD
ENCODING 1245
SWIDTH 720 0
DWIDTH 12 0
BBX 12 12 0 0
BITMAP
1980
1980
0000
E670
F6F0
36C0
1F80
1F80
36C0
6660
6660
C630
ENDCHAR
STARTCHAR 04DE
ENCODING 1246
SWIDTH 660 0
DWIDTH 11 0
BBX 10 15 0 0
BITMAP
3300
3300
0000
3F00
7F80
E1C0
40C0
0180
0700
0780
00C0
40C0
E1C0
7F80
3F00
ENDCHAR
STARTCHAR 04DF
ENCODING 1247
SWIDTH 480 0
DWIDTH 8 0
BBX 6 12 1 0
BITMAP
CC
CC
00
78
FC
CC
18
18
0C
CC
FC
78
ENDCHAR
STARTCHAR 04E0
ENCODING 1248
SWIDTH 660 0
DWIDTH 11 0
BBX 10 12 0 0
BITMAP
7FC0
7FC0
0300
0600
0F00
0F80
01C0
00C0
40C0
E1C0
7F80
3F00
ENDCHAR
STARTCHAR 04E1
ENCODING 1249
SWIDTH 540 0
DWIDTH 9 0
BBX 8 12 0 -3
BITMAP
7F
7F
06
0C
1E
07
03
03
C3
E7
7E
3C
ENDCHAR
STARTCHAR 04E2
ENCODING 1250
SWIDTH 720 0
DWIDTH 12 0
BBX 10 15 1 0
BITMAP
3F00
3F00
0000
C0C0
C1C0
C3C0
C3C0
C6C0
CCC0
CCC0
D8C0
F0C0
F0C0
E0C0
C0C0
ENDCHAR
STARTCHAR 04E3
ENCODING 1251
SWIDTH 600 0
DWIDTH 10 0
BBX 8 12 1 0
BITMAP
7E
7E
00
C3
C7
CF
CF
DB
F3
F3
E3
C3
ENDCHAR
STARTCHAR 04E4
ENCODING 1252
SWIDTH 720 0
DWIDTH 12 0
BBX 10 15 1 0
BITMAP
3300
3300
0000
C0C0
C1C0
C3C0
C3C0
C6C0
CCC0
CCC0
D8C0
F0C0
F0C0
E0C0
C0C0
ENDCHAR
STARTCHAR 04E5
ENCODING 1253
SWIDTH 600 0
DWIDTH 10 0
BBX 8 12 1 0
BITMAP
66
66
00
C3
C7
CF
CF
DB
F3
F3
E3
C3
ENDCHAR
STARTCHAR 04E6
ENCODING 1254
SWIDTH 780 0
DWIDTH 13 0
BBX 11 15 1 0
BITMAP
1980
1980
0000
1F00
7FC0
60C0
E060
C060
C060
C060
C060
E060
60C0
7FC0
1F00
ENDCHAR
STARTCHAR 04E7
ENCODING 1255
SWIDTH 600 0
DWIDTH 10 0
BBX 8 12 1 0
BITMAP
66
66
00
3C
7E
E7
C3
C3
C3
E7
7E
3C
ENDCHAR
STARTCHAR 04E8
ENCODING 1256
SWIDTH 780 0
DWIDTH 13 0
BBX 11 12 1 0
BITMAP
1F00
3F80
71C0
E0E0
C060
FFE0
FFE0
C060
E0E0
71C0
3F80
1F00
ENDCHAR
STARTCHAR 04E9
ENCODING 1257
SWIDTH 600 0
DWIDTH 10 0
BBX 8 9 1 0
BITMAP
3C
7E
C3
FF
FF
C3
E7
7E
3C
ENDCHAR
STARTCHAR 04EA
ENCODING 1258
SWIDTH 780 0
DWIDTH 13 0
BBX 11 15 1 0
BITMAP
1980
1980
0000
1F00
3F80
71C0
E0E0
C060
FFE0
FFE0
C060
E0E0
71C0
3F80
1F00
ENDCHAR
STARTCHAR 04EB
ENCODING 1259
SWIDTH 600 0
DWIDTH 10 0
BBX 8 12 1 0
BITMAP
66
66
00
3C
7E
C3
FF
FF
C3
E7
7E
3C
ENDCHAR
STARTCHAR 04EC
ENCODING 1260
SWIDTH 720 0
DWIDTH 12 0
BBX 10 15 1 0
BITMAP
3300
3300
0000
3E00
7F00
E180
40C0
00C0
0FC0
0FC0
00C0
40C0
E180
7F80
3E00
ENDCHAR
STARTCHAR 04ED
ENCODING 1261
SWIDTH 540 0
DWIDTH 9 0
BBX 7 12 1 0
BITMAP
CC
CC
00
78
7C
C6
1E
1E
06
CE
7C
38
ENDCHAR
STARTCHAR 04EE
ENCODING 1262
SWIDTH 660 0
DWIDTH 11 0
BBX 11 15 0 0
BITMAP
1F80
1F80
0000
C060
E0E0
60C0
3180
3180
1B00
1F00
0E00
0400
0C00
3C00
3800
ENDCHAR
STARTCHAR 04EF
ENCODING 1263
SWIDTH 540 0
DWIDTH 9 0
BBX 9 15 0 -3
BITMAP
3F00
3F00
0000
C180
C180
6300
6300
3600
3600
3E00
1C00
1C00
1800
7800
7000
ENDCHAR
STARTCHAR 04F0
ENCODING 1264
SWIDTH 660 0
DWIDTH 11 0
BBX 11 15 0 0
BITMAP
1980
1980
0000
C060
E0E0
60C0
3180
3180
1B00
1F00
0E00
0400
0C00
3C00
3800
ENDCHAR
STARTCHAR 04F1
ENCODING 1265
SWIDTH 540 0
DWIDTH 9 0
BBX 9 15 0 -3
BITMAP
3300
3300
0000
C180
C180
6300
6300
3600
3600
3E00
1C00
1C00
1800
7800
7000
ENDCHAR
STARTCHAR 04F2
ENCODING 1266
SWIDTH 660 0
DWIDTH 11 0
BBX 11 15 0 0
BITMAP
0D80
1B00
0000
C060
E0E0
60C0
3180
3180
1B00
1F00
0E00
0400
0C00
3C00
3800
ENDCHAR
STARTCHAR 04F3
ENCODING 1267
SWIDTH 540 0
DWIDTH 9 0
BBX 9 15 0 -3
BITMAP
1B00
3600
0000
C180
C180
6300
6300
3600
3600
3E00
1C00
1C00
1800
7800
7000
ENDCHAR
STARTCHAR 04F4
ENCODING 1268
SWIDTH 720 0
DWIDTH 12 0
BBX 10 15 1 0
BITMAP
3300
3300
0000
C0C0
C0C0
C0C0
C0C0
C0C0
E0C0
7FC0
3FC0
00C0
00C0
00C0
00C0
ENDCHAR
STARTCHAR 04F5
ENCODING 1269
SWIDTH 600 0
DWIDTH 10 0
BBX 8 12 1 0
BITMAP
66
66
00
C3
C3
C3
C3
FF
7F
03
03
03
ENDCHAR
STARTCHAR 04F6
ENCODING 1270
SWIDTH 600 0
DWIDTH 10 0
BBX 8 15 1 -3
BITMAP
FF
FF
C0
C0
C0
C0
C0
C0
C0
C0
E0
E0
60
60
60
ENDCHAR
STARTCHAR 04F7
ENCODING 1271
SWIDTH 420 0
DWIDTH 7 0
BBX 6 11 1 -2
BITMAP
FC
FC
C0
C0
C0
C0
C0
E0
E0
60
60
ENDCHAR
STARTCHAR 04F8
ENCODING 1272
SWIDTH 1020 0
DWIDTH 17 0
BBX 15 15 1 0
BITMAP
0660
0660
0000
C006
C006
C006
C006
C006
FF06
FF86
C1C6
C0C6
C1C6
FF86
FF06
ENDCHAR
STARTCHAR 04F9
ENCODING 1273
SWIDTH 840 0
DWIDTH 14 0
BBX 12 12 1 0
BITMAP
1980
1980
0000
C030
C030
C030
FE30
FF30
C330
C330
FF30
FE30
ENDCHAR
STARTCHAR 04FA
ENCODING 1274
SWIDTH 600 0
DWIDTH 10 0
BBX 10 15 0 -3
BITMAP
7FC0
7FC0
6000
6000
6000
FC00
FC00
6000
6000
6000
7000
7000
3000
3000
E000
ENDCHAR
STARTCHAR 04FB
ENCODING 1275
SWIDTH 420 0
DWIDTH 7 0
BBX 7 12 0 -3
BITMAP
7E
7E
60
F8
F8
60
60
60
70
30
30
E0
ENDCHAR
STARTCHAR 04FC
ENCODING 1276
SWIDTH 660 0
DWIDTH 11 0
BBX 11 15 0 -3
BITMAP
E0E0
60C0
3180
1B00
1F00
0E00
0E00
1F00
1B80
31C0
60C0
E060
0060
00E0
00C0
ENDCHAR
STARTCHAR 04FD
ENCODING 1277
SWIDTH 540 0
DWIDTH 9 0
BBX 9 12 0 -3
BITMAP
E380
6300
3600
1C00
1C00
1E00
3600
6300
E180
0180
0380
0300
ENDCHAR
STARTCHAR 04FE
ENCODING 1278
SWIDTH 660 0
DWIDTH 11 0
BBX 11 12 0 0
BITMAP
E0E0
60C0
3180
1B00
1F00
7FC0
7FC0
1F00
1B00
3180
60C0
E0E0
ENDCHAR
STARTCHAR 04FF
ENCODING 1279
SWIDTH 540 0
DWIDTH 9 0
BBX 9 9 0 0
BITMAP
E380
6300
3600
7F00
7F00
1C00
3600
6300
E380
ENDCHAR
STARTCHAR 0500
ENCODING 1280
SWIDTH 720 0
DWIDTH 12 0
BBX 10 12 1 0
BITMAP
00C0
00C0
00C0
00C0
00C0
3FC0
7FC0
E0C0
C0C0
E0C0
7FC0
3FC0
ENDCHAR
STARTCHAR 0501
ENCODING 1281
SWIDTH 600 0
DWIDTH 10 0
BBX 8 12 1 0
BITMAP
03
03
03
3B
7F
E7
C3
C3
C3
E7
7F
3B
ENDCHAR
STARTCHAR 0502
ENCODING 1282
SWIDTH 1080 0
DWIDTH 18 0
BBX 16 12 1 0
BITMAP
00C0
00C0
00C0
00C0
00C0
3FC3
7FC3
E0C3
C0C3
E1E7
7FFE
3F3C
ENDCHAR
STARTCHAR 0503
ENCODING 1283
SWIDTH 960 0
DWIDTH 16 0
BBX 14 12 1 0
BITMAP
0300
0300
0300
3B00
7F00
E700
C30C
C30C
C30C
E79C
7DF8
38F0
ENDCHAR
STARTCHAR 0504
ENCODING 1284
SWIDTH 960 0
DWIDTH 16 0
BBX 15 12 0 0
BITMAP
3E00
7F00
E180
4180
0300
0E06
0F06
0186
0186
018E
00FC
0078
ENDCHAR
STARTCHAR 0505
ENCODING 1285
SWIDTH 840 0
DWIDTH 14 0
BBX 12 9 1 0
BITMAP
7C00
FE00
C600
1C30
1E30
0630
0630
07E0
03C0
ENDCHAR
STARTCHAR 0506
ENCODING 1286
SWIDTH 660 0
DWIDTH 11 0
BBX 11 15 0 -3
BITMAP
3F00
7F80
E1C0
40C0
0180
0F00
0F80
01C0
00C0
00C0
00E0
00E0
0060
0060
0060
ENDCHAR
STARTCHAR 0507
ENCODING 1287
SWIDTH 540 0
DWIDTH 9 0
BBX 8 11 1 -2
BITMAP
7C
FE
C6
1C
1C
06
06
07
07
03
03
ENDCHAR
STARTCHAR 0508
ENCODING 1288
SWIDTH 1020 0
DWIDTH 17 0
BBX 16 12 0 0
BITMAP
3FC0
3FC0
30C0
30C0
30C0
30C3
30C3
30C3
30C3
30C7
F07E
E03C
ENDCHAR
STARTCHAR 0509
ENCODING 1289
SWIDTH 960 0
DWIDTH 16 0
BBX 15 9 0 0
BITMAP
3FC0
3FC0
30C0
30C6
30C6
30C6
30C6
F07C
E038
ENDCHAR
STARTCHAR 050A
ENCODING 1290
SWIDTH 1080 0
DWIDTH 18 0
BBX 16 12 1 0
BITMAP
C0C0
C0C0
C0C0
C0C0
C0C0
FFC3
FFC3
C0C3
C0C3
C0C7
C07E
C03C
ENDCHAR
STARTCHAR 050B
ENCODING 1291
SWIDTH 960 0
DWIDTH 16 0
BBX 14 9 1 0
BITMAP
C300
C300
C300
FF0C
FF0C
C30C
C39C
C1F8
C0F0
ENDCHAR
STARTCHAR 050C
ENCODING 1292
SWIDTH 780 0
DWIDTH 13 0
BBX 11 12 1 0
BITMAP
1F80
7FC0
60E0
C060
C000
C000
C3E0
C3E0
C060
60C0
7FC0
1F00
ENDCHAR
STARTCHAR 050D
ENCODING 1293
SWIDTH 600 0
DWIDTH 10 0
BBX 8 9 1 0
BITMAP
3C
7E
E3
C0
CF
CF
E3
7E
3C
ENDCHAR
STARTCHAR 050E
ENCODING 1294
SWIDTH 780 0
DWIDTH 13 0
BBX 12 12 0 0
BITMAP
FFC0
FFC0
0C00
0C00
0C00
0C30
0C30
0C30
0C30
0C70
07E0
03C0
ENDCHAR
STARTCHAR 050F
ENCODING 1295
SWIDTH 720 0
DWIDTH 12 0
BBX 11 9 0 0
BITMAP
FF00
FF00
1800
1860
1860
1860
1CE0
0FC0
0780
ENDCHAR
STARTCHAR 0510
ENCODING 1296
SWIDTH 660 0
DWIDTH 11 0
BBX 10 12 1 0
BITMAP
3F00
7F80
E1C0
C0C0
6000
3800
7800
C000
C080
E1C0
7F80
3F00
ENDCHAR
STARTCHAR 0511
ENCODING 1297
SWIDTH 480 0
DWIDTH 8 0
BBX 6 9 1 0
BITMAP
78
FC
CC
60
E0
C0
CC
FC
78
ENDCHAR
STARTCHAR 0512
ENCODING 1298
SWIDTH 720 0
DWIDTH 12 0
BBX 11 15 0 -3
BITMAP
3FE0
3FE0
3060
3060
3060
3060
3060
3060
3060
3060
F060
E060
0060
01E0
01C0
ENDCHAR
STARTCHAR 0513
ENCODING 1299
SWIDTH 660 0
DWIDTH 11 0
BBX 10 12 0 -3
BITMAP
3FC0
3FC0
30C0
30C0
30C0
30C0
30C0
F0C0
E0C0
00C0
03C0
0380
ENDCHAR
STARTCHAR 0514
ENCODING 1300
SWIDTH 1020 0
DWIDTH 17 0
BBX 17 12 0 0
BITMAP
3F0380
3F8300
31C600
30CC00
307C00
303800
303800
307C00
306C00
30C600
F18300
E38380
ENDCHAR
STARTCHAR 0515
ENCODING 1301
SWIDTH 900 0
DWIDTH 15 0
BBX 15 9 0 0
BITMAP
3F0E
3F9C
31D8
30F0
3060
30F0
3198
F39C
E70E
ENDCHAR
STARTCHAR 0516
ENCODING 1302
SWIDTH 840 0
DWIDTH 14 0
BBX 13 12 1 0
BITMAP
FC30
FFE0
C7C0
C780
C600
FF00
FF00
C180
C0C0
C060
C030
C038
ENDCHAR
STARTCHAR 0517
ENCODING 1303
SWIDTH 840 0
DWIDTH 14 0
BBX 13 12 1 -3
BITMAP
DE38
FF70
E3E0
C1C0
C180
C1C0
E3E0
FF70
DE38
C000
C000
C000
ENDCHAR
STARTCHAR 0518
ENCODING 1304
SWIDTH 1020 0
DWIDTH 17 0
BBX 16 12 0 0
BITMAP
1FFF
3FFF
60C0
60C0
60C0
3FFE
1FFE
1CC0
38C0
30C0
60FF
E0FF
ENDCHAR
STARTCHAR 0519
ENCODING 1305
SWIDTH 900 0
DWIDTH 15 0
BBX 14 9 0 0
BITMAP
3FF0
7FF8
630C
7FFC
3FFC
3B00
338C
61F8
E0F0
ENDCHAR
STARTCHAR 051A
ENCODING 1306
SWIDTH 780 0
DWIDTH 13 0
BBX 11 13 1 -1
BITMAP
1F00
7FC0
60C0
E060
C060
C060
C060
C060
C6E0
63C0
7FC0
1EC0
0060
ENDCHAR
STARTCHAR 051B
ENCODING 1307
SWIDTH 600 0
DWIDTH 10 0
BBX 8 12 1 -3
BITMAP
3B
7F
E7
C3
C3
C3
E7
7F
3B
03
03
03
ENDCHAR
STARTCHAR 051C
ENCODING 1308
SWIDTH 1020 0
DWIDTH 17 0
BBX 17 12 0 0
BITMAP
C1C180
E1C380
63E300
636300
636300
377600
363600
363600
3E3E00
1C1C00
1C1C00
1C1C00
ENDCHAR
STARTCHAR 051D
ENCODING 1309
SWIDTH 780 0
DWIDTH 13 0
BBX 13 9 0 0
BITMAP
C718
C718
6730
6DB0
6DB0
6DB0
38E0
38E0
38E0
ENDCHAR
STARTCHAR 051E
ENCODING 1310
SWIDTH 720 0
DWIDTH 12 0
BBX 11 12 1 0
BITMAP
C4C0
CF80
C700
CF80
DD00
FC00
FE00
E700
C780
C380
C1C0
C1E0
ENDCHAR
STARTCHAR 051F
ENCODING 1311
SWIDTH 540 0
DWIDTH 9 0
BBX 8 9 1 0
BITMAP
D7
CE
DC
FA
F8
F8
DC
CE
C7
ENDCHAR
STARTCHAR 0520
ENCODING 1312
SWIDTH 1140 0
DWIDTH 19 0
BBX 17 15 0 -3
BITMAP
3FC000
3FC000
30C000
30C000
30FE00
30FF00
30C180
30C180
30C180
30C180
F0C180
E0C180
000180
000780
000700
ENDCHAR
STARTCHAR 0521
ENCODING 1313
SWIDTH 960 0
DWIDTH 16 0
BBX 15 12 0 -3
BITMAP
3F80
3F80
3180
31F8
31FE
3186
3186
F186
E186
0006
001E
001C
ENDCHAR
STARTCHAR 0522
ENCODING 1314
SWIDTH 1140 0
DWIDTH 19 0
BBX 16 15 1 -3
BITMAP
C180
C180
C180
C180
C1FC
FFFE
FF83
C183
C183
C183
C183
C183
0003
000F
000E
ENDCHAR
STARTCHAR 0523
ENCODING 1315
SWIDTH 960 0
DWIDTH 16 0
BBX 14 12 1 -3
BITMAP
C300
C300
C300
FFF0
FFFC
C30C
C30C
C30C
C30C
000C
003C
0038
ENDCHAR
STARTCHAR 0524
ENCODING 1316
SWIDTH 720 0
DWIDTH 12 0
BBX 10 15 1 -3
BITMAP
FF80
FF80
C180
C180
C180
C180
C180
C180
C180
C180
C1C0
C1C0
00C0
00C0
00C0
ENDCHAR
STARTCHAR 0525
ENCODING 1317
SWIDTH 600 0
DWIDTH 10 0
BBX 9 11 1 -2
BITMAP
FF00
FF00
C300
C300
C300
C300
C300
C380
C380
0180
0180
ENDCHAR
STARTCHAR 0526
ENCODING 1318
SWIDTH 720 0
DWIDTH 12 0
BBX 10 15 1 -3
BITMAP
C000
C000
C000
C000
FE00
FF00
C380
C180
C180
C180
C1C0
C1C0
00C0
00C0
00C0
ENDCHAR
STARTCHAR 0527
ENCODING 1319
SWIDTH 600 0
DWIDTH 10 0
BBX 9 14 1 -2
BITMAP
C000
C000
C000
DE00
FF00
E300
C300
C300
C300
C300
C380
C380
0180
0180
ENDCHAR
STARTCHAR 0528
ENCODING 1320
SWIDTH 720 0
DWIDTH 12 0
BBX 12 15 -1 -3
BITMAP
3830
3830
3830
3830
3830
3FF0
3FF0
3830
3830
3830
3830
3830
3800
7000
F000
ENDCHAR
STARTCHAR 0529
ENCODING 1321
SWIDTH 600 0
DWIDTH 10 0
BBX 10 12 -1 -3
BITMAP
30C0
30C0
30C0
3FC0
3FC0
30C0
30C0
30C0
30C0
3000
F000
F000
ENDCHAR
STARTCHAR 052A
ENCODING 1322
SWIDTH 1500 0
DWIDTH 25 0
BBX 24 15 0 -3
BITMAP
3FE307
3FE30E
38E31C
38E338
38E370
30FFF0
30FFF8
30E39C
30E31C
70E30E
FFF307
FFF307
C03000
C03000
C03000
ENDCHAR
STARTCHAR 052B
ENCODING 1323
SWIDTH 1200 0
DWIDTH 20 0
BBX 20 11 0 -2
BITMAP
3F8C70
3F8CE0
318DC0
31FF80
31FFC0
318EC0
618CE0
FFCC60
FFCC70
C04000
C04000
ENDCHAR
STARTCHAR 052C
ENCODING 1324
SWIDTH 780 0
DWIDTH 13 0
BBX 13 15 0 -3
BITMAP
3870
38F0
39F0
3BF0
3B70
3E70
1FF0
1FF0
3870
7070
FFF8
FFF8
C018
C018
C018
ENDCHAR
STARTCHAR 052D
ENCODING 1325
SWIDTH 660 0
DWIDTH 11 0
BBX 11 11 0 -2
BITMAP
31C0
33C0
37C0
3DC0
3FC0
3FC0
61C0
FFE0
FFE0
C060
C060
ENDCHAR
STARTCHAR 052E
ENCODING 1326
SWIDTH 720 0
DWIDTH 12 0
BBX 12 15 0 -3
BITMAP
3FE0
3FE0
38E0
38E0
38E0
38E0
38E0
38E0
30E0
30E0
F0F0
F0F0
0030
0030
0030
ENDCHAR
STARTCHAR 052F
ENCODING 1327
SWIDTH 660 0
DWIDTH 11 0
BBX 11 11 0 -2
BITMAP
3FC0
3FC0
31C0
31C0
31C0
31C0
31C0
F1E0
E1E0
0060
0060
ENDCHAR
STARTCHAR 0531
ENCODING 1329
SWIDTH 780 0
DWIDTH 13 0
BBX 11 12 1 0
BITMAP
C0C0
C0C0
C0C0
C0C0
C0C0
C0C0
C0C0
C2C0
C3C0
E1C0
7FE0
3F60
ENDCHAR
STARTCHAR 0532
ENCODING 1330
SWIDTH 720 0
DWIDTH 12 0
BBX 9 12 1 0
BITMAP
3E00
7F00
E380
C180
C180
C180
C000
FF80
FF80
C000
C000
C000
ENDCHAR
STARTCHAR 0533
ENCODING 1331
SWIDTH 780 0
DWIDTH 13 0
BBX 12 12 1 0
BITMAP
3E00
7F00
E380
C180
C180
C180
E180
7FF0
3FF0
0180
0180
0180
ENDCHAR
STARTCHAR 0534
ENCODING 1332
SWIDTH 780 0
DWIDTH 13 0
BBX 12 12 1 0
BITMAP
3E00
7F00
E380
C180
C180
C180
0180
01F0
01F0
0180
0180
0180
ENDCHAR
STARTCHAR 0535
ENCODING 1333
SWIDTH 720 0
DWIDTH 12 0
BBX 10 12 1 0
BITMAP
C000
C000
C000
FFC0
FFC0
C000
C180
C180
C180
E380
7F00
3E00
ENDCHAR
STARTCHAR 0536
ENCODING 1334
SWIDTH 720 0
DWIDTH 12 0
BBX 9 12 1 0
BITMAP
3E00
7F00
E380
C180
C180
0180
0180
0300
0700
CE00
FF80
FF80
ENDCHAR
STARTCHAR 0537
ENCODING 1335
SWIDTH 720 0
DWIDTH 12 0
BBX 10 12 1 0
BITMAP
C000
C000
C000
FFC0
FFC0
C000
C000
C000
C000
C000
FF80
FF80
ENDCHAR
STARTCHAR 0538
ENCODING 1336
SWIDTH 720 0
DWIDTH 12 0
BBX 9 12 1 0
BITMAP
3E00
7F00
E380
C180
C180
C180
C000
C000
C000
C000
FF80
FF80
ENDCHAR
STARTCHAR 0539
ENCODING 1337
SWIDTH 900 0
DWIDTH 15 0
BBX 14 12 1 0
BITMAP
1F80
7FE0
6060
C030
C030
C3FC
C7FC
CC30
CC30
CC30
CFF0
C3C0
ENDCHAR
STARTCHAR 053A
ENCODING 1338
SWIDTH 780 0
DWIDTH 13 0
BBX 12 12 1 0
BITMAP
0180
0180
0180
3FF0
7FF0
E180
C180
C180
C180
E380
7F00
3E00
ENDCHAR
STARTCHAR 053B
ENCODING 1339
SWIDTH 720 0
DWIDTH 12 0
BBX 10 12 1 0
BITMAP
C000
C000
C000
FF00
FF80
E1C0
C0C0
C0C0
C0C0
C000
C000
C000
ENDCHAR
STARTCHAR 053C
ENCODING 1340
SWIDTH 600 0
DWIDTH 10 0
BBX 9 12 1 0
BITMAP
C000
C000
C000
C000
C000
C000
C000
C000
C000
C000
FF80
FF80
ENDCHAR
STARTCHAR 053D
ENCODING 1341
SWIDTH 960 0
DWIDTH 16 0
BBX 13 12 1 0
BITMAP
C000
C000
C000
FC18
FC18
CC18
CC18
CC18
CC18
CE38
C7F0
C3E0
ENDCHAR
STARTCHAR 053E
ENCODING 1342
SWIDTH 780 0
DWIDTH 13 0
BBX 10 12 1 0
BITMAP
CFC0
DFC0
FC40
FF00
6180
C0C0
C0C0
C0C0
C0C0
6180
7F80
1E00
ENDCHAR
STARTCHAR 053F
ENCODING 1343
SWIDTH 720 0
DWIDTH 12 0
BBX 9 12 1 0
BITMAP
C000
C000
C000
C180
C180
C180
E380
7F80
3F80
0180
0180
0180
ENDCHAR
STARTCHAR 0540
ENCODING 1344
SWIDTH 660 0
DWIDTH 11 0
BBX 9 12 1 0
BITMAP
7E00
7F00
0180
0180
0180
FF00
FF00
0380
0180
0180
0180
0180
ENDCHAR
STARTCHAR 0541
ENCODING 1345
SWIDTH 720 0
DWIDTH 12 0
BBX 10 12 1 0
BITMAP
3F00
7F80
E1C0
C0C0
C0C0
00C0
00C0
7D80
FF80
C780
FFC0
7C80
ENDCHAR
STARTCHAR 0542
ENCODING 1346
SWIDTH 780 0
DWIDTH 13 0
BBX 12 12 1 0
BITMAP
3E00
7F00
E380
C180
C180
C180
0180
0180
0180
0180
01F0
01F0
ENDCHAR
STARTCHAR 0543
ENCODING 1347
SWIDTH 780 0
DWIDTH 13 0
BBX 10 12 1 0
BITMAP
07C0
FFC0
FE00
7F00
6380
C180
C0C0
C0C0
C0C0
C0C0
FFC0
FFC0
ENDCHAR
STARTCHAR 0544
ENCODING 1348
SWIDTH 780 0
DWIDTH 13 0
BBX 12 12 1 0
BITMAP
C1F0
C1F0
C180
C180
C180
C180
C180
C180
C180
E380
7F00
3E00
ENDCHAR
STARTCHAR 0545
ENCODING 1349
SWIDTH 780 0
DWIDTH 13 0
BBX 10 12 1 0
BITMAP
1E00
3F00
6180
6180
0180
FF00
FF80
00C0
C0C0
E1C0
7F80
3F00
ENDCHAR
STARTCHAR 0546
ENCODING 1350
SWIDTH 780 0
DWIDTH 13 0
BBX 12 12 0 0
BITMAP
F000
F000
3000
3000
3000
3000
3030
3030
3030
3870
1FE0
0FC0
ENDCHAR
STARTCHAR 0547
ENCODING 1351
SWIDTH 720 0
DWIDTH 12 0
BBX 10 12 1 0
BITMAP
7800
7E00
1F80
3F80
6080
C000
C000
C0C0
C0C0
E1C0
7F80
3F00
ENDCHAR
STARTCHAR 0548
ENCODING 1352
SWIDTH 720 0
DWIDTH 12 0
BBX 9 12 1 0
BITMAP
3E00
7F00
E380
C180
C180
C180
C180
C180
C180
C180
C180
C180
ENDCHAR
STARTCHAR 0549
ENCODING 1353
SWIDTH 720 0
DWIDTH 12 0
BBX 9 13 1 -1
BITMAP
3E00
7F00
E380
C180
C180
C180
0180
0300
6700
7E00
7E00
0E00
0200
ENDCHAR
STARTCHAR 054A
ENCODING 1354
SWIDTH 840 0
DWIDTH 14 0
BBX 11 12 1 0
BITMAP
3F80
7FC0
E6E0
C660
C660
0660
0660
0660
0060
0060
0060
0060
ENDCHAR
STARTCHAR 054B
ENCODING 1355
SWIDTH 780 0
DWIDTH 13 0
BBX 10 12 1 0
BITMAP
1F00
7F80
E1C0
C0C0
C0C0
F8C0
FEC0
0780
0380
C700
FFC0
FFC0
ENDCHAR
STARTCHAR 054C
ENCODING 1356
SWIDTH 780 0
DWIDTH 13 0
BBX 12 12 1 0
BITMAP
3E00
7F00
E380
C180
C180
C180
C180
C1F0
C1F0
C180
C180
C180
ENDCHAR
STARTCHAR 054D
ENCODING 1357
SWIDTH 720 0
DWIDTH 12 0
BBX 9 12 1 0
BITMAP
C180
C180
C180
C180
C180
C180
C180
C180
C180
E380
7F00
3E00
ENDCHAR
STARTCHAR 054E
ENCODING 1358
SWIDTH 780 0
DWIDTH 13 0
BBX 12 12 1 0
BITMAP
0180
0180
0180
C180
C180
C180
E380
7F80
3F80
0180
01F0
01F0
ENDCHAR
STARTCHAR 054F
ENCODING 1359
SWIDTH 720 0
DWIDTH 12 0
BBX 10 12 1 0
BITMAP
3F00
7F80
C1C0
C0C0
F800
7F00
0F80
01C0
C0C0
E1C0
7F80
3F00
ENDCHAR
STARTCHAR 0550
ENCODING 1360
SWIDTH 720 0
DWIDTH 12 0
BBX 10 12 1 0
BITMAP
3F00
7F80
E1C0
C0C0
C0C0
C0C0
C000
C000
C000
C000
C000
C000
ENDCHAR
STARTCHAR 0551
ENCODING 1361
SWIDTH 780 0
DWIDTH 13 0
BBX 10 12 1 0
BITMAP
1E00
3F00
6180
6180
6180
FF00
FF80
00C0
C0C0
E1C0
7F80
3F00
ENDCHAR
STARTCHAR 0552
ENCODING 1362
SWIDTH 540 0
DWIDTH 9 0
BBX 8 12 1 0
BITMAP
C0
C0
C0
FF
FF
C0
C0
C0
C0
C0
C0
C0
ENDCHAR
STARTCHAR 0553
ENCODING 1363
SWIDTH 900 0
DWIDTH 15 0
BBX 12 12 1 0
BITMAP
0600
1F80
7FE0
6660
C630
C630
C630
C630
6660
7FE0
1F80
0600
ENDCHAR
STARTCHAR 0554
ENCODING 1364
SWIDTH 780 0
DWIDTH 13 0
BBX 11 12 0 0
BITMAP
0F80
1FC0
38E0
3060
3060
38E0
3FC0
3F80
3000
FFE0
FFE0
3000
ENDCHAR
STARTCHAR 0555
ENCODING 1365
SWIDTH 780 0
DWIDTH 13 0
BBX 11 12 1 0
BITMAP
1F00
3F80
71C0
E0E0
C060
C060
C060
C060
E0E0
71C0
3F80
1F00
ENDCHAR
STARTCHAR 0556
ENCODING 1366
SWIDTH 840 0
DWIDTH 14 0
BBX 12 12 1 0
BITMAP
3E00
7E00
6600
6600
7FC0
1FE0
0670
C630
C630
E670
7FE0
1F80
ENDCHAR
STARTCHAR 0559
ENCODING 1369
SWIDTH 300 0
DWIDTH 5 0
BBX 2 5 1 7
BITMAP
C0
C0
80
80
40
ENDCHAR
STARTCHAR 055A
ENCODING 1370
SWIDTH 300 0
DWIDTH 5 0
BBX 2 5 1 7
BITMAP
C0
C0
40
40
80
ENDCHAR
STARTCHAR 055B
ENCODING 1371
SWIDTH 240 0
DWIDTH 4 0
BBX 4 3 -1 10
BITMAP
70
60
C0
ENDCHAR
STARTCHAR 055C
ENCODING 1372
SWIDTH 240 0
DWIDTH 4 0
BBX 4 3 -1 10
BITMAP
10
F0
80
ENDCHAR
STARTCHAR 055D
ENCODING 1373
SWIDTH 300 0
DWIDTH 5 0
BBX 4 4 1 9
BITMAP
C0
60
20
30
ENDCHAR
STARTCHAR 055E
ENCODING 1374
SWIDTH 300 0
DWIDTH 5 0
BBX 4 4 0 9
BITMAP
70
90
B0
80
ENDCHAR
STARTCHAR 055F
ENCODING 1375
SWIDTH 540 0
DWIDTH 9 0
BBX 8 4 1 12
BITMAP
C0
C0
C0
FF
ENDCHAR
STARTCHAR 0561
ENCODING 1377
SWIDTH 900 0
DWIDTH 15 0
BBX 12 9 1 0
BITMAP
C630
C630
C630
C630
C630
C630
CE70
FFF0
73B0
ENDCHAR
STARTCHAR 0562
ENCODING 1378
SWIDTH 600 0
DWIDTH 10 0
BBX 8 12 1 -3
BITMAP
DE
FF
E3
C3
C3
C0
C0
FF
FF
C0
C0
C0
ENDCHAR
STARTCHAR 0563
ENCODING 1379
SWIDTH 660 0
DWIDTH 11 0
BBX 10 12 1 -3
BITMAP
3B00
7F00
E700
C300
C300
C300
E700
7FC0
3BC0
0300
0300
0300
ENDCHAR
STARTCHAR 0564
ENCODING 1380
SWIDTH 660 0
DWIDTH 11 0
BBX 10 12 1 -3
BITMAP
DE00
FF00
E300
C300
C300
C300
C300
C3C0
C3C0
0300
0300
0300
ENDCHAR
STARTCHAR 0565
ENCODING 1381
SWIDTH 600 0
DWIDTH 10 0
BBX 8 12 1 0
BITMAP
C0
C0
C0
FF
FF
C0
C0
C3
C3
C7
FF
7B
ENDCHAR
STARTCHAR 0566
ENCODING 1382
SWIDTH 660 0
DWIDTH 11 0
BBX 10 12 1 -3
BITMAP
3B00
7F00
E700
C300
C300
C300
E700
7F00
3B00
0300
03C0
03C0
ENDCHAR
STARTCHAR 0567
ENCODING 1383
SWIDTH 600 0
DWIDTH 10 0
BBX 8 12 1 0
BITMAP
C0
C0
C0
FF
FF
C0
C0
C0
C0
C0
FE
FE
ENDCHAR
STARTCHAR 0568
ENCODING 1384
SWIDTH 660 0
DWIDTH 11 0
BBX 8 12 1 -3
BITMAP
DE
FF
E3
C3
C3
C3
C3
C3
C3
C0
FF
FF
ENDCHAR
STARTCHAR 0569
ENCODING 1385
SWIDTH 780 0
DWIDTH 13 0
BBX 12 12 1 -3
BITMAP
DF80
FFC0
E0E0
C7F0
CFF0
CC60
CCE0
CFC0
C780
C000
C000
C000
ENDCHAR
STARTCHAR 056A
ENCODING 1386
SWIDTH 660 0
DWIDTH 11 0
BBX 10 12 1 0
BITMAP
0300
0300
0300
3FC0
7FC0
E300
C300
C300
C300
E700
7E00
3C00
ENDCHAR
STARTCHAR 056B
ENCODING 1387
SWIDTH 600 0
DWIDTH 10 0
BBX 8 15 1 -3
BITMAP
C0
C0
C0
DE
FF
E3
C3
C3
C3
C3
C3
C3
C0
C0
C0
ENDCHAR
STARTCHAR 056C
ENCODING 1388
SWIDTH 300 0
DWIDTH 5 0
BBX 4 12 1 -3
BITMAP
C0
C0
C0
C0
C0
C0
C0
C0
C0
C0
F0
F0
ENDCHAR
STARTCHAR 056D
ENCODING 1389
SWIDTH 900 0
DWIDTH 15 0
BBX 13 15 1 -3
BITMAP
C000
C000
C000
DC18
FE18
E618
C618
C618
C618
C638
C7F8
C3D8
C000
C000
C000
ENDCHAR
STARTCHAR 056E
ENCODING 1390
SWIDTH 600 0
DWIDTH 10 0
BBX 8 12 1 0
BITMAP
30
70
38
3F
7F
E7
C3
C3
C3
E7
7E
3C
ENDCHAR
STARTCHAR 056F
ENCODING 1391
SWIDTH 600 0
DWIDTH 10 0
BBX 8 15 1 -3
BITMAP
C0
C0
C0
C3
C3
C3
C3
C3
C3
C7
FF
7B
03
03
03
ENDCHAR
STARTCHAR 0570
ENCODING 1392
SWIDTH 600 0
DWIDTH 10 0
BBX 8 12 1 0
BITMAP
C0
C0
C0
DE
FF
E3
C3
C3
C3
C3
C3
C3
ENDCHAR
STARTCHAR 0571
ENCODING 1393
SWIDTH 600 0
DWIDTH 10 0
BBX 8 12 1 0
BITMAP
38
30
38
1C
3C
7E
E3
C3
C3
C7
FF
7B
ENDCHAR
STARTCHAR 0572
ENCODING 1394
SWIDTH 600 0
DWIDTH 10 0
BBX 10 12 1 -3
BITMAP
DE00
FF00
E300
C300
C300
C300
C300
C300
C300
0300
03C0
03C0
ENDCHAR
STARTCHAR 0573
ENCODING 1395
SWIDTH 600 0
DWIDTH 10 0
BBX 8 12 1 0
BITMAP
07
1F
38
F8
FE
CE
C3
C3
C3
C7
FF
7B
ENDCHAR
STARTCHAR 0574
ENCODING 1396
SWIDTH 600 0
DWIDTH 10 0
BBX 10 12 1 0
BITMAP
03C0
03C0
0300
C300
C300
C300
C300
C300
C300
C700
FF00
7B00
ENDCHAR
STARTCHAR 0575
ENCODING 1397
SWIDTH 300 0
DWIDTH 5 0
BBX 4 12 0 -3
BITMAP
30
30
30
30
30
30
30
30
30
30
F0
E0
ENDCHAR
STARTCHAR 0576
ENCODING 1398
SWIDTH 600 0
DWIDTH 10 0
BBX 10 12 -1 0
BITMAP
F000
F000
3000
30C0
30C0
30C0
30C0
30C0
30C0
31C0
3FC0
1EC0
ENDCHAR
STARTCHAR 0577
ENCODING 1399
SWIDTH 540 0
DWIDTH 9 0
BBX 8 12 0 -3
BITMAP
3C
FE
C3
03
03
06
0C
38
70
C0
FF
FF
ENDCHAR
STARTCHAR 0578
ENCODING 1400
SWIDTH 600 0
DWIDTH 10 0
BBX 8 9 1 0
BITMAP
DE
FF
E3
C3
C3
C3
C3
C3
C3
ENDCHAR
STARTCHAR 0579
ENCODING 1401
SWIDTH 420 0
DWIDTH 7 0
BBX 7 12 0 -3
BITMAP
C0
C0
C0
E0
7C
1C
1C
30
60
C0
FE
7E
ENDCHAR
STARTCHAR 057A
ENCODING 1402
SWIDTH 900 0
DWIDTH 15 0
BBX 12 12 1 -3
BITMAP
C630
C630
C630
C630
C630
C630
CE70
FFF0
73B0
0030
0030
0030
ENDCHAR
STARTCHAR 057B
ENCODING 1403
SWIDTH 600 0
DWIDTH 10 0
BBX 8 12 1 -3
BITMAP
3C
7E
C3
C3
E3
76
3C
38
70
C0
FF
FF
ENDCHAR
STARTCHAR 057C
ENCODING 1404
SWIDTH 600 0
DWIDTH 10 0
BBX 9 9 1 0
BITMAP
DE00
FF00
E300
C300
C300
C200
C600
CF80
CF80
ENDCHAR
STARTCHAR 057D
ENCODING 1405
SWIDTH 600 0
DWIDTH 10 0
BBX 8 9 1 0
BITMAP
C3
C3
C3
C3
C3
C3
C7
FF
7B
ENDCHAR
STARTCHAR 057E
ENCODING 1406
SWIDTH 600 0
DWIDTH 10 0
BBX 10 15 1 -3
BITMAP
0300
0300
0300
C300
C300
C300
C300
C300
C300
C700
FF00
7B00
0300
03C0
03C0
ENDCHAR
STARTCHAR 057F
ENCODING 1407
SWIDTH 900 0
DWIDTH 15 0
BBX 12 9 1 0
BITMAP
C6E0
C7F0
C730
C630
C630
C630
CE30
FE30
7630
ENDCHAR
STARTCHAR 0580
ENCODING 1408
SWIDTH 600 0
DWIDTH 10 0
BBX 8 12 1 -3
BITMAP
DE
FF
E3
C3
C3
C3
C3
C3
C3
C0
C0
C0
ENDCHAR
STARTCHAR 0581
ENCODING 1409
SWIDTH 660 0
DWIDTH 11 0
BBX 8 12 1 -3
BITMAP
3B
7F
E7
C3
C3
C3
E7
7F
3B
C3
FF
7E
ENDCHAR
STARTCHAR 0582
ENCODING 1410
SWIDTH 480 0
DWIDTH 8 0
BBX 7 9 1 0
BITMAP
C0
C0
C0
C0
C0
C0
C0
FE
FE
ENDCHAR
STARTCHAR 0583
ENCODING 1411
SWIDTH 900 0
DWIDTH 15 0
BBX 12 15 1 -3
BITMAP
0600
0600
0600
C6E0
C7F0
C730
C630
C630
C630
CE30
FE30
7630
0600
0600
0600
ENDCHAR
STARTCHAR 0584
ENCODING 1412
SWIDTH 600 0
DWIDTH 10 0
BBX 9 12 0 -3
BITMAP
6E00
7F00
7380
6180
6180
7380
7F00
6E00
6000
FF80
FF80
6000
ENDCHAR
STARTCHAR 0585
ENCODING 1413
SWIDTH 660 0
DWIDTH 11 0
BBX 9 9 1 0
BITMAP
3E00
7F00
E380
C180
C180
C180
E380
7F00
3E00
ENDCHAR
STARTCHAR 0586
ENCODING 1414
SWIDTH 840 0
DWIDTH 14 0
BBX 13 15 0 -3
BITMAP
1E00
3E00
3600
3FC0
1FF0
0630
0618
C618
C618
E638
7FF0
3FC0
0600
0600
0600
ENDCHAR
STARTCHAR 0587
ENCODING 1415
SWIDTH 780 0
DWIDTH 13 0
BBX 12 12 1 0
BITMAP
C000
C000
C000
C300
C300
C300
C300
C300
C300
C700
FFF0
7BF0
ENDCHAR
STARTCHAR 0589
ENCODING 1417
SWIDTH 360 0
DWIDTH 6 0
BBX 2 9 2 0
BITMAP
C0
C0
00
00
00
00
00
C0
C0
ENDCHAR
STARTCHAR 058A
ENCODING 1418
SWIDTH 420 0
DWIDTH 7 0
BBX 7 3 0 3
BITMAP
40
FE
7C
ENDCHAR
STARTCHAR 058D
ENCODING 1421
SWIDTH 1020 0
DWIDTH 17 0
BBX 15 15 1 -3
BITMAP
0380
1CF0
2908
5A04
5AFC
CA86
CFF2
A78A
9FE6
C3A6
66B4
5894
2128
1E70
07C0
ENDCHAR
STARTCHAR 058E
ENCODING 1422
SWIDTH 1020 0
DWIDTH 17 0
BBX 15 15 1 -3
BITMAP
0380
1E70
2128
40B4
7E94
C2A6
9FE6
B3CA
CFF2
CB86
5ACC
5A34
2908
1CF0
07C0
ENDCHAR
STARTCHAR 058F
ENCODING 1423
SWIDTH 780 0
DWIDTH 13 0
BBX 11 12 1 0
BITMAP
3E00
7F00
E380
C180
C180
C180
0180
0FE0
0180
0FE0
0180
0180
ENDCHAR
STARTCHAR 0591
ENCODING 1425
SWIDTH 0 0
DWIDTH 0 0
BBX 3 4 -1 -4
BITMAP
40
E0
A0
A0
ENDCHAR
STARTCHAR 0592
ENCODING 1426
SWIDTH 0 0
DWIDTH 0 0
BBX 3 3 -1 9
BITMAP
40
00
A0
ENDCHAR
STARTCHAR 0593
ENCODING 1427
SWIDTH 0 0
DWIDTH 0 0
BBX 3 5 -1 9
BITMAP
C0
20
C0
60
C0
ENDCHAR
STARTCHAR 0594
ENCODING 1428
SWIDTH 0 0
DWIDTH 0 0
BBX 1 3 -1 9
BITMAP
80
00
80
ENDCHAR
STARTCHAR 0595
ENCODING 1429
SWIDTH 0 0
DWIDTH 0 0
BBX 3 3 -2 9
BITMAP
A0
80
A0
ENDCHAR
STARTCHAR 0596
ENCODING 1430
SWIDTH 0 0
DWIDTH 0 0
BBX 3 3 -2 -3
BITMAP
80
80
60
ENDCHAR
STARTCHAR 0597
ENCODING 1431
SWIDTH 0 0
DWIDTH 0 0
BBX 3 3 -1 9
BITMAP
40
E0
40
ENDCHAR
STARTCHAR 0598
ENCODING 1432
SWIDTH 0 0
DWIDTH 0 0
BBX 5 3 -2 10
BITMAP
48
A8
90
ENDCHAR
STARTCHAR 0599
ENCODING 1433
SWIDTH 0 0
DWIDTH 0 0
BBX 3 3 -4 9
BITMAP
C0
20
20
ENDCHAR
STARTCHAR 059A
ENCODING 1434
SWIDTH 0 0
DWIDTH 0 0
BBX 2 3 1 -3
BITMAP
40
80
40
ENDCHAR
STARTCHAR 059B
ENCODING 1435
SWIDTH 0 0
DWIDTH 0 0
BBX 3 3 -1 -3
BITMAP
A0
20
C0
ENDCHAR
STARTCHAR 059C
ENCODING 1436
SWIDTH 0 0
DWIDTH 0 0
BBX 3 3 -2 9
BITMAP
60
80
80
ENDCHAR
STARTCHAR 059D
ENCODING 1437
SWIDTH 0 0
DWIDTH 0 0
BBX 3 3 1 9
BITMAP
60
80
80
ENDCHAR
STARTCHAR 059E
ENCODING 1438
SWIDTH 0 0
DWIDTH 0 0
BBX 4 3 -2 9
BITMAP
50
A0
A0
ENDCHAR
STARTCHAR 059F
ENCODING 1439
SWIDTH 0 0
DWIDTH 0 0
BBX 8 3 -4 10
BITMAP
E7
A5
E7
ENDCHAR
STARTCHAR 05A0
ENCODING 1440
SWIDTH 0 0
DWIDTH 0 0
BBX 3 3 -1 10
BITMAP
E0
A0
E0
ENDCHAR
STARTCHAR 05A1
ENCODING 1441
SWIDTH 0 0
DWIDTH 0 0
BBX 3 4 -2 9
BITMAP
A0
A0
C0
80
ENDCHAR
STARTCHAR 05A2
ENCODING 1442
SWIDTH 0 0
DWIDTH 0 0
BBX 3 3 -1 -3
BITMAP
A0
E0
40
ENDCHAR
STARTCHAR 05A3
ENCODING 1443
SWIDTH 0 0
DWIDTH 0 0
BBX 2 3 -1 -3
BITMAP
40
40
C0
ENDCHAR
STARTCHAR 05A4
ENCODING 1444
SWIDTH 0 0
DWIDTH 0 0
BBX 2 3 -1 -3
BITMAP
40
80
40
ENDCHAR
STARTCHAR 05A5
ENCODING 1445
SWIDTH 0 0
DWIDTH 0 0
BBX 3 3 -1 -3
BITMAP
20
20
C0
ENDCHAR
STARTCHAR 05A6
ENCODING 1446
SWIDTH 0 0
DWIDTH 0 0
BBX 4 3 -2 -3
BITMAP
50
50
A0
ENDCHAR
STARTCHAR 05A7
ENCODING 1447
SWIDTH 0 0
DWIDTH 0 0
BBX 2 3 -1 -4
BITMAP
C0
80
C0
ENDCHAR
STARTCHAR 05A8
ENCODING 1448
SWIDTH 0 0
DWIDTH 0 0
BBX 3 3 -1 9
BITMAP
C0
20
20
ENDCHAR
STARTCHAR 05A9
ENCODING 1449
SWIDTH 0 0
DWIDTH 0 0
BBX 3 3 -2 10
BITMAP
E0
A0
E0
ENDCHAR
STARTCHAR 05AA
ENCODING 1450
SWIDTH 0 0
DWIDTH 0 0
BBX 3 3 -1 -3
BITMAP
A0
E0
40
ENDCHAR
STARTCHAR 05AB
ENCODING 1451
SWIDTH 0 0
DWIDTH 0 0
BBX 2 3 -1 9
BITMAP
40
80
40
ENDCHAR
STARTCHAR 05AC
ENCODING 1452
SWIDTH 0 0
DWIDTH 0 0
BBX 2 3 -1 9
BITMAP
40
40
C0
ENDCHAR
STARTCHAR 05AD
ENCODING 1453
SWIDTH 0 0
DWIDTH 0 0
BBX 3 3 1 -3
BITMAP
80
80
60
ENDCHAR
STARTCHAR 05AE
ENCODING 1454
SWIDTH 0 0
DWIDTH 0 0
BBX 5 3 -5 10
BITMAP
48
A8
90
ENDCHAR
STARTCHAR 05AF
ENCODING 1455
SWIDTH 0 0
DWIDTH 0 0
BBX 3 3 -2 10
BITMAP
40
A0
40
ENDCHAR
STARTCHAR 05B0
ENCODING 1456
SWIDTH 0 0
DWIDTH 0 0
BBX 1 3 0 -4
BITMAP
80
00
80
ENDCHAR
STARTCHAR 05B1
ENCODING 1457
SWIDTH 0 0
DWIDTH 0 0
BBX 5 3 0 -4
BITMAP
A8
00
48
ENDCHAR
STARTCHAR 05B2
ENCODING 1458
SWIDTH 0 0
DWIDTH 0 0
BBX 5 3 0 -4
BITMAP
E8
00
08
ENDCHAR
STARTCHAR 05B3
ENCODING 1459
SWIDTH 0 0
DWIDTH 0 0
BBX 5 3 0 -4
BITMAP
E8
40
08
ENDCHAR
STARTCHAR 05B4
ENCODING 1460
SWIDTH 0 0
DWIDTH 0 0
BBX 1 1 0 -1
BITMAP
80
ENDCHAR
STARTCHAR 05B5
ENCODING 1461
SWIDTH 0 0
DWIDTH 0 0
BBX 3 1 0 -1
BITMAP
A0
ENDCHAR
STARTCHAR 05B6
ENCODING 1462
SWIDTH 0 0
DWIDTH 0 0
BBX 3 3 0 -4
BITMAP
A0
00
40
ENDCHAR
STARTCHAR 05B7
ENCODING 1463
SWIDTH 0 0
DWIDTH 0 0
BBX 3 1 0 -2
BITMAP
E0
ENDCHAR
STARTCHAR 05B8
ENCODING 1464
SWIDTH 0 0
DWIDTH 0 0
BBX 3 2 0 -3
BITMAP
E0
40
ENDCHAR
STARTCHAR 05B9
ENCODING 1465
SWIDTH 0 0
DWIDTH 0 0
BBX 1 1 -1 9
BITMAP
80
ENDCHAR
STARTCHAR 05BA
ENCODING 1466
SWIDTH 0 0
DWIDTH 0 0
BBX 1 1 -1 9
BITMAP
80
ENDCHAR
STARTCHAR 05BB
ENCODING 1467
SWIDTH 0 0
DWIDTH 0 0
BBX 5 3 0 -3
BITMAP
80
20
08
ENDCHAR
STARTCHAR 05BC
ENCODING 1468
SWIDTH 0 0
DWIDTH 0 0
BBX 1 1 2 4
BITMAP
80
ENDCHAR
STARTCHAR 05BD
ENCODING 1469
SWIDTH 0 0
DWIDTH 0 0
BBX 1 3 0 -3
BITMAP
80
80
80
ENDCHAR
STARTCHAR 05BE
ENCODING 1470
SWIDTH 480 0
DWIDTH 8 0
BBX 6 2 1 7
BITMAP
FC
FC
ENDCHAR
STARTCHAR 05BF
ENCODING 1471
SWIDTH 0 0
DWIDTH 0 0
BBX 3 1 -2 10
BITMAP
E0
ENDCHAR
STARTCHAR 05C0
ENCODING 1472
SWIDTH 360 0
DWIDTH 6 0
BBX 2 13 2 -2
BITMAP
C0
C0
C0
C0
C0
C0
C0
C0
C0
C0
C0
C0
C0
ENDCHAR
STARTCHAR 05C1
ENCODING 1473
SWIDTH 0 0
DWIDTH 0 0
BBX 1 1 6 9
BITMAP
80
ENDCHAR
STARTCHAR 05C2
ENCODING 1474
SWIDTH 0 0
DWIDTH 0 0
BBX 1 1 -2 9
BITMAP
80
ENDCHAR
STARTCHAR 05C3
ENCODING 1475
SWIDTH 360 0
DWIDTH 6 0
BBX 2 9 2 0
BITMAP
C0
C0
00
00
00
00
00
C0
C0
ENDCHAR
STARTCHAR 05C4
ENCODING 1476
SWIDTH 0 0
DWIDTH 0 0
BBX 1 1 -1 10
BITMAP
80
ENDCHAR
STARTCHAR 05C5
ENCODING 1477
SWIDTH 0 0
DWIDTH 0 0
BBX 1 1 -1 -1
BITMAP
80
ENDCHAR
STARTCHAR 05C6
ENCODING 1478
SWIDTH 420 0
DWIDTH 7 0
BBX 5 9 1 0
BITMAP
78
F8
C0
C0
C0
C0
C0
F8
F8
ENDCHAR
STARTCHAR 05C7
ENCODING 1479
SWIDTH 0 0
DWIDTH 0 0
BBX 3 3 0 -4
BITMAP
E0
40
40
ENDCHAR
STARTCHAR 05D0
ENCODING 1488
SWIDTH 600 0
DWIDTH 10 0
BBX 9 9 1 0
BITMAP
E300
7300
3300
7F00
7E00
EC00
C600
C700
C380
ENDCHAR
STARTCHAR 05D1
ENCODING 1489
SWIDTH 600 0
DWIDTH 10 0
BBX 9 9 1 0
BITMAP
F800
FC00
0E00
0600
0600
0600
0600
FF80
FF80
ENDCHAR
STARTCHAR 05D2
ENCODING 1490
SWIDTH 480 0
DWIDTH 8 0
BBX 8 9 0 0
BITMAP
3C
3E
06
06
06
1E
3E
73
E3
ENDCHAR
STARTCHAR 05D3
ENCODING 1491
SWIDTH 540 0
DWIDTH 9 0
BBX 9 9 0 0
BITMAP
FF80
FF80
0300
0300
0300
0300
0300
0300
0300
ENDCHAR
STARTCHAR 05D4
ENCODING 1492
SWIDTH 600 0
DWIDTH 10 0
BBX 8 9 1 0
BITMAP
FC
FE
07
03
C3
C3
C3
C3
C3
ENDCHAR
STARTCHAR 05D5
ENCODING 1493
SWIDTH 240 0
DWIDTH 4 0
BBX 2 9 1 0
BITMAP
C0
C0
C0
C0
C0
C0
C0
C0
C0
ENDCHAR
STARTCHAR 05D6
ENCODING 1494
SWIDTH 420 0
DWIDTH 7 0
BBX 5 9 1 0
BITMAP
F8
F8
30
60
60
60
60
60
60
ENDCHAR
STARTCHAR 05D7
ENCODING 1495
SWIDTH 600 0
DWIDTH 10 0
BBX 8 9 1 0
BITMAP
FC
FE
C7
C3
C3
C3
C3
C3
C3
ENDCHAR
STARTCHAR 05D8
ENCODING 1496
SWIDTH 660 0
DWIDTH 11 0
BBX 9 9 1 0
BITMAP
C700
CF80
C980
C180
C180
C180
E380
7F00
3E00
ENDCHAR
STARTCHAR 05D9
ENCODING 1497
SWIDTH 240 0
DWIDTH 4 0
BBX 2 5 1 4
BITMAP
C0
C0
C0
C0
C0
ENDCHAR
STARTCHAR 05DA
ENCODING 1498
SWIDTH 540 0
DWIDTH 9 0
BBX 8 12 0 -3
BITMAP
FC
FE
07
03
03
03
03
03
03
03
03
03
ENDCHAR
STARTCHAR 05DB
ENCODING 1499
SWIDTH 480 0
DWIDTH 8 0
BBX 6 9 1 0
BITMAP
F0
F8
1C
0C
0C
0C
1C
F8
F0
ENDCHAR
STARTCHAR 05DC
ENCODING 1500
SWIDTH 480 0
DWIDTH 8 0
BBX 6 12 1 0
BITMAP
C0
C0
C0
FC
FC
0C
0C
0C
1C
18
18
18
ENDCHAR
STARTCHAR 05DD
ENCODING 1501
SWIDTH 600 0
DWIDTH 10 0
BBX 8 9 1 0
BITMAP
FC
FE
C7
C3
C3
C3
C3
FF
FF
ENDCHAR
STARTCHAR 05DE
ENCODING 1502
SWIDTH 660 0
DWIDTH 11 0
BBX 9 9 1 0
BITMAP
CE00
DF00
7180
6180
6180
6180
6180
CF80
CF80
ENDCHAR
STARTCHAR 05DF
ENCODING 1503
SWIDTH 240 0
DWIDTH 4 0
BBX 2 12 1 -3
BITMAP
C0
C0
C0
C0
C0
C0
C0
C0
C0
C0
C0
C0
ENDCHAR
STARTCHAR 05E0
ENCODING 1504
SWIDTH 420 0
DWIDTH 7 0
BBX 5 9 1 0
BITMAP
F0
F8
18
18
18
18
18
F8
F8
ENDCHAR
STARTCHAR 05E1
ENCODING 1505
SWIDTH 600 0
DWIDTH 10 0
BBX 8 9 1 0
BITMAP
3C
7E
E7
C3
C3
C3
E7
7E
3C
ENDCHAR
STARTCHAR 05E2
ENCODING 1506
SWIDTH 540 0
DWIDTH 9 0
BBX 8 10 0 -1
BITMAP
63
63
63
33
33
33
36
3E
F8
C0
ENDCHAR
STARTCHAR 05E3
ENCODING 1507
SWIDTH 600 0
DWIDTH 10 0
BBX 8 12 1 -3
BITMAP
FC
FE
C7
C3
F3
73
03
03
03
03
03
03
ENDCHAR
STARTCHAR 05E4
ENCODING 1508
SWIDTH 600 0
DWIDTH 10 0
BBX 8 9 1 0
BITMAP
FC
FE
C7
F3
73
03
07
FE
F8
ENDCHAR
STARTCHAR 05E5
ENCODING 1509
SWIDTH 480 0
DWIDTH 8 0
BBX 7 12 0 -3
BITMAP
C6
C6
66
6C
3C
38
30
30
30
30
30
30
ENDCHAR
STARTCHAR 05E6
ENCODING 1510
SWIDTH 540 0
DWIDTH 9 0
BBX 8 9 0 0
BITMAP
E3
73
33
3B
1E
0C
06
7F
7F
ENDCHAR
STARTCHAR 05E7
ENCODING 1511
SWIDTH 600 0
DWIDTH 10 0
BBX 8 12 1 -3
BITMAP
FF
FF
03
03
C3
C6
CC
CC
CC
C0
C0
C0
ENDCHAR
STARTCHAR 05E8
ENCODING 1512
SWIDTH 540 0
DWIDTH 9 0
BBX 8 9 0 0
BITMAP
FC
FE
07
03
03
03
03
03
03
ENDCHAR
STARTCHAR 05E9
ENCODING 1513
SWIDTH 720 0
DWIDTH 12 0
BBX 10 9 1 0
BITMAP
CCC0
CCC0
CCC0
FCC0
F0C0
C1C0
6180
7F80
1E00
ENDCHAR
STARTCHAR 05EA
ENCODING 1514
SWIDTH 660 0
DWIDTH 11 0
BBX 9 9 1 0
BITMAP
FE00
FF00
3380
3180
3180
3180
3180
F180
E180
ENDCHAR
STARTCHAR 05F0
ENCODING 1520
SWIDTH 540 0
DWIDTH 9 0
BBX 7 9 1 0
BITMAP
C6
C6
C6
C6
C6
C6
C6
C6
C6
ENDCHAR
STARTCHAR 05F1
ENCODING 1521
SWIDTH 540 0
DWIDTH 9 0
BBX 7 9 1 0
BITMAP
C6
C6
C6
C6
C6
06
06
06
06
ENDCHAR
STARTCHAR 05F2
ENCODING 1522
SWIDTH 540 0
DWIDTH 9 0
BBX 7 5 1 4
BITMAP
C6
C6
C6
C6
C6
ENDCHAR
STARTCHAR 05F3
ENCODING 1523
SWIDTH 300 0
DWIDTH 5 0
BBX 3 4 1 5
BITMAP
60
40
C0
80
ENDCHAR
STARTCHAR 05F4
ENCODING 1524
SWIDTH 540 0
DWIDTH 9 0
BBX 7 4 1 5
BITMAP
66
44
CC
88
ENDCHAR
STARTCHAR 0600
ENCODING 1536
SWIDTH 960 0
DWIDTH 16 0
BBX 15 6 1 -2
BITMAP
0004
000C
000C
0008
FFFE
7FFE
ENDCHAR
STARTCHAR 0601
ENCODING 1537
SWIDTH 1380 0
DWIDTH 23 0
BBX 21 5 1 -2
BITMAP
808000
8C8078
9CCFF8
F7FF88
E37810
ENDCHAR
STARTCHAR 0602
ENCODING 1538
SWIDTH 360 0
DWIDTH 6 0
BBX 8 6 0 -2
BITMAP
70
F0
90
90
FF
7E
ENDCHAR
STARTCHAR 0603
ENCODING 1539
SWIDTH 1320 0
DWIDTH 22 0
BBX 20 5 1 -2
BITMAP
000070
0008F0
000990
FFFFF0
7FEFF0
ENDCHAR
STARTCHAR 0604
ENCODING 1540
SWIDTH 1320 0
DWIDTH 22 0
BBX 21 8 1 -2
BITMAP
000008
000628
000F28
0013F8
0011F8
001800
FFFC00
3FF400
ENDCHAR
STARTCHAR 0605
ENCODING 1541
SWIDTH 0 0
DWIDTH 0 0
BBX 9 2 0 13
BITMAP
7000
9F80
ENDCHAR
STARTCHAR 0606
ENCODING 1542
SWIDTH 600 0
DWIDTH 10 0
BBX 9 12 1 0
BITMAP
9500
5F00
4800
4800
2800
2180
1300
1200
1200
0C00
0C00
0400
ENDCHAR
STARTCHAR 0607
ENCODING 1543
SWIDTH 600 0
DWIDTH 10 0
BBX 9 12 1 0
BITMAP
8400
4800
4400
4800
2E00
2180
1100
1200
1200
0C00
0C00
0400
ENDCHAR
STARTCHAR 0608
ENCODING 1544
SWIDTH 840 0
DWIDTH 14 0
BBX 14 10 0 -1
BITMAP
0008
00CC
01E4
316C
61FC
A1F0
2020
3060
3FE0
1F80
ENDCHAR
STARTCHAR 0609
ENCODING 1545
SWIDTH 600 0
DWIDTH 10 0
BBX 8 13 1 0
BITMAP
02
64
64
08
08
10
10
10
20
20
5B
5B
80
ENDCHAR
STARTCHAR 060A
ENCODING 1546
SWIDTH 780 0
DWIDTH 13 0
BBX 11 13 1 0
BITMAP
0200
6400
6400
0800
0800
1000
1000
1000
2000
2000
5B60
5B60
8000
ENDCHAR
STARTCHAR 060B
ENCODING 1547
SWIDTH 360 0
DWIDTH 6 0
BBX 7 16 -1 -3
BITMAP
08
1C
08
00
0C
1E
16
12
1E
FE
FE
00
18
18
18
18
ENDCHAR
STARTCHAR 060C
ENCODING 1548
SWIDTH 300 0
DWIDTH 5 0
BBX 3 5 1 2
BITMAP
40
80
80
E0
60
ENDCHAR
STARTCHAR 060D
ENCODING 1549
SWIDTH 240 0
DWIDTH 4 0
BBX 4 5 0 -1
BITMAP
30
70
40
C0
80
ENDCHAR
STARTCHAR 060E
ENCODING 1550
SWIDTH 660 0
DWIDTH 11 0
BBX 12 6 -1 3
BITMAP
7000
F000
9000
9000
FFF0
7FE0
ENDCHAR
STARTCHAR 060F
ENCODING 1551
SWIDTH 540 0
DWIDTH 9 0
BBX 8 13 0 -3
BITMAP
1C
1E
20
20
36
1C
30
6E
5F
71
61
7F
9E
ENDCHAR
STARTCHAR 0610
ENCODING 1552
SWIDTH 0 0
DWIDTH 0 0
BBX 4 3 -2 12
BITMAP
B0
F0
80
ENDCHAR
STARTCHAR 0611
ENCODING 1553
SWIDTH 0 0
DWIDTH 0 0
BBX 3 3 -2 12
BITMAP
20
E0
80
ENDCHAR
STARTCHAR 0612
ENCODING 1554
SWIDTH 0 0
DWIDTH 0 0
BBX 5 4 -3 11
BITMAP
08
E8
48
B0
ENDCHAR
STARTCHAR 0613
ENCODING 1555
SWIDTH 0 0
DWIDTH 0 0
BBX 6 5 -3 11
BITMAP
20
B4
F4
84
18
ENDCHAR
STARTCHAR 0614
ENCODING 1556
SWIDTH 0 0
DWIDTH 0 0
BBX 5 2 -2 11
BITMAP
F8
18
ENDCHAR
STARTCHAR 0615
ENCODING 1557
SWIDTH 0 0
DWIDTH 0 0
BBX 5 5 -2 9
BITMAP
40
40
78
48
F8
ENDCHAR
STARTCHAR 0616
ENCODING 1558
SWIDTH 0 0
DWIDTH 0 0
BBX 8 7 -4 9
BITMAP
14
14
14
14
74
80
FF
ENDCHAR
STARTCHAR 0617
ENCODING 1559
SWIDTH 0 0
DWIDTH 0 0
BBX 3 6 1 8
BITMAP
40
00
60
20
60
C0
ENDCHAR
STARTCHAR 0618
ENCODING 1560
SWIDTH 0 0
DWIDTH 0 0
BBX 2 2 1 12
BITMAP
40
80
ENDCHAR
STARTCHAR 0619
ENCODING 1561
SWIDTH 0 0
DWIDTH 0 0
BBX 3 4 1 11
BITMAP
60
A0
60
80
ENDCHAR
STARTCHAR 061A
ENCODING 1562
SWIDTH 0 0
DWIDTH 0 0
BBX 2 2 1 0
BITMAP
40
80
ENDCHAR
STARTCHAR 061B
ENCODING 1563
SWIDTH 300 0
DWIDTH 5 0
BBX 3 8 1 2
BITMAP
40
80
80
E0
60
00
60
60
ENDCHAR
STARTCHAR 061C
ENCODING 1564
SWIDTH 1020 0
DWIDTH 17 0
BBX 17 12 0 0
BITMAP
E63380
800080
800080
000000
093600
993680
993680
1D2A00
25AA00
800080
800080
E63380
ENDCHAR
STARTCHAR 061E
ENCODING 1566
SWIDTH 420 0
DWIDTH 7 0
BBX 7 5 0 2
BITMAP
10
38
54
EE
44
ENDCHAR
STARTCHAR 061F
ENCODING 1567
SWIDTH 360 0
DWIDTH 6 0
BBX 4 10 1 2
BITMAP
60
90
B0
C0
60
20
20
00
60
60
ENDCHAR
STARTCHAR 0620
ENCODING 1568
SWIDTH 660 0
DWIDTH 11 0
BBX 9 11 1 -3
BITMAP
0180
0380
4280
4400
8780
8780
8180
FF00
7C00
1400
1800
ENDCHAR
STARTCHAR 0621
ENCODING 1569
SWIDTH 480 0
DWIDTH 8 0
BBX 6 8 1 1
BITMAP
38
70
C0
CC
F8
60
C0
80
ENDCHAR
STARTCHAR 0622
ENCODING 1570
SWIDTH 240 0
DWIDTH 4 0
BBX 4 12 1 2
BITMAP
F0
40
40
40
40
40
40
40
40
40
40
40
ENDCHAR
STARTCHAR 0623
ENCODING 1571
SWIDTH 240 0
DWIDTH 4 0
BBX 2 13 1 2
BITMAP
40
C0
00
40
40
40
40
40
40
40
40
40
40
ENDCHAR
STARTCHAR 0624
ENCODING 1572
SWIDTH 480 0
DWIDTH 8 0
BBX 8 12 0 -1
BITMAP
10
30
00
02
07
05
05
07
03
83
7E
1C
ENDCHAR
STARTCHAR 0625
ENCODING 1573
SWIDTH 240 0
DWIDTH 4 0
BBX 2 14 1 -1
BITMAP
40
40
40
40
40
40
40
40
40
40
40
00
40
C0
ENDCHAR
STARTCHAR 0626
ENCODING 1574
SWIDTH 660 0
DWIDTH 11 0
BBX 9 10 1 -1
BITMAP
2000
6180
0380
4280
4400
8780
8780
8180
FF00
7C00
ENDCHAR
STARTCHAR 0627
ENCODING 1575
SWIDTH 240 0
DWIDTH 4 0
BBX 1 11 2 2
BITMAP
80
80
80
80
80
80
80
80
80
80
80
ENDCHAR
STARTCHAR 0628
ENCODING 1576
SWIDTH 660 0
DWIDTH 11 0
BBX 11 10 0 -2
BITMAP
4000
4060
8020
C020
7FE0
7FE0
0000
0200
0700
0200
ENDCHAR
STARTCHAR 0629
ENCODING 1577
SWIDTH 360 0
DWIDTH 6 0
BBX 4 10 1 2
BITMAP
B0
D0
00
40
60
70
B0
90
F0
E0
ENDCHAR
STARTCHAR 062A
ENCODING 1578
SWIDTH 660 0
DWIDTH 11 0
BBX 11 8 0 2
BITMAP
0B00
0D00
4000
4060
8020
C020
7FE0
7FE0
ENDCHAR
STARTCHAR 062B
ENCODING 1579
SWIDTH 660 0
DWIDTH 11 0
BBX 11 10 0 2
BITMAP
0600
0600
0B00
0D00
4000
4060
8020
C020
7FE0
7FE0
ENDCHAR
STARTCHAR 062C
ENCODING 1580
SWIDTH 600 0
DWIDTH 10 0
BBX 9 12 1 -3
BITMAP
7F00
FF00
B800
6000
4000
8000
8800
9C00
C800
6000
7F80
1E00
ENDCHAR
STARTCHAR 062D
ENCODING 1581
SWIDTH 600 0
DWIDTH 10 0
BBX 9 12 1 -3
BITMAP
7F00
FF00
B800
6000
4000
8000
8000
8000
C000
6000
7F80
1E00
ENDCHAR
STARTCHAR 062E
ENCODING 1582
SWIDTH 600 0
DWIDTH 10 0
BBX 9 15 1 -3
BITMAP
1000
3800
1000
7F00
FF00
B800
6000
4000
8000
8000
8000
C000
6000
7F80
1E00
ENDCHAR
STARTCHAR 062F
ENCODING 1583
SWIDTH 360 0
DWIDTH 6 0
BBX 5 8 1 2
BITMAP
20
30
38
18
08
88
F8
F8
ENDCHAR
STARTCHAR 0630
ENCODING 1584
SWIDTH 360 0
DWIDTH 6 0
BBX 5 12 1 2
BITMAP
20
70
20
00
20
30
38
18
08
88
F8
F8
ENDCHAR
STARTCHAR 0631
ENCODING 1585
SWIDTH 420 0
DWIDTH 7 0
BBX 7 9 0 -1
BITMAP
04
06
06
02
02
06
8E
7C
38
ENDCHAR
STARTCHAR 0632
ENCODING 1586
SWIDTH 420 0
DWIDTH 7 0
BBX 7 12 0 -1
BITMAP
04
0E
04
04
06
06
02
02
06
8E
7C
38
ENDCHAR
STARTCHAR 0633
ENCODING 1587
SWIDTH 900 0
DWIDTH 15 0
BBX 14 9 1 -1
BITMAP
0200
4214
4314
8114
81FC
81EC
C300
FF00
7E00
ENDCHAR
STARTCHAR 0634
ENCODING 1588
SWIDTH 900 0
DWIDTH 15 0
BBX 14 13 1 -1
BITMAP
0030
0030
0058
0068
0200
4214
4314
8114
81FC
81EC
C300
FF00
7E00
ENDCHAR
STARTCHAR 0635
ENCODING 1589
SWIDTH 1080 0
DWIDTH 18 0
BBX 17 9 1 -1
BITMAP
020300
420F80
431880
816080
81FF80
81FF80
C30000
FF0000
7E0000
ENDCHAR
STARTCHAR 0636
ENCODING 1590
SWIDTH 1080 0
DWIDTH 18 0
BBX 17 13 1 -1
BITMAP
001000
003800
001000
000000
020300
420F80
431880
816080
81FF80
81FF80
C30000
FF0000
7E0000
ENDCHAR
STARTCHAR 0637
ENCODING 1591
SWIDTH 540 0
DWIDTH 9 0
BBX 10 12 -1 2
BITMAP
1000
3800
3800
1000
1800
0800
0980
0FC0
0C40
1840
FFC0
FFC0
ENDCHAR
STARTCHAR 0638
ENCODING 1592
SWIDTH 540 0
DWIDTH 9 0
BBX 10 12 -1 2
BITMAP
1000
3800
3900
1380
1900
0800
0980
0FC0
0C40
1840
FFC0
FFC0
ENDCHAR
STARTCHAR 0639
ENCODING 1593
SWIDTH 540 0
DWIDTH 9 0
BBX 8 13 1 -3
BITMAP
18
3C
60
40
66
3C
70
C0
80
80
C0
7F
3E
ENDCHAR
STARTCHAR 063A
ENCODING 1594
SWIDTH 540 0
DWIDTH 9 0
BBX 8 16 1 -3
BITMAP
20
70
20
18
3C
60
40
66
3C
70
C0
80
80
C0
7F
3E
ENDCHAR
STARTCHAR 063B
ENCODING 1595
SWIDTH 780 0
DWIDTH 13 0
BBX 12 12 1 2
BITMAP
02C0
0340
0020
00E0
01C0
0180
00C0
4060
8020
8010
FFF0
7FF0
ENDCHAR
STARTCHAR 063C
ENCODING 1596
SWIDTH 780 0
DWIDTH 13 0
BBX 12 15 1 -3
BITMAP
0020
00E0
01C0
0180
00C0
4060
8020
8010
FFF0
7FF0
0000
0580
0680
0300
0300
ENDCHAR
STARTCHAR 063D
ENCODING 1597
SWIDTH 660 0
DWIDTH 11 0
BBX 9 10 1 -1
BITMAP
0800
1580
0380
4280
4400
8780
8780
8180
FF00
7C00
ENDCHAR
STARTCHAR 063E
ENCODING 1598
SWIDTH 660 0
DWIDTH 11 0
BBX 9 10 1 -1
BITMAP
1600
1B80
0380
4280
4400
8780
8780
8180
FF00
7C00
ENDCHAR
STARTCHAR 063F
ENCODING 1599
SWIDTH 660 0
DWIDTH 11 0
BBX 9 12 1 -1
BITMAP
0C00
0400
1600
1B80
0380
4280
4400
8780
8780
8180
FF00
7C00
ENDCHAR
STARTCHAR 0640
ENCODING 1600
SWIDTH 180 0
DWIDTH 3 0
BBX 4 2 -1 2
BITMAP
F0
F0
ENDCHAR
STARTCHAR 0641
ENCODING 1601
SWIDTH 780 0
DWIDTH 13 0
BBX 12 10 1 2
BITMAP
0040
00E0
0040
0060
40F0
8090
8090
80F0
FFF0
7FF0
ENDCHAR
STARTCHAR 0642
ENCODING 1602
SWIDTH 600 0
DWIDTH 10 0
BBX 9 12 1 -2
BITMAP
0580
0680
0000
0300
4780
4580
8780
8380
8080
C180
7F80
3E00
ENDCHAR
STARTCHAR 0643
ENCODING 1603
SWIDTH 540 0
DWIDTH 9 0
BBX 8 11 1 2
BITMAP
02
03
0B
12
1A
59
89
B1
81
FF
7F
ENDCHAR
STARTCHAR 0644
ENCODING 1604
SWIDTH 480 0
DWIDTH 8 0
BBX 7 14 1 -1
BITMAP
04
06
06
04
04
02
02
42
82
82
82
86
FC
78
ENDCHAR
STARTCHAR 0645
ENCODING 1605
SWIDTH 360 0
DWIDTH 6 0
BBX 5 11 1 -4
BITMAP
20
70
18
78
F8
80
80
40
40
40
40
ENDCHAR
STARTCHAR 0646
ENCODING 1606
SWIDTH 540 0
DWIDTH 9 0
BBX 8 11 1 -1
BITMAP
08
1C
0A
43
43
81
81
81
C3
FF
7C
ENDCHAR
STARTCHAR 0647
ENCODING 1607
SWIDTH 360 0
DWIDTH 6 0
BBX 4 7 1 2
BITMAP
40
60
70
B0
90
F0
E0
ENDCHAR
STARTCHAR 0648
ENCODING 1608
SWIDTH 480 0
DWIDTH 8 0
BBX 8 9 0 -1
BITMAP
02
07
05
05
07
03
83
7E
1C
ENDCHAR
STARTCHAR 0649
ENCODING 1609
SWIDTH 660 0
DWIDTH 11 0
BBX 9 9 1 -1
BITMAP
0180
0380
4280
4400
8780
8780
8180
FF00
7C00
ENDCHAR
STARTCHAR 064A
ENCODING 1610
SWIDTH 660 0
DWIDTH 11 0
BBX 9 12 1 -4
BITMAP
0180
0380
4280
4400
8780
8780
8180
FF00
7C00
0000
1400
1A00
ENDCHAR
STARTCHAR 064B
ENCODING 1611
SWIDTH 0 0
DWIDTH 0 0
BBX 3 4 0 12
BITMAP
60
80
60
80
ENDCHAR
STARTCHAR 064C
ENCODING 1612
SWIDTH 0 0
DWIDTH 0 0
BBX 3 3 1 12
BITMAP
20
A0
C0
ENDCHAR
STARTCHAR 064D
ENCODING 1613
SWIDTH 0 0
DWIDTH 0 0
BBX 3 4 0 -3
BITMAP
60
80
60
80
ENDCHAR
STARTCHAR 064E
ENCODING 1614
SWIDTH 0 0
DWIDTH 0 0
BBX 3 2 0 12
BITMAP
60
80
ENDCHAR
STARTCHAR 064F
ENCODING 1615
SWIDTH 0 0
DWIDTH 0 0
BBX 2 4 2 12
BITMAP
C0
C0
40
80
ENDCHAR
STARTCHAR 0650
ENCODING 1616
SWIDTH 0 0
DWIDTH 0 0
BBX 3 2 0 -1
BITMAP
60
80
ENDCHAR
STARTCHAR 0651
ENCODING 1617
SWIDTH 0 0
DWIDTH 0 0
BBX 3 3 1 12
BITMAP
20
E0
80
ENDCHAR
STARTCHAR 0652
ENCODING 1618
SWIDTH 0 0
DWIDTH 0 0
BBX 3 3 0 12
BITMAP
60
A0
C0
ENDCHAR
STARTCHAR 0653
ENCODING 1619
SWIDTH 0 0
DWIDTH 0 0
BBX 4 1 0 13
BITMAP
F0
ENDCHAR
STARTCHAR 0654
ENCODING 1620
SWIDTH 0 0
DWIDTH 0 0
BBX 2 2 1 13
BITMAP
40
C0
ENDCHAR
STARTCHAR 0655
ENCODING 1621
SWIDTH 0 0
DWIDTH 0 0
BBX 2 2 1 -2
BITMAP
40
C0
ENDCHAR
STARTCHAR 0656
ENCODING 1622
SWIDTH 0 0
DWIDTH 0 0
BBX 1 5 0 -4
BITMAP
80
80
80
80
80
ENDCHAR
STARTCHAR 0657
ENCODING 1623
SWIDTH 0 0
DWIDTH 0 0
BBX 2 3 -1 11
BITMAP
C0
C0
C0
ENDCHAR
STARTCHAR 0658
ENCODING 1624
SWIDTH 0 0
DWIDTH 0 0
BBX 3 2 -2 12
BITMAP
A0
E0
ENDCHAR
STARTCHAR 0659
ENCODING 1625
SWIDTH 0 0
DWIDTH 0 0
BBX 3 1 -2 11
BITMAP
E0
ENDCHAR
STARTCHAR 065A
ENCODING 1626
SWIDTH 0 0
DWIDTH 0 0
BBX 3 2 -1 10
BITMAP
A0
40
ENDCHAR
STARTCHAR 065B
ENCODING 1627
SWIDTH 0 0
DWIDTH 0 0
BBX 3 2 -1 10
BITMAP
40
A0
ENDCHAR
STARTCHAR 065C
ENCODING 1628
SWIDTH 0 0
DWIDTH 0 0
BBX 2 2 -1 -1
BITMAP
C0
C0
ENDCHAR
STARTCHAR 065D
ENCODING 1629
SWIDTH 0 0
DWIDTH 0 0
BBX 3 4 -1 12
BITMAP
C0
C0
80
60
ENDCHAR
STARTCHAR 065E
ENCODING 1630
SWIDTH 0 0
DWIDTH 0 0
BBX 4 4 -2 10
BITMAP
80
30
C0
10
ENDCHAR
STARTCHAR 065F
ENCODING 1631
SWIDTH 0 0
DWIDTH 0 0
BBX 3 2 0 -1
BITMAP
20
E0
ENDCHAR
STARTCHAR 0660
ENCODING 1632
SWIDTH 600 0
DWIDTH 10 0
BBX 3 4 3 4
BITMAP
40
60
C0
40
ENDCHAR
STARTCHAR 0661
ENCODING 1633
SWIDTH 600 0
DWIDTH 10 0
BBX 3 10 3 2
BITMAP
80
C0
C0
60
60
60
20
20
20
20
ENDCHAR
STARTCHAR 0662
ENCODING 1634
SWIDTH 600 0
DWIDTH 10 0
BBX 5 10 2 2
BITMAP
88
F8
F8
60
70
30
30
10
10
10
ENDCHAR
STARTCHAR 0663
ENCODING 1635
SWIDTH 600 0
DWIDTH 10 0
BBX 7 10 2 2
BITMAP
92
FE
FC
60
60
60
20
20
20
20
ENDCHAR
STARTCHAR 0664
ENCODING 1636
SWIDTH 600 0
DWIDTH 10 0
BBX 4 10 3 2
BITMAP
20
60
40
E0
F0
60
40
C0
F0
60
ENDCHAR
STARTCHAR 0665
ENCODING 1637
SWIDTH 600 0
DWIDTH 10 0
BBX 6 6 2 4
BITMAP
38
7C
8C
84
F8
70
ENDCHAR
STARTCHAR 0666
ENCODING 1638
SWIDTH 600 0
DWIDTH 10 0
BBX 6 10 2 2
BITMAP
80
F0
F0
10
10
10
18
1C
0C
04
ENDCHAR
STARTCHAR 0667
ENCODING 1639
SWIDTH 600 0
DWIDTH 10 0
BBX 7 10 1 2
BITMAP
82
C6
C6
C6
6C
28
28
30
10
10
ENDCHAR
STARTCHAR 0668
ENCODING 1640
SWIDTH 600 0
DWIDTH 10 0
BBX 7 10 1 2
BITMAP
10
10
18
28
28
6C
CE
C6
C6
82
ENDCHAR
STARTCHAR 0669
ENCODING 1641
SWIDTH 600 0
DWIDTH 10 0
BBX 6 10 2 2
BITMAP
30
78
88
F8
78
08
08
0C
0C
04
ENDCHAR
STARTCHAR 066A
ENCODING 1642
SWIDTH 540 0
DWIDTH 9 0
BBX 7 11 1 2
BITMAP
C2
C4
04
08
08
10
20
20
40
46
86
ENDCHAR
STARTCHAR 066B
ENCODING 1643
SWIDTH 300 0
DWIDTH 5 0
BBX 2 4 2 1
BITMAP
C0
40
40
80
ENDCHAR
STARTCHAR 066C
ENCODING 1644
SWIDTH 300 0
DWIDTH 5 0
BBX 3 5 1 0
BITMAP
C0
E0
20
20
40
ENDCHAR
STARTCHAR 066D
ENCODING 1645
SWIDTH 540 0
DWIDTH 9 0
BBX 7 7 1 6
BITMAP
10
54
38
EE
38
54
10
ENDCHAR
STARTCHAR 066E
ENCODING 1646
SWIDTH 660 0
DWIDTH 11 0
BBX 11 6 0 2
BITMAP
4000
4060
8020
C020
7FE0
7FE0
ENDCHAR
STARTCHAR 066F
ENCODING 1647
SWIDTH 600 0
DWIDTH 10 0
BBX 9 9 1 -2
BITMAP
0300
4780
4580
8780
8380
8080
C180
7F80
3E00
ENDCHAR
STARTCHAR 0670
ENCODING 1648
SWIDTH 0 0
DWIDTH 0 0
BBX 1 5 0 9
BITMAP
80
80
80
80
80
ENDCHAR
STARTCHAR 0671
ENCODING 1649
SWIDTH 240 0
DWIDTH 4 0
BBX 3 13 1 2
BITMAP
60
E0
80
40
40
40
40
40
40
40
40
40
40
ENDCHAR
STARTCHAR 0672
ENCODING 1650
SWIDTH 240 0
DWIDTH 4 0
BBX 3 13 0 2
BITMAP
20
E0
00
20
20
20
20
20
20
20
20
20
20
ENDCHAR
STARTCHAR 0673
ENCODING 1651
SWIDTH 240 0
DWIDTH 4 0
BBX 3 14 0 -1
BITMAP
20
20
20
20
20
20
20
20
20
20
20
00
20
E0
ENDCHAR
STARTCHAR 0674
ENCODING 1652
SWIDTH 0 0
DWIDTH 0 0
BBX 2 2 1 13
BITMAP
40
C0
ENDCHAR
STARTCHAR 0675
ENCODING 1653
SWIDTH 240 0
DWIDTH 4 0
BBX 3 11 2 2
BITMAP
A0
E0
80
80
80
80
80
80
80
80
80
ENDCHAR
STARTCHAR 0676
ENCODING 1654
SWIDTH 480 0
DWIDTH 8 0
BBX 9 13 0 -1
BITMAP
0080
0180
0000
0000
0200
0700
0500
0500
0700
0300
8300
7E00
1C00
ENDCHAR
STARTCHAR 0677
ENCODING 1655
SWIDTH 480 0
DWIDTH 8 0
BBX 9 14 0 -1
BITMAP
0C00
0C80
0580
0800
0000
0200
0700
0500
0500
0700
0300
8300
7E00
1C00
ENDCHAR
STARTCHAR 0678
ENCODING 1656
SWIDTH 660 0
DWIDTH 11 0
BBX 10 13 1 -1
BITMAP
0040
00C0
0000
0000
0180
0380
4280
4400
8780
8780
8180
FF00
7C00
ENDCHAR
STARTCHAR 0679
ENCODING 1657
SWIDTH 660 0
DWIDTH 11 0
BBX 11 12 0 2
BITMAP
1000
1000
1E00
1200
3E00
0000
4080
4060
8020
C020
7FE0
7FE0
ENDCHAR
STARTCHAR 067A
ENCODING 1658
SWIDTH 660 0
DWIDTH 11 0
BBX 11 10 0 2
BITMAP
1800
1800
0C00
0C00
4000
4060
8020
C020
7FE0
7FE0
ENDCHAR
STARTCHAR 067B
ENCODING 1659
SWIDTH 660 0
DWIDTH 11 0
BBX 11 11 0 -3
BITMAP
4000
4060
8020
C040
7FC0
7FE0
0000
0C00
0C00
0600
0600
ENDCHAR
STARTCHAR 067C
ENCODING 1660
SWIDTH 660 0
DWIDTH 11 0
BBX 11 9 0 1
BITMAP
0B00
0D00
4000
4060
8020
C020
7FE0
7FE0
0C00
ENDCHAR
STARTCHAR 067D
ENCODING 1661
SWIDTH 660 0
DWIDTH 11 0
BBX 11 8 0 2
BITMAP
5800
6800
7000
7060
8040
C020
7FE0
7FE0
ENDCHAR
STARTCHAR 067E
ENCODING 1662
SWIDTH 660 0
DWIDTH 11 0
BBX 11 11 0 -3
BITMAP
4000
4060
8020
C020
7FE0
7FE0
0000
0B00
0D00
0600
0600
ENDCHAR
STARTCHAR 067F
ENCODING 1663
SWIDTH 660 0
DWIDTH 11 0
BBX 11 10 0 2
BITMAP
2C00
3400
1600
1A00
4000
4060
8020
C020
7FE0
7FE0
ENDCHAR
STARTCHAR 0680
ENCODING 1664
SWIDTH 660 0
DWIDTH 11 0
BBX 11 11 0 -3
BITMAP
4000
4060
8020
C020
7FE0
7FE0
0000
1600
1A00
0B00
0D00
ENDCHAR
STARTCHAR 0681
ENCODING 1665
SWIDTH 600 0
DWIDTH 10 0
BBX 9 15 1 -3
BITMAP
0400
0C00
0000
7F00
FF00
B800
6000
4000
8000
8000
8000
C000
6000
7F80
1E00
ENDCHAR
STARTCHAR 0682
ENCODING 1666
SWIDTH 600 0
DWIDTH 10 0
BBX 9 17 1 -3
BITMAP
1800
1800
0C00
0C00
0000
7F00
FF00
B800
6000
4000
8000
8000
8000
C000
6000
7F80
1E00
ENDCHAR
STARTCHAR 0683
ENCODING 1667
SWIDTH 600 0
DWIDTH 10 0
BBX 9 12 1 -3
BITMAP
7F00
FF00
B800
6000
4000
9600
9A00
8000
C000
6000
7F80
1E00
ENDCHAR
STARTCHAR 0684
ENCODING 1668
SWIDTH 600 0
DWIDTH 10 0
BBX 9 12 1 -3
BITMAP
7F00
FF00
B800
6000
4000
8C00
8C00
8600
C600
6000
7F80
1E00
ENDCHAR
STARTCHAR 0685
ENCODING 1669
SWIDTH 600 0
DWIDTH 10 0
BBX 9 17 1 -3
BITMAP
0C00
0C00
1600
1A00
0000
7F00
FF00
B800
6000
4000
8000
8000
8000
C000
6000
7F80
1E00
ENDCHAR
STARTCHAR 0686
ENCODING 1670
SWIDTH 600 0
DWIDTH 10 0
BBX 9 12 1 -3
BITMAP
7F00
FF00
B800
6000
4000
AC00
B400
9800
D800
6000
7F80
1E00
ENDCHAR
STARTCHAR 0687
ENCODING 1671
SWIDTH 600 0
DWIDTH 10 0
BBX 9 12 1 -3
BITMAP
7F00
FF00
B800
6000
4000
8000
9600
9A00
CB00
6D00
7F80
1E00
ENDCHAR
STARTCHAR 0688
ENCODING 1672
SWIDTH 360 0
DWIDTH 6 0
BBX 6 13 0 2
BITMAP
40
40
78
48
F8
00
10
18
1C
0C
44
7C
7C
ENDCHAR
STARTCHAR 0689
ENCODING 1673
SWIDTH 360 0
DWIDTH 6 0
BBX 5 10 1 0
BITMAP
20
30
38
18
08
88
F8
F8
50
60
ENDCHAR
STARTCHAR 068A
ENCODING 1674
SWIDTH 360 0
DWIDTH 6 0
BBX 5 12 1 -2
BITMAP
20
30
38
18
08
88
F8
F8
00
20
70
20
ENDCHAR
STARTCHAR 068B
ENCODING 1675
SWIDTH 360 0
DWIDTH 6 0
BBX 6 17 0 -2
BITMAP
40
40
78
48
F8
00
10
18
1C
0C
44
7C
7C
00
10
38
10
ENDCHAR
STARTCHAR 068C
ENCODING 1676
SWIDTH 360 0
DWIDTH 6 0
BBX 5 12 1 2
BITMAP
B0
D0
00
00
20
30
38
18
08
88
F8
F8
ENDCHAR
STARTCHAR 068D
ENCODING 1677
SWIDTH 360 0
DWIDTH 6 0
BBX 5 11 1 -1
BITMAP
20
30
38
18
08
88
F8
F8
00
58
68
ENDCHAR
STARTCHAR 068E
ENCODING 1678
SWIDTH 360 0
DWIDTH 6 0
BBX 5 11 1 2
BITMAP
30
30
58
68
20
30
38
18
88
F8
F8
ENDCHAR
STARTCHAR 068F
ENCODING 1679
SWIDTH 360 0
DWIDTH 6 0
BBX 5 11 1 2
BITMAP
B0
D0
60
60
20
30
38
18
88
F8
F8
ENDCHAR
STARTCHAR 0690
ENCODING 1680
SWIDTH 360 0
DWIDTH 6 0
BBX 5 11 1 2
BITMAP
B0
D0
58
68
20
30
38
18
88
F8
F8
ENDCHAR
STARTCHAR 0691
ENCODING 1681
SWIDTH 420 0
DWIDTH 7 0
BBX 7 14 0 -1
BITMAP
10
10
1E
12
3E
04
06
06
02
02
06
8E
7C
38
ENDCHAR
STARTCHAR 0692
ENCODING 1682
SWIDTH 420 0
DWIDTH 7 0
BBX 7 12 0 -1
BITMAP
14
08
00
04
06
06
02
02
06
8E
7C
38
ENDCHAR
STARTCHAR 0693
ENCODING 1683
SWIDTH 420 0
DWIDTH 7 0
BBX 7 10 0 -2
BITMAP
04
06
06
02
02
06
8E
7E
3A
0C
ENDCHAR
STARTCHAR 0694
ENCODING 1684
SWIDTH 420 0
DWIDTH 7 0
BBX 8 11 0 -3
BITMAP
04
06
06
02
02
06
8E
7C
3A
07
02
ENDCHAR
STARTCHAR 0695
ENCODING 1685
SWIDTH 420 0
DWIDTH 7 0
BBX 8 12 0 -4
BITMAP
04
06
06
02
02
06
8E
7C
38
00
05
02
ENDCHAR
STARTCHAR 0696
ENCODING 1686
SWIDTH 420 0
DWIDTH 7 0
BBX 8 11 0 -3
BITMAP
04
06
06
12
3A
16
8E
7C
3A
07
02
ENDCHAR
STARTCHAR 0697
ENCODING 1687
SWIDTH 420 0
DWIDTH 7 0
BBX 7 12 0 -1
BITMAP
16
1A
00
04
06
06
02
02
06
8E
7C
38
ENDCHAR
STARTCHAR 0698
ENCODING 1688
SWIDTH 420 0
DWIDTH 7 0
BBX 7 14 0 -1
BITMAP
0C
0C
16
1A
00
04
06
06
02
02
06
8E
7C
38
ENDCHAR
STARTCHAR 0699
ENCODING 1689
SWIDTH 420 0
DWIDTH 7 0
BBX 7 12 0 -1
BITMAP
2C
34
16
1E
06
06
02
02
06
8E
7C
38
ENDCHAR
STARTCHAR 069A
ENCODING 1690
SWIDTH 900 0
DWIDTH 15 0
BBX 14 13 1 -2
BITMAP
0020
0070
0020
0200
4214
4314
8114
81FC
81EC
C300
FF10
7E38
0010
ENDCHAR
STARTCHAR 069B
ENCODING 1691
SWIDTH 900 0
DWIDTH 15 0
BBX 14 11 1 -3
BITMAP
0200
4214
4314
8114
81FC
81EC
C300
FF58
7E68
0030
0030
ENDCHAR
STARTCHAR 069C
ENCODING 1692
SWIDTH 900 0
DWIDTH 15 0
BBX 14 15 1 -3
BITMAP
0030
0030
0058
0068
0200
4214
4314
8114
81FC
81EC
C300
FFB0
7ED0
0060
0060
ENDCHAR
STARTCHAR 069D
ENCODING 1693
SWIDTH 1080 0
DWIDTH 18 0
BBX 17 9 1 -1
BITMAP
020300
420F80
431880
816080
81FF80
81FF80
C30000
FF1600
7E1A00
ENDCHAR
STARTCHAR 069E
ENCODING 1694
SWIDTH 1080 0
DWIDTH 18 0
BBX 17 14 1 -1
BITMAP
003000
003000
005800
006800
000000
020300
420F80
431880
816080
81FF80
81FF80
C30000
FF0000
7E0000
ENDCHAR
STARTCHAR 069F
ENCODING 1695
SWIDTH 540 0
DWIDTH 9 0
BBX 10 12 -1 2
BITMAP
1000
3980
3980
12C0
1B40
0800
0980
0FC0
0C40
1840
FFC0
FFC0
ENDCHAR
ENDFONT
